SplineFontDB: 3.0
FontName: VeranaSansMedium-Oblique
FullName: Verana Sans Medium Oblique
FamilyName: Verana Sans Medium
Weight: Normal
Copyright: Copyright (c) Arkandis Digital fondry, from initial release of Bitstream VeraSans Font modified  and under Public Domain.
Version: 1.002
ItalicAngle: -11
UnderlinePosition: -100
UnderlineWidth: 50
Ascent: 760
Descent: 240
sfntRevision: 0x00010041
LayerCount: 2
Layer: 0 0 "Arri+AOgA-re"  1
Layer: 1 0 "Avant"  0
NeedsXUIDChange: 1
XUID: [1021 905 1196402830 14384422]
BaseHoriz: 2 'ideo' 'romn'
BaseScript: 'latn' 1  -135 0
FSType: 8
OS2Version: 2
OS2_WeightWidthSlopeOnly: 0
OS2_UseTypoMetrics: 1
CreationTime: 1214138634
ModificationTime: 1312112162
PfmFamily: 17
TTFWeight: 500
TTFWidth: 5
LineGap: 200
VLineGap: 0
Panose: 2 11 5 6 2 2 2 9 0 3
OS2TypoAscent: 0
OS2TypoAOffset: 1
OS2TypoDescent: 0
OS2TypoDOffset: 1
OS2TypoLinegap: 200
OS2WinAscent: 0
OS2WinAOffset: 1
OS2WinDescent: 0
OS2WinDOffset: 1
HheadAscent: -168
HheadAOffset: 1
HheadDescent: -4
HheadDOffset: 1
OS2SubXSize: 650
OS2SubYSize: 600
OS2SubXOff: -15
OS2SubYOff: 75
OS2SupXSize: 650
OS2SupYSize: 600
OS2SupXOff: 68
OS2SupYOff: 350
OS2StrikeYSize: 80
OS2StrikeYPos: 328
OS2Vendor: 'ADFP'
OS2CodePages: 00000003.00000000
OS2UnicodeRanges: 800000af.5000204a.00000000.00000000
Lookup: 1 0 0 "'aalt' Activer toutes les variantes dans Latin lookup 0"  {"sous-table 'aalt' Activer toutes les variantes dans Latin lookup 0"  } ['aalt' ('latn' <'dflt' > ) ]
Lookup: 3 0 0 "'aalt' Activer toutes les variantes dans Latin lookup 1"  {"sous-table 'aalt' Activer toutes les variantes dans Latin lookup 1"  } ['aalt' ('latn' <'dflt' > ) ]
Lookup: 1 0 0 "'numr' Num+AOkA-rateurs dans Latin lookup 2"  {"sous-table 'numr' Num+AOkA-rateurs dans Latin lookup 2"  } ['numr' ('latn' <'dflt' > ) ]
Lookup: 1 0 0 "'dnom' D+AOkA-nominateurs dans Latin lookup 3"  {"sous-table 'dnom' D+AOkA-nominateurs dans Latin lookup 3"  } ['dnom' ('latn' <'dflt' > ) ]

StartChar: .notdef
Encoding: 65536 -1 0
Width: 624
Flags: W
HStem: -177 63<39 414> 641 64<186 561>
LayerCount: 2
Fore
SplineSet
-46 -177 m 1
 126 705 l 1
 646 705 l 1
 474 -177 l 1
 -46 -177 l 1
39 -114 m 1
 414 -114 l 1
 561 641 l 1
 186 641 l 1
 39 -114 l 1
EndSplineSet
Validated: 1
EndChar

StartChar: exclam
Encoding: 33 33 2
Width: 417
Flags: W
HStem: 0 131<119 197> 709 20G<231.125 338>
VStem: 149 83<232 260.159>
LayerCount: 2
Fore
SplineSet
119 131 m 1
 222 131 l 1
 197 0 l 1
 94 0 l 1
 119 131 l 1
235 729 m 1
 338 729 l 1
 276 409 l 1
 232 232 l 1
 149 232 l 1
 173 409 l 1
 235 729 l 1
EndSplineSet
Validated: 1
Position2: "sous-table 'cpsp' Chasses pour composition en capitales dans Latin lookup 1" dx=5 dy=0 dh=10 dv=0
EndChar

StartChar: quotedbl
Encoding: 34 34 3
Width: 479
Flags: W
HStem: 458 271<178 224 360 405>
VStem: 126 331
LayerCount: 2
Fore
SplineSet
276 729 m 1
 224 458 l 1
 126 458 l 1
 178 729 l 1
 276 729 l 1
457 729 m 1
 405 458 l 1
 308 458 l 1
 360 729 l 1
 457 729 l 1
EndSplineSet
Validated: 1
EndChar

StartChar: numbersign
Encoding: 35 35 4
Width: 871
Flags: W
HStem: 0 21G<121 225.241 346 451.045> 199 83<71 211 343 435 569 710> 434 83<174 317 449 541 675 812>
LayerCount: 2
Fore
SplineSet
541 434 m 1
 413 434 l 1
 343 282 l 1
 473 282 l 1
 541 434 l 1
540 718 m 1
 449 517 l 1
 578 517 l 1
 669 718 l 1
 765 718 l 1
 675 517 l 1
 828 517 l 1
 812 434 l 1
 638 434 l 1
 569 282 l 1
 726 282 l 1
 710 199 l 1
 532 199 l 1
 442 0 l 1
 346 0 l 1
 435 199 l 1
 299 199 l 1
 217 0 l 1
 121 0 l 1
 211 199 l 1
 55 199 l 1
 71 282 l 1
 247 282 l 1
 317 434 l 1
 158 434 l 1
 174 517 l 1
 361 517 l 1
 444 718 l 1
 540 718 l 1
EndSplineSet
Validated: 1
EndChar

StartChar: dollar
Encoding: 36 36 5
Width: 660
Flags: W
HStem: -1 76<130.209 227 309 368.193> 570 76<277.148 338 419 511.801> 740 20G<371.14 441>
VStem: 109.127 114.296<405.13 516.947> 434.433 116.485<134.09 249.349>
LayerCount: 2
Fore
SplineSet
265 -147 m 1
 199 -147 l 1
 227 -1 l 1
 160 0 93 15 31 45 c 1
 50 140 l 1
 108 98 171 76 242 75 c 1
 283 288 l 1
 162.770331213 309.624041149 109.126782184 353.692841767 109.126782184 428.619072827 c 0
 109.126782184 440.31660296 110.434271273 452.766241303 113 466 c 0
 134 572 218 637 353 646 c 1
 375 760 l 1
 441 760 l 1
 419 647 l 1
 478 646 532 634 584 618 c 1
 565 524 l 1
 516 552 463 567 404 570 c 1
 366 371 l 1
 492.131056328 350.123135504 550.918242978 303.519399447 550.918242978 224.606727961 c 0
 550.918242978 212.801556446 549.60261292 200.273325894 547 187 c 0
 525 77 436 9 294 0 c 1
 265 -147 l 1
302 381 m 1
 338 570 l 1
 276 562 236 528 226 474 c 1
 224.286677782 465.74490204 223.422459331 458.096306771 223.422459331 451.020206153 c 0
 223.422459331 412.665794066 248.812663613 391.130921217 302 381 c 1
348 278 m 1
 309 78 l 1
 380 88 421 123 432 178 c 0
 433.615888725 185.932544648 434.433343022 193.390344501 434.433343022 200.386079473 c 0
 434.433343022 241.013106838 406.863970728 266.056585649 348 278 c 1
EndSplineSet
Validated: 524289
EndChar

StartChar: percent
Encoding: 37 37 6
Width: 988
Flags: W
HStem: -14 71<652.945 748.37> 315 73<695.431 790.731> 339 73<211.723 307.484> 670 72<254.877 350.127>
VStem: 93.1137 104.474<426.594 595.582> 365.872 103.612<486.863 654.368> 533.516 103.324<71.5493 240.859> 805.996 103.492<132.34 301.189>
LayerCount: 2
Fore
SplineSet
747 315 m 0xdf
 698 315 658 268 642 186 c 0
 638.522163825 168.828183885 636.839730343 153.026543509 636.839730343 138.810747369 c 0
 636.839730343 87.62589587 658.650873287 57 697 57 c 0
 747 57 785 107 801 186 c 1
 804.341666875 203.822223333 805.995915638 220.105918389 805.995915638 234.652069076 c 0
 805.995915638 285.400356305 785.861110417 315 747 315 c 0xdf
761 388 m 0
 854.9403259 388 909.487488448 331.417092639 909.487488448 239.466876792 c 0
 909.487488448 222.768609028 907.688578184 204.903963191 904 186 c 0
 880 64 794 -14 683 -14 c 0
 588.196031471 -14 533.516136374 41.8871022808 533.516136374 133.040559485 c 0
 533.516136374 149.574442434 535.315136113 167.268608576 539 186 c 0
 563 311 649 388 761 388 c 0
306 670 m 0
 257 670 218 621 203 542 c 0
 199.364116727 523.366098227 197.587246338 506.487930844 197.587246338 491.529782841 c 0
 197.587246338 440.663384208 218.134892523 412 256 412 c 0xbf
 306 412 345 460 361 542 c 0
 364.265050253 559.195931333 365.871792238 574.970455579 365.871792238 589.127620858 c 0
 365.871792238 640.010030078 345.116499156 670 306 670 c 0
760 742 m 1
 855 742 l 1
 243 -14 l 1
 148 -14 l 1
 760 742 l 1
320 742 m 0
 414.803968529 742 469.483863626 686.112897719 469.483863626 594.959440515 c 0
 469.483863626 578.425557566 467.684863887 560.731391424 464 542 c 0
 439 416 354 339 241 339 c 0
 147.576303384 339 93.1136724219 393.545491915 93.1136724219 485.942482334 c 0
 93.1136724219 503.32562595 95.0413731116 522.048520483 99 542 c 0
 123 664 209 742 320 742 c 0
EndSplineSet
Validated: 524289
Ligature2: "sous-table Remplacement de ligature lookups12" zero fraction zero
Ligature2: "sous-table Remplacement de ligature lookups12" zero slash zero
EndChar

StartChar: ampersand
Encoding: 38 38 7
Width: 812
Flags: W
HStem: -14 90<221.659 405.311> 655 87<362.237 535.85>
VStem: 41.931 121.678<130.573 280.238> 193.563 118.697<489.132 606.908> 648 109<335.399 395>
LayerCount: 2
Fore
SplineSet
272 386 m 1
 210 337 177 288 167 233 c 0
 164.734154144 221.922531369 163.609209942 211.22536329 163.609209942 200.924453214 c 0
 163.609209942 170.309874523 173.545776918 143.195419828 193 120 c 1
 221 91 258 76 307 76 c 0
 364 76 419 95 470 131 c 1
 272 386 l 1
362 450 m 2
 554 202 l 1
 599 257 630 322 648 395 c 1
 757 395 l 1
 732 310 682 226 608 143 c 1
 717 2 l 1
 577 2 l 1
 523 71 l 1
 444 13 367 -14 281 -14 c 0
 199 -14 135 9 92 54 c 0
 58.6206896552 88.8965517241 41.9310344828 130.123662307 41.9310344828 178.55451228 c 0
 41.9310344828 193.964328181 43.6206896552 210.103448276 47 227 c 0
 63 310 121 382 221 446 c 1
 202.557109081 476.738151531 193.562557758 507.476303062 193.562557758 537.306878048 c 0
 193.562557758 546.295260612 194.379176518 555.201243954 196 564 c 0
 217 671 314 742 442 742 c 0
 501 742 552 730 607 705 c 1
 588 609 l 1
 534 639 482 655 435 655 c 0
 374 655 324 617 314 565 c 0
 312.890227771 559.266176819 312.25940892 553.703408415 312.25940892 548.077568851 c 0
 312.25940892 523.287223441 324.508253753 497.27220179 362 450 c 2
EndSplineSet
Validated: 524289
Position2: "sous-table 'cpsp' Chasses pour composition en capitales dans Latin lookup 1" dx=5 dy=0 dh=10 dv=0
EndChar

StartChar: quotesingle
Encoding: 39 39 8
Width: 284
Flags: W
HStem: 458 271<177 211>
VStem: 125 138
LayerCount: 2
Fore
SplineSet
263 729 m 1
 211 458 l 1
 125 458 l 1
 177 729 l 1
 263 729 l 1
EndSplineSet
Validated: 1
EndChar

StartChar: parenleft
Encoding: 40 40 9
Width: 405
Flags: W
HStem: 739 20G<253 406>
VStem: 74.4894 109.047<8.59172 335.66>
LayerCount: 2
Fore
SplineSet
406 759 m 1
 296 608 229 465 200 315 c 0
 189.024390244 259.756097561 183.536585366 205.04759072 183.536585366 150.580664819 c 0
 183.536585366 56.1713265913 200.024390244 -37.512195122 233 -132 c 1
 144 -132 l 1
 97.6595744681 -24.5744680851 74.4893617021 80.8791308284 74.4893617021 184.360796741 c 0
 74.4893617021 228.262109552 78.6595744681 271.808510638 87 315 c 0
 115 459 189 606 317 759 c 1
 406 759 l 1
EndSplineSet
Validated: 524289
EndChar

StartChar: parenright
Encoding: 41 41 10
Width: 405
Flags: W
HStem: 739 20G<167 279.316>
VStem: 217.675 108.625<286.425 615.232>
LayerCount: 2
Fore
SplineSet
167 759 m 1
 256 759 l 1
 302.631586029 651.606044297 326.300081719 546.208879057 326.300081719 442.455801607 c 0
 326.300081719 399.361994899 322.216902897 356.551818572 314 314 c 0
 286 170 209 21 83 -132 c 1
 -6 -132 l 1
 105 17 172 164 202 314 c 1
 212.418919074 368.250233797 217.674752551 421.596927614 217.674752551 474.642942679 c 0
 217.674752551 569.245107432 200.95852721 662.890960725 167 759 c 1
EndSplineSet
Validated: 524289
EndChar

StartChar: asterisk
Encoding: 42 42 11
Width: 519
Flags: W
HStem: 722 20G<302.111 375>
LayerCount: 2
Fore
SplineSet
542 606 m 1
 352 514 l 1
 507 423 l 1
 460 368 l 1
 321 466 l 1
 286 286 l 1
 217 286 l 1
 252 466 l 1
 75 368 l 1
 50 423 l 1
 239 514 l 1
 85 606 l 1
 132 661 l 1
 271 562 l 1
 306 742 l 1
 375 742 l 1
 340 562 l 1
 517 661 l 1
 542 606 l 1
EndSplineSet
Validated: 1
EndChar

StartChar: plus
Encoding: 43 43 12
Width: 871
Flags: W
HStem: 0 21G<323 426.866> 269 89<116 375 492 750>
LayerCount: 2
Fore
SplineSet
544 627 m 1
 492 358 l 1
 767 358 l 1
 750 269 l 1
 475 269 l 1
 423 0 l 1
 323 0 l 1
 375 269 l 1
 99 269 l 1
 116 358 l 1
 392 358 l 1
 444 627 l 1
 544 627 l 1
EndSplineSet
Validated: 1
EndChar

StartChar: comma
Encoding: 44 44 13
Width: 331
Flags: W
HStem: -116 240
VStem: -6 196
LayerCount: 2
Fore
SplineSet
77 124 m 1
 190 124 l 1
 173 39 l 1
 66 -116 l 1
 -6 -116 l 1
 60 39 l 1
 77 124 l 1
EndSplineSet
Validated: 1
EndChar

StartChar: hyphen
Encoding: 45 45 14
Width: 376
Flags: W
HStem: 234 80<49 307>
VStem: 33 290
LayerCount: 2
Fore
SplineSet
49 314 m 1
 323 314 l 1
 307 234 l 1
 33 234 l 1
 49 314 l 1
EndSplineSet
Validated: 1
AlternateSubs2: "sous-table 'aalt' Activer toutes les variantes dans Latin lookup 1" endash emdash minus
EndChar

StartChar: period
Encoding: 46 46 15
Width: 330
Flags: W
HStem: 0 124<72 155>
VStem: 48 131
LayerCount: 2
Fore
SplineSet
72 124 m 1
 179 124 l 1
 155 0 l 1
 48 0 l 1
 72 124 l 1
EndSplineSet
Validated: 1
Substitution2: "sous-table 'aalt' Activer toutes les variantes dans Latin lookup 0" ellipsis
EndChar

StartChar: slash
Encoding: 47 47 16
Width: 351
Flags: W
HStem: 709 20G<319.976 429>
LayerCount: 2
Fore
SplineSet
330 729 m 1
 429 729 l 1
 16 -93 l 1
 -82 -93 l 1
 330 729 l 1
EndSplineSet
Validated: 1
Substitution2: "sous-table 'dnom' D+AOkA-nominateurs dans Latin lookup 3" fraction
Substitution2: "sous-table 'numr' Num+AOkA-rateurs dans Latin lookup 2" fraction
Substitution2: "sous-table 'aalt' Activer toutes les variantes dans Latin lookup 0" fraction
EndChar

StartChar: zero
Encoding: 48 48 17
Width: 662
Flags: W
HStem: -14 89<222.145 349.192> 654 88<327.657 454.63>
VStem: 61.1517 121.052<119.007 388.574> 494.612 120.534<339.429 612.485>
LayerCount: 2
Fore
SplineSet
395 654 m 0
 302 654 236 557 198 364 c 0
 187.469230769 309.069230769 182.203846154 261.996035503 182.203846154 222.757358671 c 0
 182.203846154 124.130414201 215.469230769 75 282 75 c 0
 376 75 441 171 478 364 c 0
 489.058184837 420.163938779 494.611920663 468.198229786 494.611920663 508.078229616 c 0
 494.611920663 605.240612041 461.645542771 654 395 654 c 0
412 742 m 0
 545.304286295 742 615.146391996 659.250293931 615.146391996 504.056914656 c 0
 615.146391996 462.499823062 610.138427561 415.74822401 600 364 c 0
 553 119 434 -14 265 -14 c 0
 130.08341365 -14 61.1516923478 68.7923306736 61.1516923478 224.062995132 c 0
 61.1516923478 265.590102843 66.0823365992 312.301541847 76 364 c 0
 124 609 241 742 412 742 c 0
EndSplineSet
Validated: 524289
Position2: "sous-table 'cpsp' Chasses pour composition en capitales dans Latin lookup 1" dx=5 dy=0 dh=10 dv=0
EndChar

StartChar: one
Encoding: 49 49 18
Width: 661
Flags: W
HStem: 0 90<83 244 358 502> 709 20G<269 482>
LayerCount: 2
Fore
SplineSet
83 90 m 1
 244 90 l 1
 349 630 l 1
 166 596 l 1
 185 693 l 1
 374 729 l 1
 482 729 l 1
 358 90 l 1
 519 90 l 1
 502 0 l 1
 66 0 l 1
 83 90 l 1
EndSplineSet
Validated: 1
Position2: "sous-table 'cpsp' Chasses pour composition en capitales dans Latin lookup 1" dx=5 dy=0 dh=10 dv=0
EndChar

StartChar: two
Encoding: 50 50 19
Width: 662
Flags: W
HStem: 0 88<170 495> 648 94<242.094 436.644>
VStem: 475.531 126.623<476.187 611.919>
LayerCount: 2
Fore
SplineSet
170 88 m 1
 512 88 l 1
 495 0 l 1
 13 0 l 1
 30 88 l 1
 74 127 136 179 215 244 c 1
 291 308 339 349 360 368 c 0
 435 436 464 479 473 525 c 0
 474.701315313 533.74962161 475.531334943 542.189121028 475.531334943 550.264659924 c 0
 475.531334943 608.642143386 432.156675688 648 361 648 c 0
 298 648 224 628 133 585 c 1
 154 692 l 1
 243 725 319 742 378 742 c 0
 456 742 515 723 556 685 c 0
 586.769230769 655.769230769 602.153846154 618.25443787 602.153846154 573.365953573 c 0
 602.153846154 559.899408284 600.769230769 545.769230769 598 531 c 0
 586 471 558 423 481 349 c 0
 461 331 358 245 170 88 c 1
EndSplineSet
Validated: 524289
Position2: "sous-table 'cpsp' Chasses pour composition en capitales dans Latin lookup 1" dx=5 dy=0 dh=10 dv=0
EndChar

StartChar: three
Encoding: 51 51 20
Width: 661
Flags: W
HStem: -14 94<94.6924 345.186> 345 89<226 392.652> 649 93<219.448 449.225>
VStem: 436.982 123.105<163.242 303.742> 483.278 124.476<498.177 617.737>
LayerCount: 2
Fore
SplineSet
441 393 m 1xe8
 518.156966545 376.042424935 560.08791246 325.296626001 560.08791246 254.78199243 c 0
 560.08791246 242.130685941 558.738182442 228.843033455 556 215 c 0
 528 69 406 -14 216 -14 c 0
 152 -14 87 -1 20 25 c 1
 40 126 l 1
 91 96 157 80 231 80 c 0
 346 80 417 127 434 215 c 0
 435.998019831 224.990099155 436.982424776 234.512376056 436.982424776 243.527884111 c 0xf0
 436.982424776 306.707920185 388.637252295 345 302 345 c 2
 209 345 l 1
 226 434 l 1
 323 434 l 2
 411 434 467 472 481 541 c 0
 482.52327143 549.085056054 483.277667549 556.758214619 483.277667549 564.004996504 c 0
 483.277667549 618.604161848 440.454274713 649 361 649 c 0
 305 649 240 638 156 614 c 1
 175 710 l 1
 257 731 326 742 388 742 c 0
 526.028515956 742 607.753895329 683.317857646 607.753895329 587.138775263 c 0
 607.753895329 575.312945283 606.518349245 562.920226563 604 550 c 0
 589 472 530 414 441 393 c 1xe8
EndSplineSet
Validated: 524289
Position2: "sous-table 'cpsp' Chasses pour composition en capitales dans Latin lookup 1" dx=5 dy=0 dh=10 dv=0
EndChar

StartChar: four
Encoding: 52 52 21
Width: 661
Flags: W
HStem: 0 21G<322 439.882> 170 88<140 355 486 573> 709 20G<420.658 577>
LayerCount: 2
Fore
SplineSet
445 634 m 1
 140 258 l 1
 372 258 l 1
 445 634 l 1
438 729 m 1
 577 729 l 1
 486 258 l 1
 590 258 l 1
 573 170 l 1
 469 170 l 1
 436 0 l 1
 322 0 l 1
 355 170 l 1
 21 170 l 1
 40 270 l 1
 438 729 l 1
EndSplineSet
Validated: 1
Position2: "sous-table 'cpsp' Chasses pour composition en capitales dans Latin lookup 1" dx=5 dy=0 dh=10 dv=0
EndChar

StartChar: five
Encoding: 53 53 22
Width: 661
Flags: W
HStem: -14 94<94.2864 326.146> 394 94<245.904 381.272> 639 90<277 574>
VStem: 434.46 125.376<187.265 343.949>
LayerCount: 2
Fore
SplineSet
189 729 m 1
 591 729 l 1
 574 639 l 1
 277 639 l 1
 244 472 l 1
 273 484 299 488 325 488 c 0
 409 488 473 465 513 419 c 1
 544.089060509 385.690292312 559.836380013 344.1617948 559.836380013 293.603350466 c 0
 559.836380013 275.859484365 557.896764104 257.003389067 554 237 c 0
 523 78 398 -14 213 -14 c 0
 150 -14 87 -3 20 19 c 1
 41 125 l 1
 96 95 158 80 229 80 c 0
 335 80 412 141 431 237 c 0
 433.319580665 249.371096881 434.460111124 261.16097183 434.460111124 272.313985211 c 0
 434.460111124 347.70861549 382.340247194 394 290 394 c 0
 236 394 180 382 117 359 c 1
 189 729 l 1
EndSplineSet
Validated: 524289
Position2: "sous-table 'cpsp' Chasses pour composition en capitales dans Latin lookup 1" dx=5 dy=0 dh=10 dv=0
EndChar

StartChar: six
Encoding: 54 54 23
Width: 662
Flags: W
HStem: -14 89<226.643 370.109> 398 88<284.984 422.747> 649 93<350.645 568.695>
VStem: 65.6334 123.55<112.764 289.19> 461.176 123.599<181.434 360.484>
LayerCount: 2
Fore
SplineSet
357 398 m 0
 276 398 214 336 194 236 c 0
 190.765721224 219.147705325 189.18310969 203.367545527 189.18310969 188.78283437 c 0
 189.18310969 117.68862569 226.788241098 75 294 75 c 0
 374 75 437 137 456 236 c 0
 459.482321229 253.411606145 461.17597469 269.671188982 461.17597469 284.652062766 c 0
 461.17597469 355.710774643 423.070715084 398 357 398 c 0
620 711 m 1
 601 614 l 1
 553 637 503 649 451 649 c 0
 324 649 242 566 200 400 c 1
 248 456 313 486 380 486 c 0
 509.684662797 486 584.774520263 416.846579915 584.774520263 300.276916253 c 0
 584.774520263 280.21832724 582.551154298 258.75577149 578 236 c 0
 564 161 529 100 473 55 c 1
 419 10 353 -14 277 -14 c 0
 137.767691567 -14 65.6334202087 70.1890465195 65.6334202087 227.991047566 c 0
 65.6334202087 268.529147993 70.3938199793 313.925231807 80 364 c 0
 103 479 147 571 218 639 c 1
 288 708 370 742 465 742 c 0
 517 742 566 732 620 711 c 1
EndSplineSet
Validated: 524289
Position2: "sous-table 'cpsp' Chasses pour composition en capitales dans Latin lookup 1" dx=5 dy=0 dh=10 dv=0
EndChar

StartChar: seven
Encoding: 55 55 24
Width: 661
Flags: W
HStem: 0 21G<121 252.742> 639 90<163 495>
LayerCount: 2
Fore
SplineSet
163 729 m 1
 651 729 l 1
 642 683 l 1
 241 0 l 1
 121 0 l 1
 495 639 l 1
 146 639 l 1
 163 729 l 1
EndSplineSet
Validated: 1
Position2: "sous-table 'cpsp' Chasses pour composition en capitales dans Latin lookup 1" dx=5 dy=0 dh=10 dv=0
EndChar

StartChar: eight
Encoding: 56 56 25
Width: 662
Flags: W
HStem: -14 89<205.042 366.265> 341 88<277.77 411.62> 654 88<312.38 469.605>
VStem: 42.3664 124.286<110.448 256.878> 126.781 121.307<457.138 587.361> 449.348 122.682<158.126 305.393> 497.56 123.687<500.047 624.15>
LayerCount: 2
Fore
SplineSet
334 341 m 0xe4
 248 341 186 290 170 208 c 0
 167.755089034 196.354524362 166.651968162 185.358687917 166.651968162 175.059446149 c 0
 166.651968162 111.953608267 208.066396444 75 282 75 c 0
 367 75 430 126 446 208 c 0
 448.244910966 219.505168702 449.348031838 230.400070285 449.348031838 240.629463 c 0
 449.348031838 303.307319568 407.933603556 341 334 341 c 0xe4
232 388 m 1
 164.36431476 405.979106203 126.781188827 452.54479321 126.781188827 516.401211082 c 0
 126.781188827 527.130524011 127.842218716 538.347981069 130 550 c 1
 154 669 261 742 412 742 c 0
 544.196005467 742 621.246204082 685.300790139 621.246204082 590.384200967 c 0xea
 621.246204082 577.600952118 619.848639125 564.12450233 617 550 c 1
 602 469 540 409 453 388 c 1
 529.488539725 370.152674064 572.029752865 318.358021544 572.029752865 247.348419393 c 0
 572.029752865 234.804796229 570.702292055 221.661587612 568 208 c 0
 540 65 431 -14 265 -14 c 0
 119.602731537 -14 42.3663643126 45.172650526 42.3663643126 153.794238022 c 0xf4
 42.3663643126 170.680006285 44.2328780772 188.76077018 48 208 c 0
 66 299 134 367 232 388 c 1
251 542 m 0
 249.049113776 532.106219865 248.088553113 522.775566029 248.088553113 514.043215191 c 0
 248.088553113 460.110244884 284.729874231 429 351 429 c 0
 427 429 481 471 495 542 c 0
 496.71488392 551.233990336 497.559700722 559.980743086 497.559700722 568.208121485 c 0
 497.559700722 622.349932025 460.974524778 654 395 654 c 0
 318 654 264 612 251 542 c 0
EndSplineSet
Validated: 524289
Position2: "sous-table 'cpsp' Chasses pour composition en capitales dans Latin lookup 1" dx=5 dy=0 dh=10 dv=0
EndChar

StartChar: nine
Encoding: 57 57 26
Width: 662
Flags: W
HStem: -14 94<104.757 325.196> 243 88<253.717 391.953> 654 88<307.742 450.062>
VStem: 91.5474 123.636<368.979 544.084> 487.252 123.614<436.48 616.391>
LayerCount: 2
Fore
SplineSet
56 18 m 1
 75 114 l 1
 122 92 173 80 225 80 c 0
 351 80 433 161 476 329 c 1
 428 274 365 243 297 243 c 0
 166.087105906 243 91.5474148403 312.551354385 91.5474148403 429.102560764 c 0
 91.5474148403 448.7666195 93.6691949204 469.768533925 98 492 c 0
 113 568 147 628 201 673 c 0
 257 719 323 742 400 742 c 0
 538.749571944 742 610.865575439 658.393730153 610.865575439 501.647657364 c 0
 610.865575439 460.695370773 605.942974552 414.750599278 596 364 c 0
 574 249 528 158 458 89 c 0
 389 21 306 -14 211 -14 c 0
 159 -14 110 -4 56 18 c 1
320 331 m 0
 401 331 463 393 482 492 c 0
 485.52878665 509.643933251 487.251984693 526.104894655 487.251984693 541.251059311 c 0
 487.251984693 611.948365271 449.708414067 654 383 654 c 0
 302 654 240 592 220 492 c 0
 216.765721224 475.147705325 215.18310969 459.367545527 215.18310969 444.78283437 c 0
 215.18310969 373.68862569 252.788241098 331 320 331 c 0
EndSplineSet
Validated: 524289
Position2: "sous-table 'cpsp' Chasses pour composition en capitales dans Latin lookup 1" dx=5 dy=0 dh=10 dv=0
EndChar

StartChar: colon
Encoding: 58 58 27
Width: 351
Flags: W
HStem: 0 130<84 166> 387 130<159 241>
VStem: 59 207
LayerCount: 2
Fore
SplineSet
84 130 m 1
 191 130 l 1
 166 0 l 1
 59 0 l 1
 84 130 l 1
159 517 m 1
 266 517 l 1
 241 387 l 1
 134 387 l 1
 159 517 l 1
EndSplineSet
Validated: 1
EndChar

StartChar: semicolon
Encoding: 59 59 28
Width: 351
Flags: W
HStem: 387 130<154 241>
VStem: -6 272
LayerCount: 2
Fore
SplineSet
154 517 m 1
 266 517 l 1
 241 387 l 1
 129 387 l 1
 154 517 l 1
79 129 m 1
 191 129 l 1
 174 43 l 1
 66 -116 l 1
 -6 -116 l 1
 62 43 l 1
 79 129 l 1
EndSplineSet
Validated: 1
EndChar

StartChar: less
Encoding: 60 60 29
Width: 871
Flags: W
LayerCount: 2
Fore
SplineSet
792 486 m 1
 253 313 l 1
 725 141 l 1
 706 46 l 1
 99 271 l 1
 116 356 l 1
 810 581 l 1
 792 486 l 1
EndSplineSet
Validated: 1
EndChar

StartChar: equal
Encoding: 61 61 30
Width: 871
Flags: W
HStem: 172 89<97 731> 367 87<135 769>
LayerCount: 2
Fore
SplineSet
135 454 m 1
 786 454 l 1
 769 367 l 1
 118 367 l 1
 135 454 l 1
97 261 m 1
 748 261 l 1
 731 172 l 1
 80 172 l 1
 97 261 l 1
EndSplineSet
Validated: 1
EndChar

StartChar: greater
Encoding: 62 62 31
Width: 871
Flags: W
LayerCount: 2
Fore
SplineSet
141 486 m 1
 159 581 l 1
 767 356 l 1
 750 271 l 1
 55 46 l 1
 74 141 l 1
 612 313 l 1
 141 486 l 1
EndSplineSet
Validated: 1
EndChar

StartChar: question
Encoding: 63 63 32
Width: 553
Flags: W
HStem: 0 130<155 244> 651 91<226.667 383.328>
VStem: 405.764 124.795<518.981 630.014>
LayerCount: 2
Fore
SplineSet
155 130 m 1
 269 130 l 1
 244 0 l 1
 130 0 l 1
 155 130 l 1
280 193 m 1
 168 193 l 1
 183 271 l 2
 190 305 199 332 211 353 c 0
 224 375 251 400 286 428 c 2
 338 471 l 2
 377 504 398 531 404 561 c 0
 405.18229519 567.266164504 405.763526956 573.308677502 405.763526956 579.092833593 c 0
 405.763526956 622.231790294 373.433310787 651 317 651 c 0
 265 651 200 629 125 586 c 1
 145 685 l 1
 216 723 283 742 352 742 c 0
 414 742 462 726 493 694 c 1
 518.186900807 669.576338611 530.558044599 638.744798714 530.558044599 601.949993534 c 0
 530.558044599 590.536065919 529.367605816 578.548310825 527 566 c 0
 517 517 488 476 416 418 c 2
 365 377 l 1
 331 347 319 334 312 319 c 1
 304 306 298 288 292 257 c 2
 280 193 l 1
EndSplineSet
Validated: 524289
Position2: "sous-table 'cpsp' Chasses pour composition en capitales dans Latin lookup 1" dx=5 dy=0 dh=10 dv=0
EndChar

StartChar: at
Encoding: 64 64 33
Width: 1040
Flags: W
HStem: -174 81<319.577 574.503> -32 20G<660.5 714.667> 41 79<416.085 544.527> 404 81<462.732 600.427> 624 80<459.978 714.532>
VStem: 48 95.8593<78.7412 315.322> 280.653 105.05<150.181 314.756> 876.347 95.9244<265.947 475.944>
LayerCount: 2
Fore
SplineSet
390 262 m 0
 387.118792642 247.085514854 385.702530432 233.147659806 385.702530432 220.283800734 c 0
 385.702530432 157.246977531 419.711208931 120 482 120 c 0
 556 120 611 175 627 262 c 0
 629.886176567 276.770433019 631.302350456 290.618511416 631.302350456 303.431684087 c 0
 631.302350456 366.089963133 597.43664318 404 536 404 c 0
 463 404 407 349 390 262 c 0
612 113 m 1
 565 64 512 41 447 41 c 0
 386 41 340 61 312 103 c 1
 290.86890423 131.87916422 280.652820222 166.21583432 280.652820222 207.058401933 c 0
 280.652820222 224.200381913 282.452438308 242.488410695 286 262 c 0
 299 329 329 382 374 423 c 0
 419 465 473 485 534 485 c 0
 599 485 642 461 671 412 c 1
 683 474 l 1
 768 474 l 1
 699 120 l 1
 784 135 849 207 871 319 c 0
 874.547561692 338.511589305 876.347179778 357.498795529 876.347179778 375.858269708 c 0
 876.347179778 419.601645116 866.13109577 459.781507049 845 495 c 0
 795 578 705 624 593 624 c 0
 515 624 438 602 369 562 c 0
 254 497 175 387 151 265 c 0
 146.234271351 240.168045459 143.859297392 215.839407695 143.859297392 192.266578411 c 0
 143.859297392 121.859286427 165.046358124 58.1945358157 207 8 c 0
 261 -58 344 -93 445 -93 c 0
 530 -93 621 -64 700 -12 c 1
 744 -72 l 1
 646 -138 534 -174 430 -174 c 0
 306 -174 199 -129 129 -48 c 1
 75 12.75 48 89.25 48 175.59375 c 0
 48 204.375 51 234.25 57 265 c 0
 80 385 148 495 250 576 c 0
 354 659 480 704 607 704 c 0
 752 704 868 645 931 542 c 0
 958.389580407 495.870180366 972.271600574 442.986580613 972.271600574 387.093800003 c 0
 972.271600574 365.441556864 970.188323523 343.337725458 966 321 c 0
 932 149 795 44 598 41 c 1
 612 113 l 1
EndSplineSet
Validated: 524289
EndChar

StartChar: A
Encoding: 65 65 34
Width: 711
Flags: W
HStem: 0 21G<-55 78.087 515.522 640> 184 89<220 471> 709 20G<358.34 500.923>
LayerCount: 2
Fore
SplineSet
412 622 m 1
 220 273 l 1
 471 273 l 1
 412 622 l 1
370 729 m 1
 497 729 l 1
 640 0 l 1
 519 0 l 1
 487 184 l 1
 169 184 l 1
 67 0 l 1
 -55 0 l 1
 370 729 l 1
EndSplineSet
Validated: 1
Position2: "sous-table 'cpsp' Chasses pour composition en capitales dans Latin lookup 1" dx=5 dy=0 dh=10 dv=0
EndChar

StartChar: B
Encoding: 66 66 35
Width: 714
Flags: W
HStem: 0 90<171 419.437> 343 89<237 464.218> 639 90<278 501.518>
VStem: 494.915 126.496<164.137 313.061> 530.577 126.182<491.617 614.095>
LayerCount: 2
Fore
SplineSet
220 343 m 1xf0
 171 90 l 1
 321 90 l 2
 421 90 474 130 491 217 c 0
 493.601930326 230.315761081 494.915444465 242.507086217 494.915444465 253.606244201 c 0
 494.915444465 315.02466435 454.694527493 343 370 343 c 2
 220 343 l 1xf0
278 639 m 1
 237 432 l 1
 375 432 l 2
 464 432 514 465 528 536 c 0
 529.715252462 545.104032296 530.577472619 553.598755803 530.577472619 561.486467486 c 0xe8
 530.577472619 613.380189833 493.257117763 639 416 639 c 2
 278 639 l 1
180 729 m 1
 440 729 l 2
 581.726578113 729 656.759955046 677.214690848 656.759955046 584.764306882 c 0xe8
 656.759955046 572.844278245 655.512595509 560.248230868 653 547 c 0
 636 459 582 406 500 393 c 1
 578.53218773 375.266925351 621.411094678 324.019766768 621.411094678 249.494827986 c 0xf0
 621.411094678 235.765262378 619.955789604 221.24565164 617 206 c 0
 591 74 481 0 309 0 c 2
 39 0 l 1
 180 729 l 1
EndSplineSet
Validated: 524289
Position2: "sous-table 'cpsp' Chasses pour composition en capitales dans Latin lookup 1" dx=5 dy=0 dh=10 dv=0
EndChar

StartChar: C
Encoding: 67 67 36
Width: 726
Flags: W
HStem: -14 92<277.017 504.091> 561 21G<686.5 719.818> 651 91<381.983 613.285>
VStem: 55.2153 129.375<171.62 412.879>
LayerCount: 2
Fore
SplineSet
737 671 m 1
 716 561 l 1
 657 620 585 651 497 651 c 0
 337 651 230 549 194 364 c 0
 187.705740869 331.654501686 184.590679726 301.876817132 184.590679726 274.757806869 c 0
 184.590679726 146.769703006 253.974485029 78 386 78 c 0
 474 78 557 108 639 167 c 1
 618 58 l 1
 536 10 453 -14 362 -14 c 0
 248 -14 164 21 111 88 c 0
 73.693957091 135.160469338 55.2153089225 194.707382584 55.2153089225 266.640739738 c 0
 55.2153089225 296.901762687 58.4855272453 329.354849441 65 364 c 0
 88 481 139 574 218 641 c 0
 297 708 395 742 509 742 c 0
 601 742 675 720 737 671 c 1
EndSplineSet
Validated: 524289
Position2: "sous-table 'cpsp' Chasses pour composition en capitales dans Latin lookup 1" dx=5 dy=0 dh=10 dv=0
EndChar

StartChar: D
Encoding: 68 68 37
Width: 800
Flags: W
HStem: 0 90<171 422.871> 639 90<278 526.377>
VStem: 626.583 130.657<320.96 547.816>
LayerCount: 2
Fore
SplineSet
278 639 m 1
 171 90 l 1
 283 90 l 2
 478 90 581 175 617 365 c 0
 623.354587501 397.631665543 626.582540287 427.136696372 626.582540287 453.626542365 c 0
 626.582540287 581.375551636 551.509606416 639 390 639 c 2
 278 639 l 1
180 729 m 1
 392 729 l 2
 640.365370213 729 757.2391639 647.805747828 757.2391639 470.190386362 c 0
 757.2391639 438.27049392 753.464494401 403.236491729 746 365 c 0
 698 114 542 0 251 0 c 2
 39 0 l 1
 180 729 l 1
EndSplineSet
Validated: 524289
Position2: "sous-table 'cpsp' Chasses pour composition en capitales dans Latin lookup 1" dx=5 dy=0 dh=10 dv=0
EndChar

StartChar: E
Encoding: 69 69 38
Width: 656
Flags: W
HStem: 0 90<171 527> 343 90<238 569> 639 90<278 642>
LayerCount: 2
Fore
SplineSet
180 729 m 1
 659 729 l 1
 642 639 l 1
 278 639 l 1
 238 433 l 1
 587 433 l 1
 569 343 l 1
 220 343 l 1
 171 90 l 1
 544 90 l 1
 527 0 l 1
 39 0 l 1
 180 729 l 1
EndSplineSet
Validated: 1
Position2: "sous-table 'cpsp' Chasses pour composition en capitales dans Latin lookup 1" dx=5 dy=0 dh=10 dv=0
EndChar

StartChar: F
Encoding: 70 70 39
Width: 598
Flags: W
HStem: 0 21G<39 157.837> 344 90<238 510> 639 90<278 599>
LayerCount: 2
Fore
SplineSet
180 729 m 1
 616 729 l 1
 599 639 l 1
 278 639 l 1
 238 434 l 1
 528 434 l 1
 510 344 l 1
 220 344 l 1
 154 0 l 1
 39 0 l 1
 180 729 l 1
EndSplineSet
Validated: 1
Position2: "sous-table 'cpsp' Chasses pour composition en capitales dans Latin lookup 1" dx=5 dy=0 dh=10 dv=0
EndChar

StartChar: G
Encoding: 71 71 40
Width: 806
Flags: W
HStem: -14 92<279.281 528.043> 297 88<454 598> 560 21G<713 748.964> 651 91<383.791 632.725>
VStem: 54.7751 129.441<169.74 409.717>
LayerCount: 2
Fore
SplineSet
562 111 m 1
 598 297 l 1
 437 297 l 1
 454 385 l 1
 732 385 l 1
 671 70 l 1
 580 14 479 -14 371 -14 c 0
 252 -14 165 20 111 87 c 0
 73.7481884074 134.091912768 54.7750547345 193.040265268 54.7750547345 265.233969005 c 0
 54.7750547345 295.753828301 58.1658805024 328.640859991 65 364 c 0
 88 483 140 575 219 642 c 0
 299 709 399 742 518 742 c 0
 617 742 701 718 767 671 c 1
 745 560 l 1
 681 619 603 651 508 651 c 0
 336 651 231 554 194 364 c 0
 187.475473688 330.495675696 184.215952181 299.914308073 184.215952181 272.266863728 c 0
 184.215952181 143.128145848 255.330230423 78 397 78 c 0
 462 78 517 89 562 111 c 1
EndSplineSet
Validated: 524289
Position2: "sous-table 'cpsp' Chasses pour composition en capitales dans Latin lookup 1" dx=5 dy=0 dh=10 dv=0
EndChar

StartChar: H
Encoding: 72 72 41
Width: 782
Flags: W
HStem: 0 21G<39 158.848 501 620.868> 343 90<239 567> 709 20G<176.132 296 638.149 758>
LayerCount: 2
Fore
SplineSet
180 729 m 1
 296 729 l 1
 239 433 l 1
 585 433 l 1
 642 729 l 1
 758 729 l 1
 617 0 l 1
 501 0 l 1
 567 343 l 1
 221 343 l 1
 155 0 l 1
 39 0 l 1
 180 729 l 1
EndSplineSet
Validated: 1
Position2: "sous-table 'cpsp' Chasses pour composition en capitales dans Latin lookup 1" dx=5 dy=0 dh=10 dv=0
EndChar

StartChar: I
Encoding: 73 73 42
Width: 307
Flags: W
HStem: 0 21G<39 155.868> 709 20G<176.132 293>
VStem: 39 254
LayerCount: 2
Fore
SplineSet
180 729 m 1
 293 729 l 1
 152 0 l 1
 39 0 l 1
 180 729 l 1
EndSplineSet
Validated: 1
Position2: "sous-table 'cpsp' Chasses pour composition en capitales dans Latin lookup 1" dx=5 dy=0 dh=10 dv=0
EndChar

StartChar: J
Encoding: 74 74 43
Width: 307
Flags: W
HStem: -200 92<-138 -28.7688> 709 20G<163.119 283>
LayerCount: 2
Fore
SplineSet
167 729 m 1
 283 729 l 1
 152 54 l 2
 117 -125 39 -200 -112 -200 c 2
 -156 -200 l 1
 -138 -108 l 1
 -100 -108 l 2
 -23 -108 12 -68 36 54 c 2
 167 729 l 1
EndSplineSet
Validated: 1
Position2: "sous-table 'cpsp' Chasses pour composition en capitales dans Latin lookup 1" dx=5 dy=0 dh=10 dv=0
EndChar

StartChar: K
Encoding: 75 75 44
Width: 682
Flags: W
HStem: 0 21G<39 155.884 478.058 641> 709 20G<176.132 293 587.983 756>
LayerCount: 2
Fore
SplineSet
180 729 m 1
 293 729 l 1
 234 426 l 1
 613 729 l 1
 756 729 l 1
 326 389 l 1
 641 0 l 1
 494 0 l 1
 219 345 l 1
 152 0 l 1
 39 0 l 1
 180 729 l 1
EndSplineSet
Validated: 1
Position2: "sous-table 'cpsp' Chasses pour composition en capitales dans Latin lookup 1" dx=5 dy=0 dh=10 dv=0
EndChar

StartChar: L
Encoding: 76 76 45
Width: 580
Flags: W
HStem: 0 90<172 512> 709 20G<176.132 296>
LayerCount: 2
Fore
SplineSet
180 729 m 1
 296 729 l 1
 172 90 l 1
 529 90 l 1
 512 0 l 1
 39 0 l 1
 180 729 l 1
EndSplineSet
Validated: 1
Position2: "sous-table 'cpsp' Chasses pour composition en capitales dans Latin lookup 1" dx=5 dy=0 dh=10 dv=0
EndChar

StartChar: M
Encoding: 77 77 46
Width: 898
Flags: W
HStem: 0 21G<39 153.867 622 736.868> 709 20G<176.132 348.558 698.63 874>
LayerCount: 2
Fore
SplineSet
180 729 m 1
 345 729 l 1
 432 240 l 1
 710 729 l 1
 874 729 l 1
 733 0 l 1
 622 0 l 1
 744 631 l 1
 470 138 l 1
 355 138 l 1
 272 631 l 1
 150 0 l 1
 39 0 l 1
 180 729 l 1
EndSplineSet
Validated: 1
Position2: "sous-table 'cpsp' Chasses pour composition en capitales dans Latin lookup 1" dx=5 dy=0 dh=10 dv=0
EndChar

StartChar: N
Encoding: 78 78 47
Width: 778
Flags: W
HStem: 0 21G<39 152.86 457.378 616.868> 709 20G<176.132 335.556 639.106 754>
LayerCount: 2
Fore
SplineSet
180 729 m 1
 329 729 l 1
 526 128 l 1
 643 729 l 1
 754 729 l 1
 613 0 l 1
 464 0 l 1
 265 601 l 1
 149 0 l 1
 39 0 l 1
 180 729 l 1
EndSplineSet
Validated: 1
Position2: "sous-table 'cpsp' Chasses pour composition en capitales dans Latin lookup 1" dx=5 dy=0 dh=10 dv=0
EndChar

StartChar: O
Encoding: 79 79 48
Width: 818
Flags: W
HStem: -14 91<268.578 459.206> 652 90<374.173 562.724>
VStem: 54.945 129.681<166.409 411.65> 648.767 128.787<316.608 559.479>
LayerCount: 2
Fore
SplineSet
473 652 m 0
 405 652 346 626 295 575 c 0
 245 524 212 453 194 364 c 0
 187.767070851 331.735425584 184.625962923 301.75611033 184.625962923 274.209914362 c 0
 184.625962923 226.625249656 193.999286733 186.301212554 213 154 c 0
 244 102 293 77 361 77 c 0
 428 77 487 102 537 154 c 1
 588 205 622 276 639 364 c 0
 645.527340189 396.274070934 648.767167265 426.181132426 648.767167265 453.625812404 c 0
 648.767167265 501.863450999 638.758469675 542.494130535 619 575 c 0
 589 626 540 652 473 652 c 0
491 742 m 0
 597 742 676 708 726 639 c 0
 759.927019616 591.917605431 777.554393067 533.329578276 777.554393067 463.567850355 c 0
 777.554393067 432.574348173 774.075072425 399.375362126 767 364 c 0
 745 249 695 158 619 89 c 0
 543 21 450 -14 344 -14 c 0
 236 -14 158 21 108 89 c 0
 72.5177557885 137.005389227 54.9450145407 195.659672109 54.9450145407 265.636372076 c 0
 54.9450145407 296.239885611 58.3060661305 329.008982046 65 364 c 0
 88 479 137 571 215 639 c 1
 291 708 383 742 491 742 c 0
EndSplineSet
Validated: 524289
Position2: "sous-table 'cpsp' Chasses pour composition en capitales dans Latin lookup 1" dx=5 dy=0 dh=10 dv=0
EndChar

StartChar: P
Encoding: 80 80 49
Width: 627
Flags: W
HStem: 0 21G<39 157.819> 288 90<227 426.506> 639 90<278 467.918>
VStem: 502.91 129.868<457.018 607.838>
LayerCount: 2
Fore
SplineSet
278 639 m 1
 227 378 l 1
 342 378 l 2
 426 378 483 425 499 509 c 0
 501.620015382 521.945958356 502.909889194 533.989320647 502.909889194 545.100801232 c 0
 502.909889194 606.086290482 464.054041644 639 393 639 c 2
 278 639 l 1
180 729 m 1
 410 729 l 2
 557.449918828 729 632.777700227 672.491933561 632.777700227 564.604831038 c 0
 632.777700227 547.373556568 630.856153642 528.831647303 627 509 c 0
 599 364 495 288 324 288 c 2
 209 288 l 1
 154 0 l 1
 39 0 l 1
 180 729 l 1
EndSplineSet
Validated: 524289
Position2: "sous-table 'cpsp' Chasses pour composition en capitales dans Latin lookup 1" dx=5 dy=0 dh=10 dv=0
EndChar

StartChar: Q
Encoding: 81 81 50
Width: 818
Flags: W
HStem: -18 91<270.271 386.498> 651 91<371.928 562.724>
VStem: 54.277 130.349<163.636 409.878> 648.325 128.787<315.002 559.231>
LayerCount: 2
Fore
SplineSet
473 651 m 0
 405 651 346 626 295 574 c 0
 245 523 211 451 194 362 c 0
 187.767070851 329.368782692 184.625962923 299.157251558 184.625962923 271.414693303 c 0
 184.625962923 223.490822647 193.999286733 182.934569663 213 150 c 1
 244 99 293 73 361 73 c 0
 428 73 487 99 537 150 c 0
 588 202 622 273 639 362 c 0
 645.184778801 394.379136076 648.325321468 424.508184574 648.325321468 452.19453243 c 0
 648.325321468 500.609194601 638.721873951 541.554336403 619 574 c 1
 589 626 540 651 473 651 c 0
499 14 m 1
 601 -129 l 1
 465 -129 l 1
 379 -16 l 1
 361 -17 353 -18 343 -18 c 0
 235 -18 157 17 107 85 c 0
 71.8513513514 132.554054054 54.277027027 191.032688093 54.277027027 260.763254398 c 0
 54.277027027 292.210372535 57.8513513514 325.945945946 65 362 c 0
 87 478 137 570 215 638 c 1
 291 708 383 742 491 742 c 0
 597 742 676 708 726 638 c 0
 759.963693162 590.86671153 777.112044441 532.202902911 777.112044441 462.008574143 c 0
 777.112044441 430.932346344 773.750994907 397.596154963 767 362 c 0
 734 195 640 70 499 14 c 1
EndSplineSet
Validated: 524289
Position2: "sous-table 'cpsp' Chasses pour composition en capitales dans Latin lookup 1" dx=5 dy=0 dh=10 dv=0
EndChar

StartChar: R
Encoding: 82 82 51
Width: 722
Flags: W
HStem: 0 21G<39 158.828 499.333 629> 303 90<231 393.283> 639 90<279 478.246>
VStem: 508.572 131.244<466.373 608.793>
LayerCount: 2
Fore
SplineSet
474 342 m 1
 514 327 544 284 569 204 c 1
 629 0 l 1
 506 0 l 1
 444 186 l 2
 429 233 414 264 395 280 c 0
 377 295 349 303 312 303 c 2
 213 303 l 1
 155 0 l 1
 39 0 l 1
 180 729 l 1
 413 729 l 2
 564.637350287 729 639.816466515 677.038093358 639.816466515 571.835162243 c 0
 639.816466515 554.932847907 637.875876091 536.656228746 634 517 c 0
 616 426 559 365 474 342 c 1
279 639 m 1
 231 393 l 1
 348 393 l 2
 435 393 489 436 505 517 c 0
 507.386854967 529.083453271 508.571982832 540.276738318 508.571982832 550.576535293 c 0
 508.571982832 609.320209277 470.021476116 639 396 639 c 2
 279 639 l 1
EndSplineSet
Validated: 524289
Position2: "sous-table 'cpsp' Chasses pour composition en capitales dans Latin lookup 1" dx=5 dy=0 dh=10 dv=0
EndChar

StartChar: S
Encoding: 83 83 52
Width: 660
Flags: W
HStem: -14 91<136.672 371.253> 652 90<305.365 535.059>
VStem: 104.165 125.368<466.893 584.471> 453.837 129.149<153.576 277.276>
LayerCount: 2
Fore
SplineSet
627 704 m 1
 607 601 l 1
 537 635 471 652 409 652 c 0
 309 652 246 611 232 540 c 1
 230.392275359 531.084436084 229.532213927 522.916535376 229.532213927 515.408877035 c 0
 229.532213927 471.549379795 258.884894624 450.223021075 340 434 c 2
 398 422 l 1
 523.832757507 398.031855713 582.985736198 343.288428896 582.985736198 252.751852799 c 0
 582.985736198 237.522037457 581.311881478 221.279381627 578 204 c 0
 550 61 437 -14 247 -14 c 0
 177 -14 98 2 19 35 c 1
 40 143 l 1
 114 100 187 77 264 77 c 0
 367 77 436 119 451 197 c 0
 452.877324425 206.819850838 453.837067383 215.930661451 453.837067383 224.389651009 c 0
 453.837067383 274.507038974 420.147548168 301.743781852 344 318 c 2
 287 330 l 1
 160.534243948 354.780452199 104.16456147 402.196094824 104.16456147 485.97331897 c 0
 104.16456147 500.238676157 105.798963738 515.558313743 109 532 c 0
 134 663 249 742 416 742 c 0
 486 742 555 730 627 704 c 1
EndSplineSet
Validated: 524289
Position2: "sous-table 'cpsp' Chasses pour composition en capitales dans Latin lookup 1" dx=5 dy=0 dh=10 dv=0
EndChar

StartChar: T
Encoding: 84 84 53
Width: 636
Flags: W
HStem: 0 21G<196 316.881> 639 90<75 320 437 700>
LayerCount: 2
Fore
SplineSet
75 729 m 1
 717 729 l 1
 700 639 l 1
 437 639 l 1
 313 0 l 1
 196 0 l 1
 320 639 l 1
 58 639 l 1
 75 729 l 1
EndSplineSet
Validated: 1
Position2: "sous-table 'cpsp' Chasses pour composition en capitales dans Latin lookup 1" dx=5 dy=0 dh=10 dv=0
EndChar

StartChar: U
Encoding: 85 85 54
Width: 763
Flags: W
HStem: -14 91<239.02 431.637> 709 20G<165.115 289 626.1 750>
VStem: 72.2005 121.532<122.219 341.414>
LayerCount: 2
Fore
SplineSet
169 729 m 1
 289 729 l 1
 203 288 l 2
 196.868976269 256.287808286 193.732593778 228.553572847 193.732593778 204.532710018 c 0
 193.732593778 114.933881819 237.369753371 77 332 77 c 0
 453 77 515 138 544 288 c 2
 630 729 l 1
 750 729 l 1
 662 276 l 2
 625 84 507 -14 315 -14 c 0
 154.32430259 -14 72.2004938603 55.3521179336 72.2004938603 191.675073768 c 0
 72.2004938603 217.403286742 75.1256586605 245.516931428 81 276 c 2
 169 729 l 1
EndSplineSet
Validated: 524289
Position2: "sous-table 'cpsp' Chasses pour composition en capitales dans Latin lookup 1" dx=5 dy=0 dh=10 dv=0
EndChar

StartChar: V
Encoding: 86 86 55
Width: 711
Flags: W
HStem: 0 21G<225.077 367.66> 709 20G<86 210.609 648.609 781>
LayerCount: 2
Fore
SplineSet
229 0 m 1
 86 729 l 1
 207 729 l 1
 316 125 l 1
 660 729 l 1
 781 729 l 1
 356 0 l 1
 229 0 l 1
EndSplineSet
Validated: 1
Position2: "sous-table 'cpsp' Chasses pour composition en capitales dans Latin lookup 1" dx=5 dy=0 dh=10 dv=0
EndChar

StartChar: W
Encoding: 87 87 56
Width: 1028
Flags: W
HStem: 0 21G<158.683 309.718 601.071 752.026> 709 20G<112 232.023 520.188 657.023 945.188 1072>
LayerCount: 2
Fore
SplineSet
112 729 m 1
 231 729 l 1
 262 123 l 1
 529 729 l 1
 656 729 l 1
 687 123 l 1
 954 729 l 1
 1072 729 l 1
 743 0 l 1
 602 0 l 1
 573 624 l 1
 301 0 l 1
 160 0 l 1
 112 729 l 1
EndSplineSet
Validated: 1
Position2: "sous-table 'cpsp' Chasses pour composition en capitales dans Latin lookup 1" dx=5 dy=0 dh=10 dv=0
EndChar

StartChar: X
Encoding: 88 88 57
Width: 712
Flags: W
HStem: 0 21G<-32 109.115 483.82 617> 709 20G<142 275.323 600.857 742>
LayerCount: 2
Fore
SplineSet
142 729 m 1
 266 729 l 1
 390 463 l 1
 618 729 l 1
 742 729 l 1
 440 379 l 1
 617 0 l 1
 493 0 l 1
 353 305 l 1
 92 0 l 1
 -32 0 l 1
 303 389 l 1
 142 729 l 1
EndSplineSet
Validated: 1
Position2: "sous-table 'cpsp' Chasses pour composition en capitales dans Latin lookup 1" dx=5 dy=0 dh=10 dv=0
EndChar

StartChar: Y
Encoding: 89 89 58
Width: 636
Flags: W
HStem: 0 21G<195 316.884> 709 20G<76 208.492 574.847 716>
LayerCount: 2
Fore
SplineSet
76 729 m 1
 199 729 l 1
 339 434 l 1
 592 729 l 1
 716 729 l 1
 380 345 l 1
 313 0 l 1
 195 0 l 1
 262 345 l 1
 76 729 l 1
EndSplineSet
Validated: 1
Position2: "sous-table 'cpsp' Chasses pour composition en capitales dans Latin lookup 1" dx=5 dy=0 dh=10 dv=0
EndChar

StartChar: Z
Encoding: 90 90 59
Width: 713
Flags: W
HStem: 0 89<147 603> 639 90<138 573>
LayerCount: 2
Fore
SplineSet
138 729 m 1
 734 729 l 1
 719 649 l 1
 147 89 l 1
 620 89 l 1
 603 0 l 1
 -16 0 l 1
 -1 80 l 1
 573 639 l 1
 121 639 l 1
 138 729 l 1
EndSplineSet
Validated: 1
Position2: "sous-table 'cpsp' Chasses pour composition en capitales dans Latin lookup 1" dx=5 dy=0 dh=10 dv=0
EndChar

StartChar: bracketleft
Encoding: 91 91 60
Width: 407
Flags: W
HStem: -132 78<119 217> 683 77<262 375>
LayerCount: 2
Fore
SplineSet
174 760 m 1
 390 760 l 1
 375 683 l 1
 262 683 l 1
 119 -54 l 1
 232 -54 l 1
 217 -132 l 1
 1 -132 l 1
 174 760 l 1
EndSplineSet
Validated: 1
EndChar

StartChar: backslash
Encoding: 92 92 61
Width: 351
Flags: W
HStem: 709 20G<78 178.263>
VStem: 78 191
LayerCount: 2
Fore
SplineSet
176 729 m 1
 269 -93 l 1
 170 -93 l 1
 78 729 l 1
 176 729 l 1
EndSplineSet
Validated: 1
EndChar

StartChar: bracketright
Encoding: 93 93 62
Width: 405
Flags: W
HStem: -132 78<27 140> 683 77<185 283>
LayerCount: 2
Fore
SplineSet
400 760 m 1
 227 -132 l 1
 12 -132 l 1
 27 -54 l 1
 140 -54 l 1
 283 683 l 1
 170 683 l 1
 185 760 l 1
 400 760 l 1
EndSplineSet
Validated: 1
EndChar

StartChar: asciicircum
Encoding: 94 94 63
Width: 871
Flags: W
HStem: 457 272
LayerCount: 2
Fore
SplineSet
567 729 m 1
 786 457 l 1
 673 457 l 1
 497 641 l 1
 249 457 l 1
 135 457 l 1
 461 729 l 1
 567 729 l 1
EndSplineSet
Validated: 1
EndChar

StartChar: underscore
Encoding: 95 95 64
Width: 521
Flags: W
HStem: -236 70<-106 422>
LayerCount: 2
Fore
SplineSet
435 -166 m 1
 422 -236 l 1
 -119 -236 l 1
 -106 -166 l 1
 435 -166 l 1
EndSplineSet
Validated: 1
EndChar

StartChar: grave
Encoding: 96 96 65
Width: 522
Flags: W
HStem: 617 183
VStem: 179 208
LayerCount: 2
Fore
SplineSet
286 800 m 1
 387 617 l 1
 300 617 l 1
 179 800 l 1
 286 800 l 1
EndSplineSet
Validated: 1
EndChar

StartChar: a
Encoding: 97 97 66
Width: 636
Flags: W
HStem: -14 86<164.444 296.38> 269 80<201.809 423> 474 86<199.459 404.049>
VStem: 25.9586 115.907<92.7195 216.287> 441.883 105.517<349.622 439.578>
LayerCount: 2
Fore
SplineSet
344 269 m 2
 274 269 224 262 195 246 c 0
 168 230 151 205 144 168 c 0
 142.569219382 160.325813047 141.865932372 153.023832126 141.865932372 146.127066237 c 0
 141.865932372 100.00073144 173.324541779 72 229 72 c 0
 323 72 399 145 420 256 c 1
 423 269 l 1
 344 269 l 2
539 312 m 2
 479 2 l 1
 371 2 l 1
 386 81 l 1
 335 16 274 -14 189 -14 c 0
 86.2481980648 -14 25.958636639 38.3195463418 25.958636639 122.490233529 c 0
 25.958636639 134.981024788 27.2863376325 148.173244128 30 162 c 0
 54 285 152 349 322 349 c 2
 438 349 l 1
 439 353 l 1
 440.929927006 362.906958631 441.883176338 372.267639919 441.883176338 381.058615522 c 0
 441.883176338 440.593868645 398.163114363 474 318 474 c 0
 252 474 188 459 125 431 c 1
 143 520 l 1
 216 547 281 560 343 560 c 0
 480.030744052 560 547.400518174 504.133281541 547.400518174 389.53584986 c 0
 547.400518174 366.145442694 544.59385119 340.308277232 539 312 c 2
EndSplineSet
Validated: 524289
Substitution2: "sous-table Substitution simple lookups10" ordfeminine
Substitution2: "sous-table 'aalt' Activer toutes les variantes dans Latin lookup 0" ordfeminine
EndChar

StartChar: b
Encoding: 98 98 67
Width: 660
Flags: W
HStem: -14 86<227.17 371.984> 479 86<315.575 443.054> 740 20G<175.121 283>
VStem: 484.545 117.164<225.325 435.056>
LayerCount: 2
Fore
SplineSet
477 276 m 0
 482.066244055 301.53387004 484.545271765 325.055460699 484.545271765 346.331750299 c 0
 484.545271765 430.04591007 446.166820925 479 376 479 c 0
 285 479 214 402 189 276 c 0
 184.151157459 251.367879894 181.785105452 228.616661707 181.785105452 207.943341699 c 0
 181.785105452 122.027718905 222.649786848 72 296 72 c 0
 384 72 452 149 477 276 c 0
227 470 m 1
 275 534 337 565 414 565 c 0
 485 565 537 538 570 485 c 0
 591.04499238 450.144231371 601.709710441 407.935768432 601.709710441 358.659054926 c 0
 601.709710441 333.007975458 598.819847798 305.441582979 593 276 c 0
 576 189 542 120 488 66 c 0
 435 13 373 -14 302 -14 c 0
 225 -14 175 17 151 81 c 1
 136 2 l 1
 32 2 l 1
 179 760 l 1
 283 760 l 1
 227 470 l 1
EndSplineSet
Validated: 524289
EndChar

StartChar: c
Encoding: 99 99 68
Width: 571
Flags: W
HStem: -14 87<214.034 405.202> 474 86<282.986 488.395>
VStem: 38.8452 119.819<129.251 324.322>
LayerCount: 2
Fore
SplineSet
545 524 m 1
 528 434 l 1
 479 460 430 474 375 474 c 0
 268 474 189 400 165 273 c 1
 160.746490069 251.562309948 158.664061746 231.629903144 158.664061746 213.311133603 c 0
 158.664061746 123.961355062 208.205022505 73 297 73 c 0
 352 73 406 86 465 113 c 1
 448 24 l 1
 390 -2 334 -14 270 -14 c 0
 185 -14 122 13 81 64 c 1
 53.122461732 100.240799748 38.845173412 144.738894108 38.845173412 198.171321451 c 0
 38.845173412 221.406248061 41.5448922206 246.33058419 47 273 c 1
 64 363 102 432 162 483 c 0
 223 534 299 560 387 560 c 0
 446 560 499 549 545 524 c 1
EndSplineSet
Validated: 524289
EndChar

StartChar: d
Encoding: 100 100 69
Width: 661
Flags: W
HStem: -14 86<198.127 325.129> 479 86<269.355 414.577> 740 20G<541.138 650>
VStem: 38.5556 117.899<116.592 326.294>
LayerCount: 2
Fore
SplineSet
489 470 m 1
 545 760 l 1
 650 760 l 1
 503 2 l 1
 398 2 l 1
 413 81 l 1
 365 17 304 -14 227 -14 c 0
 157 -14 105 13 71 66 c 1
 49.6666666667 102 38.5555555556 144.666666667 38.5555555556 194.888888889 c 0
 38.5555555556 220 41.3333333333 247 47 276 c 0
 64 362 99 432 153 485 c 0
 207 538 269 565 339 565 c 0
 416 565 465 534 489 470 c 1
164 276 m 0
 158.933755945 250.263480198 156.454728235 226.580306703 156.454728235 205.17517899 c 0
 156.454728235 120.95408993 194.833179075 72 265 72 c 0
 356 72 426 149 451 276 c 0
 455.911610732 300.754518091 458.314333786 323.617720854 458.314333786 344.377279042 c 0
 458.314333786 429.283455168 418.121736935 479 345 479 c 0
 257 479 189 402 164 276 c 0
EndSplineSet
Validated: 524289
EndChar

StartChar: e
Encoding: 101 101 70
Width: 639
Flags: W
HStem: -14 82<212.874 437.547> 249 76<174 477.806> 474 86<273.101 439.066>
VStem: 38.8199 114.654<125.182 248.154> 478.408 107.272<325.615 434.606>
LayerCount: 2
Fore
SplineSet
578 296 m 2
 569 249 l 1
 156 249 l 1
 154.313822902 235.622995026 153.474285559 222.966265664 153.474285559 211.036914325 c 0
 153.474285559 116.844393677 205.814945941 68 307 68 c 0
 379 68 447 84 521 122 c 1
 503 30 l 1
 431 1 358 -14 286 -14 c 0
 196 -14 128 13 87 68 c 1
 54.6318055471 103.964660503 38.8198581997 147.690061837 38.8198581997 201.409103275 c 0
 38.8198581997 222.373154471 41.2279845711 244.859216065 46 269 c 0
 63 358 102 428 162 481 c 0
 222 534 295 560 381 560 c 0
 459 560 515 536 551 489 c 1
 574.12 457.04 585.68 416.7568 585.68 368.779264 c 0
 585.68 346.2016 583.12 321.92 578 296 c 2
475 325 m 1
 477.285714286 338 478.408163265 350.326530612 478.408163265 361.906705539 c 0
 478.408163265 431.387755102 438 474 366 474 c 0
 271 474 201 420 174 325 c 1
 475 325 l 1
EndSplineSet
Validated: 524289
EndChar

StartChar: f
Encoding: 102 102 71
Width: 366
Flags: W
HStem: 0 21G<45 156.881> 469 78<67 136 259 390> 676 84<296.682 454>
LayerCount: 2
Fore
SplineSet
470 760 m 1
 454 676 l 1
 360 676 l 2
 304 676 279 653 267 590 c 2
 259 547 l 1
 405 547 l 1
 390 469 l 1
 244 469 l 1
 153 0 l 1
 45 0 l 1
 136 469 l 1
 52 469 l 1
 67 547 l 1
 151 547 l 1
 157 580 l 1
 181 703 249 760 377 760 c 2
 470 760 l 1
EndSplineSet
Validated: 1
EndChar

StartChar: g
Encoding: 103 103 72
Width: 660
Flags: W
HStem: -208 85<87.2412 300.849> -3 86<199.028 325.237> 475 85<267.011 412.726> 526 20G<496 608>
VStem: 39.2903 117.753<125.921 330.045>
LayerCount: 2
Fore
SplineSet
448 279 m 0xe8
 452.657509503 302.869736203 454.942413328 324.856452027 454.942413328 344.792052253 c 0
 454.942413328 427.583973056 415.534339364 475 343 475 c 0
 255 475 188 402 164 279 c 0
 159.327495995 255.053416974 157.042899111 233.001998329 157.042899111 213.015468027 c 0
 157.042899111 130.342540633 196.132514685 83 267 83 c 0
 357 83 424 156 448 279 c 0xe8
515 70 m 2
 479 -118 378 -208 201 -208 c 0
 135 -208 79 -198 28 -176 c 1
 46 -83 l 1
 97 -109 148 -123 204 -123 c 0
 314 -123 381 -65 404 54 c 1
 411 92 l 1
 364 29 303 -3 228 -3 c 0
 157 -3 104 23 71 74 c 0
 49.95500762 107.540456606 39.2902895589 148.433607521 39.2902895589 196.963896487 c 0
 39.2902895589 222.226423354 42.1801522019 249.558417021 48 279 c 0
 64 364 98 431 150 483 c 1
 203 534 266 560 337 560 c 0xe8
 412 560 461 529 484 466 c 1
 500 546 l 1
 608 546 l 1xd8
 515 70 l 2
EndSplineSet
Validated: 524289
EndChar

StartChar: h
Encoding: 104 104 73
Width: 659
Flags: W
HStem: 0 21G<32 140.871 398 511.867> 475 89<320.981 441.909> 740 20G<175.132 284>
VStem: 467.166 112.905<262.57 451.016>
LayerCount: 2
Fore
SplineSet
572 331 m 2
 508 0 l 1
 398 0 l 1
 461 328 l 2
 465.125040717 348.418951547 467.165626221 366.668368078 467.165626221 382.774571417 c 0
 467.165626221 444.75828013 436.943601384 475 379 475 c 0
 286 475 217 412 197 310 c 2
 137 0 l 1
 32 0 l 1
 179 760 l 1
 284 760 l 1
 227 467 l 1
 281 531 343 564 416 564 c 0
 524.276294863 564 580.070210807 510.171919057 580.070210807 406.379217035 c 0
 580.070210807 383.637882366 577.391751167 358.497930954 572 331 c 2
EndSplineSet
Validated: 524289
EndChar

StartChar: i
Encoding: 105 105 74
Width: 290
Flags: W
HStem: 0 21G<32 139.862> 529 20G<134.138 242> 639 121<179 260>
VStem: 32 251
LayerCount: 2
Fore
SplineSet
138 549 m 1
 242 549 l 1
 136 0 l 1
 32 0 l 1
 138 549 l 1
179 760 m 1
 283 760 l 1
 260 639 l 1
 156 639 l 1
 179 760 l 1
EndSplineSet
Validated: 1
EndChar

StartChar: j
Encoding: 106 106 75
Width: 289
Flags: W
HStem: -208 85<-106 -16.5652> 529 20G<127.115 244> 639 121<172 262>
LayerCount: 2
Fore
SplineSet
131 549 m 1
 244 549 l 1
 136 -7 l 2
 109 -149 35 -208 -83 -208 c 2
 -123 -208 l 1
 -106 -123 l 1
 -75 -123 l 2
 -46 -123 -26 -115 -14 -100 c 1
 2 -85 14 -53 23 -7 c 2
 131 549 l 1
172 760 m 1
 285 760 l 1
 262 639 l 1
 149 639 l 1
 172 760 l 1
EndSplineSet
Validated: 1
EndChar

StartChar: k
Encoding: 107 107 76
Width: 602
Flags: W
HStem: 0 21G<32 139.817 387.359 536> 529 20G<473.879 630> 740 20G<175.132 283>
LayerCount: 2
Fore
SplineSet
179 760 m 1
 283 760 l 1
 197 317 l 1
 500 549 l 1
 630 549 l 1
 291 292 l 1
 536 0 l 1
 404 0 l 1
 186 262 l 1
 136 0 l 1
 32 0 l 1
 179 760 l 1
EndSplineSet
Validated: 1
EndChar

StartChar: l
Encoding: 108 108 77
Width: 290
Flags: W
HStem: 0 21G<32 139.868> 740 20G<175.132 283>
VStem: 32 251
LayerCount: 2
Fore
SplineSet
179 760 m 1
 283 760 l 1
 136 0 l 1
 32 0 l 1
 179 760 l 1
EndSplineSet
Validated: 1
EndChar

StartChar: m
Encoding: 109 109 78
Width: 1013
Flags: W
HStem: 0 21G<32 142.831 390 505.831 750 865.841> 472 88<319.153 437.293 676.955 797.244>
VStem: 819.143 113.544<255.078 450.475>
LayerCount: 2
Fore
SplineSet
564 444 m 1
 625 523 693 560 779 560 c 0
 878.492988927 560 932.686935804 503.883276266 932.686935804 401.100665175 c 0
 932.686935804 378.88254932 930.154572902 354.483840081 925 328 c 2
 862 0 l 1
 750 0 l 1
 813 325 l 2
 817.092256838 346.322811948 819.143380975 365.279765537 819.143380975 381.90083507 c 0
 819.143380975 442.449975911 791.923264279 472 737 472 c 0
 648 472 581 409 561 308 c 2
 502 0 l 1
 390 0 l 1
 453 325 l 2
 457.082337939 346.271129261 459.133425867 365.187855099 459.133425867 381.77993439 c 0
 459.133425867 442.410640483 431.744947702 472 376 472 c 0
 286 472 218 409 198 308 c 2
 139 0 l 1
 32 0 l 1
 137 545 l 1
 244 545 l 1
 229 464 l 1
 282 530 342 560 419 560 c 0
 500 560 551 520 564 444 c 1
EndSplineSet
Validated: 524289
EndChar

StartChar: n
Encoding: 110 110 79
Width: 659
Flags: W
HStem: 0 21G<32 140.831 398 511.841> 472 88<320.032 441.124>
VStem: 466.672 112.398<257.617 447.475>
LayerCount: 2
Fore
SplineSet
571 328 m 2
 508 0 l 1
 398 0 l 1
 461 325 l 2
 464.791949297 344.758051601 466.672025423 362.484737957 466.672025423 378.203906853 c 0
 466.672025423 441.247449593 436.430931648 472 378 472 c 0
 285 472 216 409 196 308 c 2
 137 0 l 1
 32 0 l 1
 137 545 l 1
 242 545 l 1
 227 464 l 1
 280 528 342 560 415 560 c 0
 523.276294863 560 579.070210807 506.171919057 579.070210807 402.931139872 c 0
 579.070210807 380.310733378 576.391751167 355.318205915 571 328 c 2
EndSplineSet
Validated: 524289
EndChar

StartChar: o
Encoding: 111 111 80
Width: 636
Flags: W
HStem: -14 87<201.607 345.165> 474 86<273.061 412.365>
VStem: 38.6306 118.945<119.525 322.328> 457.485 119.69<224.086 427.155>
LayerCount: 2
Fore
SplineSet
347 474 m 0
 258 474 189 398 165 273 c 1
 160.016285522 248.280776189 157.575921828 225.469065465 157.575921828 204.786686177 c 0
 157.575921828 121.719245029 196.941372121 73 269 73 c 0
 357 73 426 149 451 273 c 1
 455.352480039 296.276306298 457.484670637 317.941112194 457.484670637 337.770782163 c 0
 457.484670637 422.727901601 418.347032893 474 347 474 c 0
363 560 m 0
 499.589662022 560 577.175015668 484.645100147 577.175015668 352.51634571 c 0
 577.175015668 327.935888762 574.489887835 301.390562803 569 273 c 0
 534 94 414 -14 252 -14 c 0
 114.292569827 -14 38.6305589199 62.1466509182 38.6305589199 192.535000986 c 0
 38.6305589199 217.430134055 41.3887808297 244.302621958 47 273 c 0
 82 454 199 560 363 560 c 0
EndSplineSet
Validated: 524289
Substitution2: "sous-table Substitution simple lookups10" ordmasculine
Substitution2: "sous-table 'aalt' Activer toutes les variantes dans Latin lookup 0" ordmasculine
EndChar

StartChar: p
Encoding: 112 112 81
Width: 660
Flags: W
HStem: -208 21G<-9 98.8732> -19 86<226.478 371.368> 474 86<314.575 442.054>
VStem: 483.545 117.164<219.755 429.78>
LayerCount: 2
Fore
SplineSet
150 76 m 1
 95 -208 l 1
 -9 -208 l 1
 137 545 l 1
 241 545 l 1
 226 465 l 1
 274 529 336 560 413 560 c 0
 484 560 536 533 569 480 c 1
 590.04499238 444.486575359 600.709710441 402.485479268 600.709710441 353.143380502 c 0
 600.709710441 327.458264622 597.819847798 299.783926967 592 270 c 0
 575 184 541 115 487 61 c 0
 434 8 372 -19 301 -19 c 0
 224 -19 174 12 150 76 c 1
476 270 m 0
 481.066244055 295.736519802 483.545271765 319.419693297 483.545271765 340.82482101 c 0
 483.545271765 425.04591007 445.166820925 474 375 474 c 0
 284 474 213 397 188 270 c 0
 183.212676919 245.871891672 180.882212995 223.540590787 180.882212995 203.202712151 c 0
 180.882212995 117.333644375 222.425856015 67 296 67 c 0
 384 67 451 144 476 270 c 0
EndSplineSet
Validated: 524289
EndChar

StartChar: q
Encoding: 113 113 82
Width: 661
Flags: W
HStem: -208 21G<357 465.878> -19 86<197.425 324.56> 474 86<268.355 413.577>
VStem: 37.5556 118.004<111.677 320.675>
LayerCount: 2
Fore
SplineSet
163 270 m 0
 158 244.8 155.56 221.56 155.56 200.504 c 0
 155.56 116.28 194.6 67 265 67 c 0
 356 67 425 144 450 270 c 0
 454.911610732 294.95098252 457.314333786 317.972051441 457.314333786 338.858460701 c 0
 457.314333786 424.283455168 417.121736935 474 344 474 c 0
 256 474 188 397 163 270 c 0
412 76 m 1
 364 12 303 -19 226 -19 c 0
 156 -19 104 8 70 61 c 1
 48.6666666667 97 37.5555555556 139.666666667 37.5555555556 189.592592593 c 0
 37.5555555556 214.555555556 40.3333333333 241.333333333 46 270 c 0
 63 357 98 426 152 480 c 0
 206 533 268 560 338 560 c 0
 415 560 464 529 488 465 c 1
 503 545 l 1
 608 545 l 1
 462 -208 l 1
 357 -208 l 1
 412 76 l 1
EndSplineSet
Validated: 524289
EndChar

StartChar: r
Encoding: 114 114 83
Width: 428
Flags: W
HStem: 0 21G<32 140.833> 470 90<314.468 455.978>
LayerCount: 2
Fore
SplineSet
453 454 m 1
 433 465 409 470 378 470 c 0
 281 470 215 405 192 287 c 2
 137 0 l 1
 32 0 l 1
 137 545 l 1
 242 545 l 1
 227 464 l 1
 276 530 337 560 421 560 c 0
 436 560 451 559 472 553 c 1
 453 454 l 1
EndSplineSet
Validated: 1
EndChar

StartChar: s
Encoding: 115 115 84
Width: 541
Flags: W
HStem: -14 86<80.6599 301.501> 475 85<217.472 441.879>
VStem: 66.1869 112.442<352.166 439.398> 342.128 117.952<108.605 196.598>
LayerCount: 2
Fore
SplineSet
497 529 m 1
 480 438 l 1
 431 461 377 475 316 475 c 0
 236 475 190 451 180 401 c 0
 179.114164536 396.317726835 178.628688495 391.907698077 178.628688495 387.737488348 c 0
 178.628688495 358.954097441 201.756573488 341.595589456 276 325 c 1
 305 318 l 1
 414.750398422 294.178208094 460.080488816 257.327589846 460.080488816 191.436994982 c 0
 460.080488816 179.880155854 458.685990918 167.429954589 456 154 c 0
 436 51 335 -14 188 -14 c 0
 128 -14 65 -2 -3 22 c 1
 16 122 l 1
 79 88 141 72 206 72 c 0
 283 72 331 99 340 147 c 0
 341.434625567 153.599277608 342.128316948 159.539947051 342.128316948 164.940115343 c 0
 342.128316948 178.36077534 337.843823752 188.443101361 330 197 c 0
 318 210 285 221 234 233 c 2
 204 240 l 1
 108.625408824 261.288971245 66.1869482971 297.806144457 66.1869482971 361.284209775 c 0
 66.1869482971 372.349513167 67.4765004464 384.234061082 70 397 c 0
 90 502 179 560 321 560 c 0
 390 560 450 550 497 529 c 1
EndSplineSet
Validated: 524289
EndChar

StartChar: t
Encoding: 116 116 85
Width: 408
Flags: W
HStem: 0 84<174.43 320> 470 77<71 120 243 411>
VStem: 56.2686 110.307<97.0795 254.75>
LayerCount: 2
Fore
SplineSet
273 702 m 1
 243 547 l 1
 426 547 l 1
 411 470 l 1
 228 470 l 1
 172 183 l 2
 168.352029963 163.392161049 166.575453184 147.31917603 166.575453184 134.496595505 c 0
 166.575453184 119.199250936 169.103966292 108.528044944 174 102 c 0
 183 90 203 84 236 84 c 2
 336 84 l 1
 320 0 l 1
 220 0 l 2
 148 0 99 13 76 40 c 0
 62.6208029403 55.8117783432 56.2685797758 79.7600527757 56.2685797758 111.619906387 c 0
 56.2685797758 132.148606164 58.9058891716 155.962027142 64 183 c 2
 120 470 l 1
 56 470 l 1
 71 547 l 1
 135 547 l 1
 165 702 l 1
 273 702 l 1
EndSplineSet
Validated: 524289
EndChar

StartChar: u
Encoding: 117 117 86
Width: 659
Flags: W
HStem: -14 89<197.974 319.51> 527 20G<127.109 241 497.104 607>
VStem: 59.0143 112.602<98.6481 288.594>
LayerCount: 2
Fore
SplineSet
67 218 m 2
 131 547 l 1
 241 547 l 1
 177 221 l 1
 173.415859339 201.685464214 171.615894272 184.274049061 171.615894272 168.77364928 c 0
 171.615894272 106.429114269 200.734800497 75 260 75 c 0
 352 75 421 138 441 239 c 2
 501 547 l 1
 607 547 l 1
 501 2 l 1
 395 2 l 1
 411 83 l 1
 356 17 297 -14 224 -14 c 0
 115.490844845 -14 59.0143016016 40.0598565305 59.0143016016 143.735638258 c 0
 59.0143016016 166.18011955 61.661171626 190.949936239 67 218 c 2
EndSplineSet
Validated: 524289
EndChar

StartChar: v
Encoding: 118 118 87
Width: 615
Flags: W
HStem: 0 21G<173.234 324.481> 527 20G<74 189.422 503.8 627>
LayerCount: 2
Fore
SplineSet
74 547 m 1
 186 547 l 1
 263 97 l 1
 515 547 l 1
 627 547 l 1
 313 0 l 1
 177 0 l 1
 74 547 l 1
EndSplineSet
Validated: 1
EndChar

StartChar: w
Encoding: 119 119 88
Width: 852
Flags: W
HStem: 0 21G<127.464 259.955 474.727 607.25> 527 20G<87 196.244 399.053 531.244 734.053 851>
LayerCount: 2
Fore
SplineSet
87 547 m 1
 195 547 l 1
 221 129 l 1
 408 547 l 1
 530 547 l 1
 556 129 l 1
 743 547 l 1
 851 547 l 1
 598 0 l 1
 476 0 l 1
 448 440 l 1
 251 0 l 1
 129 0 l 1
 87 547 l 1
EndSplineSet
Validated: 1
EndChar

StartChar: x
Encoding: 120 120 89
Width: 615
Flags: W
HStem: 0 21G<-33 107.476 385.238 518> 527 20G<91 223.842 473.474 614>
LayerCount: 2
Fore
SplineSet
614 547 m 1
 365 281 l 1
 518 0 l 1
 396 0 l 1
 283 210 l 1
 89 0 l 1
 -33 0 l 1
 233 286 l 1
 91 547 l 1
 213 547 l 1
 316 357 l 1
 492 547 l 1
 614 547 l 1
EndSplineSet
Validated: 1
EndChar

StartChar: y
Encoding: 121 121 90
Width: 615
Flags: W
HStem: -208 84<-6 113.094> 527 20G<74 189.943 503.314 627>
LayerCount: 2
Fore
SplineSet
272 -50 m 2
 233 -117 199 -159 169 -179 c 0
 139 -199 101 -208 58 -208 c 2
 -22 -208 l 1
 -6 -124 l 1
 55 -124 l 2
 76 -124 94 -119 108 -107 c 1
 123 -96 142 -69 167 -28 c 2
 190 11 l 1
 74 547 l 1
 186 547 l 1
 269 126 l 1
 515 547 l 1
 627 547 l 1
 272 -50 l 2
EndSplineSet
Validated: 1
EndChar

StartChar: z
Encoding: 122 122 91
Width: 547
Flags: W
HStem: 0 78<119 439> 468 79<102 409>
LayerCount: 2
Fore
SplineSet
102 547 m 1
 545 547 l 1
 528 460 l 1
 119 78 l 1
 454 78 l 1
 439 0 l 1
 -18 0 l 1
 -2 87 l 1
 409 468 l 1
 86 468 l 1
 102 547 l 1
EndSplineSet
Validated: 1
EndChar

StartChar: braceleft
Encoding: 123 123 92
Width: 661
Flags: W
HStem: -163 79<333.445 436> 259 79<132 231.741> 681 79<474.607 600>
VStem: 210.607 115.123<-73.8698 92.5781> 246.974 115.292<65.9688 243.407>
CounterMasks: 1 e0
LayerCount: 2
Fore
SplineSet
451 -84 m 1xf0
 436 -163 l 1
 398 -163 l 2
 313 -163 258 -151 235 -127 c 0
 218.82793239 -110.82793239 210.606552212 -84.6128911829 210.606552212 -48.3548763778 c 0xf0
 210.606552212 -28.5625213722 213.056357861 -5.77756257964 218 20 c 2
 241 136 l 2
 244.904149049 156.388333922 246.973567196 173.718783009 246.973567196 188.358683819 c 0
 246.973567196 241.215748744 219.997534941 259 155 259 c 2
 117 259 l 1
 132 338 l 1
 170 338 l 2
 254 338 286 369 304 461 c 2
 327 577 l 2
 341 650 365 698 400 723 c 1
 433 748 492 760 577 760 c 2
 615 760 l 1
 600 681 l 1
 559 681 l 2
 518 681 490 674 474 660 c 0
 459 647 448 618 439 575 c 2
 416 455 l 2
 396 353 364 315 289 299 c 1
 339.946548808 286.263362798 362.265698696 260.055008457 362.265698696 205.655689235 c 0xe8
 362.265698696 187.446484549 359.764934892 166.078604694 355 141 c 2
 332 22 l 2
 327.749233122 1.21847303902 325.729209336 -15.9938649729 325.729209336 -29.7423736898 c 0
 325.729209336 -45.1031014925 328.250766878 -56.1399966021 333 -63 c 0
 344 -77 369 -84 410 -84 c 2
 451 -84 l 1xf0
EndSplineSet
Validated: 524289
EndChar

StartChar: bar
Encoding: 124 124 93
Width: 350
Flags: W
HStem: 744 20G<213.12 303>
VStem: 23 280
LayerCount: 2
Fore
SplineSet
303 764 m 1
 109 -236 l 1
 23 -236 l 1
 217 764 l 1
 303 764 l 1
EndSplineSet
Validated: 1
EndChar

StartChar: braceright
Encoding: 125 125 94
Width: 661
Flags: W
HStem: -163 79<50 176.393> 259 79<418.383 518> 681 79<214 317.555>
VStem: 287.484 115.543<354.345 529.938> 324.271 115.417<505.969 671.463>
CounterMasks: 1 e0
LayerCount: 2
Fore
SplineSet
50 -84 m 1xf0
 92 -84 l 2
 133 -84 162 -77 176 -64 c 0
 191 -51 202 -23 211 22 c 2
 234 141 l 2
 253 241 287 282 363 299 c 1
 311.095014019 311.035938778 287.483743326 335.521112283 287.483743326 390.333945326 c 0xf0
 287.483743326 408.386664764 290.044923473 429.72910971 295 455 c 2
 318 575 l 2
 322.250766878 595.30921953 324.270790664 612.49539873 324.270790664 626.347818291 c 0
 324.270790664 641.824642045 321.749233122 653.139996602 317 660 c 0
 308 674 282 681 241 681 c 2
 199 681 l 1
 214 760 l 1
 253 760 l 2
 338 760 393 748 416 723 c 1
 431.877081724 707.122918276 439.687548278 681.969229106 439.687548278 647.026635257 c 0xe8
 439.687548278 626.948737217 437.108834235 603.638921366 432 577 c 2
 409 461 l 2
 405.095850951 441.045460417 403.026432804 423.960628141 403.026432804 409.439389372 c 0
 403.026432804 357.010751343 430.002465059 338 495 338 c 2
 533 338 l 1
 518 259 l 1
 480 259 l 2
 397 259 364 230 346 136 c 2
 323 20 l 2
 309 -53 286 -102 251 -127 c 0
 218 -151 159 -163 74 -163 c 2
 35 -163 l 1
 50 -84 l 1xf0
EndSplineSet
Validated: 524289
EndChar

StartChar: asciitilde
Encoding: 126 126 95
Width: 871
Flags: W
HStem: 238 88<478.67 660.902> 300 88<204.851 387.975>
LayerCount: 2
Fore
SplineSet
775 399 m 1x80
 758 309 l 1
 676 258 615 238 548 238 c 0x80
 510 238 469 248 422 265 c 0
 419 266 416 268 414 269 c 0
 412 270 409 270 404 272 c 0
 359 291 321 300 291 300 c 0
 230 300 169 279 91 228 c 1
 108 317 l 1
 190 368 252 388 319 388 c 0x40
 357 388 398 379 445 361 c 0
 447 360 451 359 453 358 c 0
 456 357 458 356 462 354 c 0
 508 335 545 326 576 326 c 0
 636 326 694 348 775 399 c 1x80
EndSplineSet
Validated: 1
EndChar

StartChar: Euro
Encoding: 8364 8364 96
Width: 662
Flags: W
HStem: -14 89<274.071 445.919> 251 68<29 91 213 391> 411 67<59 114 252 495> 560 21G<613 641.964> 654 88<377.298 561.64>
VStem: 90.8708 117.115<144.837 251>
LayerCount: 2
Fore
SplineSet
660 671 m 1
 638 560 l 1
 588 627 542 654 471 654 c 0
 372 654 294 591 252 478 c 1
 538 478 l 1
 495 411 l 1
 230 411 l 1
 230 396 228 385 224 364 c 0
 221 346 218 334 213 319 c 1
 435 319 l 1
 391 251 l 1
 208 251 l 1
 207.990560995 249.942831399 207.985844015 248.889939349 207.985844015 247.841337306 c 0
 207.985844015 137.797509382 259.934461531 75 358 75 c 0
 429 75 486 101 562 168 c 1
 541 58 l 1
 469 10 402 -14 337 -14 c 0
 179.470813379 -14 90.8707581151 79.8202065686 90.8707581151 240.2960105 c 0
 90.8707581151 243.83174619 90.9137686117 247.399839538 91 251 c 1
 -15 251 l 1
 29 319 l 1
 97 319 l 1
 99 333 97 346 100 364 c 0
 104 385 112 397 114 411 c 1
 16 411 l 1
 59 478 l 1
 135 478 l 1
 196 644 325 742 484 742 c 0
 550 742 609 720 660 671 c 1
EndSplineSet
Validated: 524289
EndChar

StartChar: quotesinglbase
Encoding: 8218 8218 97
Width: 329
Flags: W
HStem: -116 240
VStem: 2 195
LayerCount: 2
Fore
SplineSet
85 124 m 1
 197 124 l 1
 180 39 l 1
 73 -116 l 1
 2 -116 l 1
 68 39 l 1
 85 124 l 1
EndSplineSet
Validated: 1
EndChar

StartChar: florin
Encoding: 402 402 98
Width: 662
Flags: W
HStem: -208 81<-50.2222 95.1146> 338 78<195 301 444 570> 679 81<567.05 707.408>
LayerCount: 2
Fore
SplineSet
732 739 m 1
 715 652 l 1
 691 670 663 679 632 679 c 0
 575 679 535 642 506 561 c 1
 444 416 l 1
 585 416 l 1
 570 338 l 1
 413 338 l 1
 295 36 l 1
 257 -57 219 -120 180 -155 c 0
 139 -191 88 -208 22 -208 c 0
 -19 -208 -53 -201 -83 -185 c 1
 -66 -97 l 1
 -31 -117 -1 -127 34 -127 c 0
 92 -127 126 -89 167 14 c 1
 301 338 l 1
 180 338 l 1
 195 416 l 1
 333 416 l 1
 391 572 l 1
 438 693 523 760 630 760 c 0
 669 760 703 753 732 739 c 1
EndSplineSet
Validated: 1
EndChar

StartChar: quotedblbase
Encoding: 8222 8222 99
Width: 539
Flags: W
HStem: -116 240
LayerCount: 2
Fore
SplineSet
284 124 m 1
 406 124 l 1
 389 39 l 1
 276 -116 l 1
 199 -116 l 1
 267 39 l 1
 284 124 l 1
87 124 m 1
 209 124 l 1
 192 39 l 1
 79 -116 l 1
 2 -116 l 1
 70 39 l 1
 87 124 l 1
EndSplineSet
Validated: 1
EndChar

StartChar: ellipsis
Encoding: 8230 8230 100
Width: 1041
Flags: W
HStem: 0 124<81 179 420 519 760 858>
LayerCount: 2
Fore
SplineSet
420 124 m 1
 543 124 l 1
 519 0 l 1
 396 0 l 1
 420 124 l 1
760 124 m 1
 882 124 l 1
 858 0 l 1
 736 0 l 1
 760 124 l 1
81 124 m 1
 203 124 l 1
 179 0 l 1
 57 0 l 1
 81 124 l 1
EndSplineSet
Validated: 1
EndChar

StartChar: dagger
Encoding: 8224 8224 101
Width: 520
Flags: W
HStem: 444 82<68 232 350 514> 709 20G<283.158 389>
LayerCount: 2
Fore
SplineSet
287 729 m 1
 389 729 l 1
 350 526 l 1
 530 526 l 1
 514 444 l 1
 334 444 l 1
 229 -96 l 1
 127 -96 l 1
 232 444 l 1
 52 444 l 1
 68 526 l 1
 248 526 l 1
 287 729 l 1
EndSplineSet
Validated: 1
EndChar

StartChar: daggerdbl
Encoding: 8225 8225 102
Width: 520
Flags: W
HStem: 107 82<2 166 284 448> 444 82<68 232 350 514> 709 20G<283.158 389>
LayerCount: 2
Fore
SplineSet
448 107 m 1
 268 107 l 1
 229 -96 l 1
 127 -96 l 1
 166 107 l 1
 -14 107 l 1
 2 189 l 1
 182 189 l 1
 232 444 l 1
 52 444 l 1
 68 526 l 1
 248 526 l 1
 287 729 l 1
 389 729 l 1
 350 526 l 1
 530 526 l 1
 514 444 l 1
 334 444 l 1
 284 189 l 1
 464 189 l 1
 448 107 l 1
EndSplineSet
Validated: 1
EndChar

StartChar: circumflex
Encoding: 710 710 103
Width: 520
Flags: W
HStem: 616 184
VStem: 154 324
LayerCount: 2
Fore
SplineSet
311 800 m 1
 393 800 l 1
 478 616 l 1
 397 616 l 1
 338 729 l 1
 235 616 l 1
 154 616 l 1
 311 800 l 1
EndSplineSet
Validated: 1
EndChar

StartChar: perthousand
Encoding: 8240 8240 104
Width: 1395
Flags: W
HStem: -14 72<658.287 754.617 1058.29 1154.62> 316 73<700.55 796.86 1100.74 1196.86> 340 73<212.744 309.45> 670 72<255.461 351.562>
VStem: 93.5161 104.2<429.126 595.328> 367.753 104.665<487.25 652.608> 537.523 104.327<75.3593 241.75> 811.996 104.488<133.516 301.911> 937.523 104.327<74.4907 241.859> 1212 104.488<133.141 302.174>
LayerCount: 2
Fore
SplineSet
1153 316 m 0xdfc0
 1103 316 1063 269 1047 187 c 0
 1043.53271317 169.880271301 1041.84995354 154.122418618 1041.84995354 139.940153825 c 0
 1041.84995354 88.6775194385 1063.83527133 58 1103 58 c 0
 1153 58 1191 108 1207 187 c 1
 1210.34166688 204.822223333 1211.99591564 221.105918389 1211.99591564 235.652069076 c 0
 1211.99591564 286.400356305 1191.86111042 316 1153 316 c 0xdfc0
1167 389 m 0
 1261.80396853 389 1316.48386363 332.396396408 1316.48386363 240.416429151 c 0
 1316.48386363 223.732629557 1314.68486389 205.884927419 1311 187 c 0
 1287 64 1201 -14 1089 -14 c 0
 992.468032197 -14 937.523353318 41.9277333808 937.523353318 133.747115211 c 0
 937.523353318 150.362377021 939.322519537 168.152912629 943 187 c 0
 967 312 1054 389 1167 389 c 0
321 742 m 0
 416.857956897 742 472.417544115 685.870127948 472.417544115 594.365639697 c 0
 472.417544115 578.002116704 470.640787916 560.507338571 467 542 c 0
 443 417 357 340 243 340 c 0xbfc0
 148.196031471 340 93.5161363744 395.170600969 93.5161363744 487.923518397 c 0
 93.5161363744 504.747519669 95.3151361134 522.80800059 99 542 c 0
 123 664 209 742 321 742 c 0
765 742 m 1
 861 742 l 1
 245 -14 l 1
 149 -14 l 1
 765 742 l 1
307 670 m 0
 258 670 218 621 203 542 c 0
 199.444444444 523.777777778 197.716049383 507.283950617 197.716049383 492.650205761 c 0
 197.716049383 441.432098765 218.888888889 413 257 413 c 0
 307 413 347 460 363 542 c 0
 366.190997457 558.805919939 367.752800551 574.254177909 367.752800551 588.16185475 c 0
 367.752800551 639.630335502 346.363341811 670 307 670 c 0
767 389 m 0xdfc0
 861.803968529 389 916.483863626 332.396396408 916.483863626 240.416429151 c 0
 916.483863626 223.732629557 914.684863887 205.884927419 911 187 c 0
 887 64 801 -14 689 -14 c 0
 592.468032197 -14 537.523353318 41.9277333808 537.523353318 133.747115211 c 0
 537.523353318 150.362377021 539.322519537 168.152912629 543 187 c 0
 567 312 653 389 767 389 c 0xdfc0
753 316 m 0
 703 316 663 269 647 187 c 0
 643.532713175 169.880271301 641.849953542 154.122418618 641.849953542 139.940153825 c 0
 641.849953542 88.6775194385 663.835271328 58 703 58 c 0
 753 58 791 108 807 187 c 1
 810.341666875 204.822223333 811.995915638 221.105918389 811.995915638 235.652069076 c 0
 811.995915638 286.400356305 791.861110417 316 753 316 c 0
EndSplineSet
Validated: 524289
Ligature2: "sous-table Remplacement de ligature lookups11" zero fraction zero zero
Ligature2: "sous-table Remplacement de ligature lookups11" zero slash zero zero
EndChar

StartChar: Scaron
Encoding: 352 352 105
Width: 660
Flags: W
HStem: -14 91<136.672 369.579> 655 91<303.086 536.059>
VStem: 104.533 125.612<469.628 587.162> 453.84 129.468<154.246 279.646>
LayerCount: 2
Fore
SplineSet
628 708 m 1
 608 604 l 1
 538 638 472 655 410 655 c 0
 310 655 247 615 233 542 c 0
 231.140126736 532.700633678 230.145035611 524.193984318 230.145035611 516.386974073 c 0
 230.145035611 473.822744119 259.723996676 452.055200665 340 436 c 1
 399 425 l 1
 523.526337954 400.265316434 583.307602389 345.704250684 583.307602389 255.112041396 c 0
 583.307602389 239.490073239 581.529917049 222.79666512 578 205 c 0
 550 61 437 -14 247 -14 c 0
 177 -14 98 2 19 35 c 1
 40 144 l 1
 114 100 187 77 264 77 c 0
 367 77 436 120 451 198 c 0
 452.880278988 207.835305475 453.840086028 216.980256989 453.840086028 225.486292739 c 0
 453.840086028 275.789862093 420.271957621 303.748100059 345 320 c 2
 287 332 l 1
 160.704416951 356.915455159 104.532604474 405.451548827 104.532604474 489.657699356 c 0
 104.532604474 503.462135016 106.04222615 518.225206132 109 534 c 1
 135 666 250 746 417 746 c 0
 487 746 556 733 628 708 c 1
370 791 m 1
 289 928 l 1
 372 928 l 1
 432 844 l 1
 523 928 l 1
 607 928 l 1
 470 791 l 1
 370 791 l 1
EndSplineSet
Validated: 524289
Position2: "sous-table 'cpsp' Chasses pour composition en capitales dans Latin lookup 1" dx=5 dy=0 dh=10 dv=0
EndChar

StartChar: guilsinglleft
Encoding: 8249 8249 106
Width: 417
Flags: W
VStem: 69 287
LayerCount: 2
Fore
SplineSet
356 517 m 1
 337 419 l 1
 174 293 l 1
 288 166 l 1
 269 69 l 1
 69 271 l 1
 78 314 l 1
 356 517 l 1
EndSplineSet
Validated: 1
EndChar

StartChar: OE
Encoding: 338 338 107
Width: 1113
Flags: W
HStem: 0 91<313.599 505 622 983> 343 90<689 1024> 637 92<408.826 611 728 1097>
VStem: 55.9605 131.325<196.164 411.069>
LayerCount: 2
Fore
SplineSet
1115 729 m 1
 1097 637 l 1
 728 637 l 1
 689 433 l 1
 1042 433 l 1
 1024 343 l 1
 671 343 l 1
 622 91 l 1
 1000 91 l 1
 983 0 l 1
 445 0 l 2
 187.826502737 0 55.9605118343 95.1129265148 55.9605118343 276.81274964 c 0
 55.9605118343 304.244692492 58.9661516017 333.650222452 65 365 c 1
 112 602 290 729 586 729 c 2
 1115 729 l 1
611 637 m 1
 555 637 l 2
 350 637 231 548 195 365 c 0
 189.85928618 338.268288135 187.285760679 313.478147267 187.285760679 290.635914579 c 0
 187.285760679 157.959250079 274.109895233 91 449 91 c 2
 505 91 l 1
 611 637 l 1
EndSplineSet
Validated: 524289
Ligature2: "sous-table 'dpng' Dipthongs (Obsolete) dans Latin lookup 9" O e
Ligature2: "sous-table 'dpng' Dipthongs (Obsolete) dans Latin lookup 9" O E
Position2: "sous-table 'cpsp' Chasses pour composition en capitales dans Latin lookup 1" dx=5 dy=0 dh=10 dv=0
EndChar

StartChar: quoteleft
Encoding: 8216 8216 108
Width: 332
Flags: W
HStem: 489 240
VStem: 121 195
LayerCount: 2
Fore
SplineSet
234 489 m 1
 121 489 l 1
 137 575 l 1
 244 729 l 1
 316 729 l 1
 250 575 l 1
 234 489 l 1
EndSplineSet
Validated: 1
EndChar

StartChar: quoteright
Encoding: 8217 8217 109
Width: 329
Flags: W
HStem: 499 230
VStem: 123 193
LayerCount: 2
Fore
SplineSet
203 729 m 1
 316 729 l 1
 302 654 l 1
 194 499 l 1
 123 499 l 1
 189 654 l 1
 203 729 l 1
EndSplineSet
Validated: 1
EndChar

StartChar: quotedblleft
Encoding: 8220 8220 110
Width: 539
Flags: W
HStem: 489 240
LayerCount: 2
Fore
SplineSet
241 489 m 1
 120 489 l 1
 136 575 l 1
 249 729 l 1
 326 729 l 1
 257 575 l 1
 241 489 l 1
438 489 m 1
 317 489 l 1
 333 575 l 1
 446 729 l 1
 523 729 l 1
 454 575 l 1
 438 489 l 1
EndSplineSet
Validated: 1
EndChar

StartChar: quotedblright
Encoding: 8221 8221 111
Width: 539
Flags: W
HStem: 489 240
LayerCount: 2
Fore
SplineSet
204 729 m 1
 326 729 l 1
 310 644 l 1
 197 489 l 1
 120 489 l 1
 188 644 l 1
 204 729 l 1
401 729 m 1
 523 729 l 1
 507 644 l 1
 394 489 l 1
 317 489 l 1
 385 644 l 1
 401 729 l 1
EndSplineSet
Validated: 1
EndChar

StartChar: bullet
Encoding: 8226 8226 112
Width: 613
Flags: W
HStem: 227 289<259.091 370.635>
VStem: 161.855 307.145<321.342 423.016>
LayerCount: 2
Fore
SplineSet
165 372 m 0
 173 413 193 447 229 474 c 1
 263 502 302 516 344 516 c 0
 386 516 418 502 442 474 c 0
 460 453.75 469 429.5625 469 401.4375 c 0
 469 392.0625 468 382.25 466 372 c 0
 458 331 437 297 402 269 c 0
 368 242 330 227 287 227 c 0
 245 227 213 242 189 269 c 0
 170.497781984 289.722484178 161.854727627 313.731356243 161.854727627 341.431985962 c 0
 161.854727627 351.160152205 162.920709765 361.343637547 165 372 c 0
EndSplineSet
Validated: 524289
EndChar

StartChar: endash
Encoding: 8211 8211 113
Width: 520
Flags: W
HStem: 239 70<-3 503>
LayerCount: 2
Fore
SplineSet
-3 309 m 1
 517 309 l 1
 503 239 l 1
 -17 239 l 1
 -3 309 l 1
EndSplineSet
Validated: 1
EndChar

StartChar: emdash
Encoding: 8212 8212 114
Width: 1040
Flags: W
HStem: 239 70<-3 1023>
LayerCount: 2
Fore
SplineSet
-3 309 m 1
 1037 309 l 1
 1023 239 l 1
 -17 239 l 1
 -3 309 l 1
EndSplineSet
Validated: 1
EndChar

StartChar: tilde
Encoding: 732 732 115
Width: 521
Flags: W
HStem: 639 69<369.969 423.411> 710 67<245.99 298.881>
VStem: 154 77<639 697.688> 439 77<721.542 777>
LayerCount: 2
Fore
SplineSet
316 668 m 1
 294 694 l 2
 286 705 279 710 273 710 c 0
 253 710 241 688 231 639 c 1
 154 639 l 1
 172 727 219 777 283 777 c 0
 311 777 329 769 352 749 c 1
 375 724 l 1
 383 712 390 708 396 708 c 0
 416 708 428 728 439 777 c 1
 516 777 l 1
 497 689 450 639 386 639 c 0
 359 639 339 648 316 668 c 1
EndSplineSet
Validated: 1
EndChar

StartChar: trademark
Encoding: 8482 8482 116
Width: 1041
Flags: W
HStem: 675 54<228 317 390 491>
LayerCount: 2
Fore
SplineSet
640 729 m 1
 697 609 l 1
 795 729 l 1
 894 729 l 1
 839 447 l 1
 769 447 l 1
 814 675 l 1
 701 531 l 1
 662 531 l 1
 601 675 l 1
 556 447 l 1
 485 447 l 1
 540 729 l 1
 640 729 l 1
501 729 m 1
 491 675 l 1
 390 675 l 1
 345 447 l 1
 272 447 l 1
 317 675 l 1
 218 675 l 1
 228 729 l 1
 501 729 l 1
EndSplineSet
Validated: 1
EndChar

StartChar: scaron
Encoding: 353 353 117
Width: 541
Flags: W
HStem: -14 86<82.1616 300.483> 479 86<219.465 442.668>
VStem: 66.1902 113.436<354.948 442.724> 342.314 118.392<109.206 198.609>
LayerCount: 2
Fore
SplineSet
498 534 m 1
 480 442 l 1
 432 465 378 479 317 479 c 0
 237 479 191 454 181 404 c 0
 180.112308191 399.307914721 179.626655539 394.88921607 179.626655539 390.711274389 c 0
 179.626655539 361.943556941 202.652301713 344.590550803 276 328 c 2
 306 321 l 2
 415.629250135 296.162123016 460.705620711 258.853803391 460.705620711 191.48335559 c 0
 460.705620711 180.193981237 459.439865216 168.060454982 457 155 c 1
 436 51 335 -14 188 -14 c 0
 128 -14 65 -2 -3 22 c 1
 16 123 l 1
 79 89 141 72 206 72 c 0
 283 72 331 100 340 148 c 0
 341.533119315 155.052348847 342.314093083 161.446570341 342.314093083 167.269149147 c 0
 342.314093083 180.43589084 338.320513645 190.679486355 330 199 c 0
 319 211 286 223 234 235 c 2
 205 242 l 1
 108.752630279 263.293665867 66.1902129578 299.822250659 66.1902129578 363.944126682 c 0
 66.1902129578 375.10505591 67.4796927898 387.101957218 70 400 c 0
 91 506 180 565 322 565 c 0
 391 565 451 554 498 534 c 1
282 610 m 1
 195 800 l 1
 279 800 l 1
 338 684 l 1
 443 800 l 1
 527 800 l 1
 366 610 l 1
 282 610 l 1
EndSplineSet
Validated: 524289
EndChar

StartChar: guilsinglright
Encoding: 8250 8250 118
Width: 416
Flags: W
VStem: 48 286
LayerCount: 2
Fore
SplineSet
135 517 m 1
 334 314 l 1
 325 271 l 1
 48 69 l 1
 67 166 l 1
 228 293 l 1
 116 419 l 1
 135 517 l 1
EndSplineSet
Validated: 1
EndChar

StartChar: oe
Encoding: 339 339 119
Width: 1063
Flags: W
HStem: -14 87<206.028 352.216 632.65 860.407> 249 76<591 900.756> 474 86<277.251 421.606 691.53 859.736>
VStem: 38.782 121.911<120.153 322.328> 466.379 104.422<214.63 336.787> 901.295 108.119<325.691 433.933>
LayerCount: 2
Fore
SplineSet
898 325 m 1
 900.210916542 337.574587833 901.295266813 349.519062327 901.295266813 360.767460984 c 0
 901.295266813 430.921673002 859.116323587 474 785 474 c 0
 689 474 618 420 591 325 c 1
 898 325 l 1
1002 296 m 2
 993 249 l 1
 573 249 l 1
 571.532723024 236.947367697 570.801386944 225.487881788 570.801386944 214.629600699 c 0
 570.801386944 121.88376495 624.157437801 73 728 73 c 0
 801 73 871 88 945 122 c 1
 927 30 l 1
 853 1 779 -14 706 -14 c 0
 600 -14 527 22 486 91 c 1
 427 21 351 -14 258 -14 c 0
 116.44121825 -14 38.7819540082 62.6794210097 38.7819540082 193.903018283 c 0
 38.7819540082 218.413767332 41.4914128646 244.827511507 47 273 c 0
 82 454 201 560 369 560 c 0
 462 560 527 525 557 456 c 1
 622 523 706 560 800 560 c 0
 879 560 937 536 973 489 c 0
 997.166280507 456.548137605 1009.41400768 415.514916808 1009.41400768 366.558685273 c 0
 1009.41400768 344.611655411 1006.95255748 321.072322256 1002 296 c 2
353 474 m 0
 262 474 192 398 168 273 c 1
 163.096115354 248.676732155 160.693231508 226.200357209 160.693231508 205.782203989 c 0
 160.693231508 122.108628441 201.046295498 73 275 73 c 0
 365 73 435 149 460 273 c 1
 464.280609751 295.891956494 466.379011468 317.225192963 466.379011468 336.786970297 c 0
 466.379011468 422.331919544 426.249787932 474 353 474 c 0
EndSplineSet
Validated: 524289
Ligature2: "sous-table 'dpng' Dipthongs (Obsolete) dans Latin lookup 9" o e
EndChar

StartChar: Ydieresis
Encoding: 376 376 120
Width: 636
Flags: W
HStem: 0 21G<195 316.873> 711 20G<77 209.392 575.838 717> 807 106<279 373 470 565>
LayerCount: 2
Fore
SplineSet
77 731 m 1
 200 731 l 1
 339 435 l 1
 593 731 l 1
 717 731 l 1
 380 346 l 1
 313 0 l 1
 195 0 l 1
 262 346 l 1
 77 731 l 1
470 913 m 1
 586 913 l 1
 565 807 l 1
 449 807 l 1
 470 913 l 1
279 913 m 1
 394 913 l 1
 373 807 l 1
 258 807 l 1
 279 913 l 1
EndSplineSet
Validated: 1
Position2: "sous-table 'cpsp' Chasses pour composition en capitales dans Latin lookup 1" dx=5 dy=0 dh=10 dv=0
EndChar

StartChar: exclamdown
Encoding: 161 161 121
Width: 417
Flags: W
HStem: 0 21G<94 200.863> 598 131<235 313>
VStem: 200 83<469 497>
LayerCount: 2
Fore
SplineSet
313 598 m 1
 210 598 l 1
 235 729 l 1
 338 729 l 1
 313 598 l 1
197 0 m 1
 94 0 l 1
 156 321 l 1
 200 497 l 1
 283 497 l 1
 259 321 l 1
 197 0 l 1
EndSplineSet
Validated: 1
Position2: "sous-table 'cpsp' Chasses pour composition en capitales dans Latin lookup 1" dx=5 dy=0 dh=10 dv=0
EndChar

StartChar: cent
Encoding: 162 162 122
Width: 661
Flags: W
HStem: -13 83<234.071 269> 477 84<309.304 364 448 524.157>
VStem: 68.9948 118.84<117.149 325.388>
LayerCount: 2
Fore
SplineSet
285 70 m 1
 364 477 l 1
 280 465 217 390 195 273 c 1
 190.196159972 248.771937252 187.835240974 226.288818097 187.835240974 205.778425954 c 0
 187.835240974 128.088416634 221.709008792 78.7025112911 285 70 c 1
576 527 m 1
 558 436 l 1
 516 464 475 476 432 479 c 1
 352 68 l 1
 396 71 443 85 495 111 c 1
 478 21 l 1
 431 0 384 -11 336 -15 c 1
 309 -153 l 1
 242 -153 l 1
 269 -13 l 1
 139.187742006 -2.11252029728 68.994792968 73.3040938048 68.994792968 196.214533285 c 0
 68.994792968 220.063101112 71.6374484761 245.699737697 77 273 c 1
 109 442 220 546 381 561 c 1
 407 699 l 1
 474 699 l 1
 448 561 l 1
 494 558 536 548 576 527 c 1
EndSplineSet
Validated: 524289
EndChar

StartChar: sterling
Encoding: 163 163 123
Width: 663
Flags: W
HStem: 0 90<20 135 252 508> 306 77<95 177 309 485> 653 89<401.478 581.351>
LayerCount: 2
Fore
SplineSet
636 710 m 1
 617 615 l 1
 569 640 524 653 482 653 c 0
 438 653 405 641 384 618 c 1
 359 594 341 549 328 483 c 2
 309 383 l 1
 500 383 l 1
 485 306 l 1
 294 306 l 1
 252 90 l 1
 525 90 l 1
 508 0 l 1
 3 0 l 1
 20 90 l 1
 135 90 l 1
 177 306 l 1
 80 306 l 1
 95 383 l 1
 192 383 l 1
 213 493 l 2
 247 666 333 742 491 742 c 0
 533 742 585 731 636 710 c 1
EndSplineSet
Validated: 1
EndChar

StartChar: currency
Encoding: 164 164 124
Width: 662
Flags: W
HStem: 104 87<240.306 377.554> 436 87<279.322 415.982>
VStem: 106.912 100.221<222.838 363.861> 450.235 101.518<266.323 399.995>
LayerCount: 2
Fore
SplineSet
477 487 m 1
 599 587 l 1
 655 527 l 1
 535 427 l 1
 545.954535015 400.98297934 551.752741079 375.434715857 551.752741079 349.39239388 c 0
 551.752741079 337.397761202 550.522732493 325.298320901 548 313 c 1
 541 273 521 238 489 202 c 1
 571 102 l 1
 492 42 l 1
 409 141 l 1
 366 117 329 104 289 104 c 0
 252 104 215 116 180 139 c 1
 59 40 l 1
 4 101 l 1
 124 201 l 1
 112.724801428 228.483296518 106.912224463 254.973389108 106.912224463 280.820233129 c 0
 106.912224463 291.651191429 107.932899375 302.369196786 110 313 c 0
 118 353 137 390 168 425 c 1
 88 525 l 1
 167 585 l 1
 249 486 l 1
 290 511 329 523 370 523 c 0
 409 523 443 511 477 487 c 1
448 314 m 1
 449.484692283 322.660704987 450.234614175 330.892793912 450.234614175 338.726569773 c 0
 450.234614175 362.550973649 443.298474436 382.69132042 429 400 c 1
 412 424 386 436 353 436 c 0
 319 436 289 424 260 400 c 1
 234 377 216 349 210 314 c 1
 208.074648593 304.648293166 207.132781156 295.599196784 207.132781156 286.894327387 c 0
 207.132781156 263.950903618 213.675853417 243.398795176 226 226 c 1
 246 203 272 191 306 191 c 0
 339 191 369 203 395 226 c 0
 423 251 441 280 448 314 c 1
EndSplineSet
Validated: 524289
EndChar

StartChar: yen
Encoding: 165 165 125
Width: 662
Flags: W
HStem: 0 21G<210 328.818> 220 67<62 252 381 570> 378 67<93 221 487 601> 709 20G<120 236.786 573.476 697>
LayerCount: 2
Fore
SplineSet
570 220 m 1
 367 220 l 1
 325 0 l 1
 210 0 l 1
 252 220 l 1
 49 220 l 1
 62 287 l 1
 265 287 l 1
 269 307 l 1
 245 378 l 1
 80 378 l 1
 93 445 l 1
 221 445 l 1
 120 729 l 1
 230 729 l 1
 344 393 l 1
 588 729 l 1
 697 729 l 1
 487 445 l 1
 614 445 l 1
 601 378 l 1
 437 378 l 1
 385 307 l 1
 381 287 l 1
 583 287 l 1
 570 220 l 1
EndSplineSet
Validated: 1
EndChar

StartChar: brokenbar
Encoding: 166 166 126
Width: 350
Flags: W
VStem: 35 255
LayerCount: 2
Fore
SplineSet
194 203 m 1
 121 -171 l 1
 35 -171 l 1
 108 203 l 1
 194 203 l 1
290 699 m 1
 217 324 l 1
 131 324 l 1
 204 699 l 1
 290 699 l 1
EndSplineSet
Validated: 1
EndChar

StartChar: section
Encoding: 167 167 127
Width: 521
Flags: W
HStem: -95 81<67.5414 244.642> 662 80<271.855 442.975>
VStem: 49.5846 105.556<299.096 404.77> 129.107 113.248<543.341 633.752> 277.819 111.919<18.4613 112.615> 366.488 104.778<253.736 357.471>
LayerCount: 2
Fore
SplineSet
222 450 m 1xc4
 183 423 162 396 157 368 c 0
 155.76524617 362.073181617 155.140339148 356.329317276 155.140339148 350.738286551 c 0
 155.140339148 333.689052511 160.951212255 318.060984681 173 303 c 0
 191 282 233 250 299 208 c 1
 338 235 360 263 365 290 c 0
 366.008478231 294.84069551 366.488101724 299.518666485 366.488101724 304.074938963 c 0
 366.488101724 322.108506983 358.974565306 338.235608571 347 355 c 0
 330 377 287 408 222 450 c 1xc4
496 712 m 1
 479 625 l 1
 427 649 380 662 342 662 c 0
 288 662 251 637 243 595 c 0
 242.570870539 592.596875018 242.355357507 590.164285701 242.355357507 587.70349645 c 0
 242.355357507 561.49241073 266.806249964 532.081919665 318 501 c 0
 325 496 330 493 335 490 c 0
 397 452 436 419 452 394 c 0
 464.704782116 375.316496888 471.265874354 353.840407468 471.265874354 329.9891341 c 0xd4
 471.265874354 321.925523485 470.515959253 313.590435768 469 305 c 0
 458 247 419 203 353 169 c 1
 378.578886358 143.421113642 389.738391398 116.640612174 389.738391398 86.7957091511 c 0
 389.738391398 78.1369108805 388.799057853 69.2201714945 387 60 c 0
 369 -34 283 -95 167 -95 c 0
 117 -95 68 -85 13 -65 c 1
 30 23 l 1
 84 -1 134 -14 172 -14 c 0
 230 -14 268 13 277 57 c 0
 277.546207937 59.9131089981 277.81893469 62.8427926135 277.81893469 65.7905597107 c 0
 277.81893469 95.2235058555 250.628955285 126.459316935 197 161 c 2
 186 168 l 1
 124 206 84 239 69 263 c 1
 55.793063352 282.076686269 49.5845874544 303.306745077 49.5845874544 326.690176424 c 0xe8
 49.5845874544 335.176494698 50.402312216 343.946435891 52 353 c 0
 63 411 103 458 168 489 c 1
 142.071428571 511.785714286 129.107142857 538.275510204 129.107142857 570.409620991 c 0xd0
 129.107142857 579.173469388 130.071428571 588.357142857 132 598 c 0
 149 685 235 742 347 742 c 0
 398 742 446 733 496 712 c 1
EndSplineSet
Validated: 524289
EndChar

StartChar: dieresis
Encoding: 168 168 128
Width: 519
Flags: W
HStem: 659 99<193 287 381 475>
VStem: 174 320
LayerCount: 2
Fore
SplineSet
381 758 m 1
 494 758 l 1
 475 659 l 1
 362 659 l 1
 381 758 l 1
193 758 m 1
 306 758 l 1
 287 659 l 1
 174 659 l 1
 193 758 l 1
EndSplineSet
Validated: 1
EndChar

StartChar: copyright
Encoding: 169 169 129
Width: 1041
Flags: W
HStem: 0 61<359.462 584.224> 139 69<439.781 620.985> 516 68<490.145 684.744> 664 61<466.437 696.816>
VStem: 143.936 74.3498<204.17 417.186> 292.668 104.985<249.468 413.394> 835.032 76.0321<306.979 526.105>
LayerCount: 2
Fore
SplineSet
597 725 m 0
 700 725 783 689 843 618 c 0
 888.945544967 564.522398481 911.063702055 503.102334337 911.063702055 433.312499868 c 0
 911.063702055 410.445257232 908.689092551 386.679434481 904 362 c 0
 885 263 832 178 743 107 c 1
 656 36 560 0 457 0 c 0
 355 0 271 36 212 107 c 1
 166.054455033 160.477601519 143.936297945 221.897665663 143.936297945 291.260192434 c 0
 143.936297945 313.987424009 146.310907449 337.567359864 151 362 c 0
 170 462 223 547 312 618 c 1
 398 689 495 725 597 725 c 0
586 664 m 0
 504 664 426 635 355 576 c 1
 286 517 240 443 224 362 c 0
 220.167804588 342.599510726 218.286056586 323.715316355 218.286056586 305.402376413 c 0
 218.286056586 247.256000595 237.257074023 194.868779418 273 150 c 0
 320 91 386 61 468 61 c 0
 551 61 629 91 701 150 c 1
 770 209 813 280 829 362 c 0
 833.031748032 383.166677166 835.031622039 403.571401573 835.031622039 423.182173205 c 0
 835.031622039 481.396787399 817.408724409 532.615086615 783 576 c 0
 735 635 669 664 586 664 c 0
719 555 m 1
 706 485 l 1
 664 505 622 516 575 516 c 0
 486 516 421 458 402 362 c 0
 399.085237353 346.965961081 397.653128448 332.920357992 397.653128448 319.91373557 c 0
 397.653128448 248.136155674 441.266996117 208 520 208 c 0
 565 208 608 217 658 238 c 1
 644 169 l 1
 593 149 545 139 496 139 c 0
 367.624377411 139 292.668282476 202.952955642 292.668282476 309.974922895 c 0
 292.668282476 326.335034218 294.419877094 343.701594035 298 362 c 0
 325 500 434 584 582 584 c 0
 634 584 677 574 719 555 c 1
EndSplineSet
Validated: 524289
EndChar

StartChar: ordfeminine
Encoding: 170 170 130
Width: 490
Flags: W
HStem: 229 66<68 400> 337 68<187.891 293.62> 531 65<207.881 370> 675 67<190.242 370.706>
VStem: 81.5607 96.2747<416.747 503.065> 384.269 87.8977<595.538 659.491>
LayerCount: 2
Fore
SplineSet
68 295 m 1
 413 295 l 1
 400 229 l 1
 55 229 l 1
 68 295 l 1
467 566 m 1
 424 347 l 1
 334 347 l 1
 344 399 l 1
 310 359 261 337 206 337 c 0
 127.402469713 337 81.5606538845 375.215000201 81.5606538845 435.803930522 c 0
 81.5606538845 443.822942193 82.3636564496 452.233873837 84 461 c 0
 101 550 175 596 303 596 c 1
 382 595 l 1
 383.5125 602.425 384.26875 609.320625 384.26875 615.692074219 c 0
 384.26875 655.6584375 354.5125 675 295 675 c 0
 254 675 203 663 154 644 c 1
 167 712 l 1
 221 733 271 742 318 742 c 0
 421.778704472 742 472.16647348 700.711009907 472.16647348 616.93176314 c 0
 472.16647348 601.414652289 470.437955298 584.439942051 467 566 c 1
318 531 m 2
 224 531 188 513 179 467 c 0
 178.21799467 462.978258301 177.835357396 459.081319119 177.835357396 455.331490165 c 0
 177.835357396 425.515304091 202.027177124 405 242 405 c 0
 304 405 355 453 368 523 c 1
 370 531 l 1
 318 531 l 2
EndSplineSet
Validated: 524289
EndChar

StartChar: guillemotleft
Encoding: 171 171 131
Width: 636
Flags: W
LayerCount: 2
Fore
SplineSet
575 517 m 1
 556 419 l 1
 389 293 l 1
 507 166 l 1
 488 69 l 1
 280 271 l 1
 289 314 l 1
 575 517 l 1
364 517 m 1
 345 419 l 1
 177 293 l 1
 296 166 l 1
 277 69 l 1
 69 271 l 1
 78 314 l 1
 364 517 l 1
EndSplineSet
Validated: 1
EndChar

StartChar: logicalnot
Encoding: 172 172 132
Width: 871
Flags: W
HStem: 333 88<128 663>
LayerCount: 2
Fore
SplineSet
128 421 m 1
 779 421 l 1
 725 140 l 1
 626 140 l 1
 663 333 l 1
 111 333 l 1
 128 421 l 1
EndSplineSet
Validated: 1
EndChar

StartChar: minus
Encoding: 8722 8722 133
Width: 871
Flags: W
HStem: 272 83<116 750>
LayerCount: 2
Fore
SplineSet
116 355 m 1
 767 355 l 1
 750 272 l 1
 99 272 l 1
 116 355 l 1
EndSplineSet
Validated: 1
EndChar

StartChar: registered
Encoding: 174 174 134
Width: 1041
Flags: W
HStem: 0 61<359.462 584.224> 335 58<468 522.971> 516 59<492 609.79> 664 61<466.437 696.816>
VStem: 143.936 74.3498<204.17 417.186> 618.782 102.729<413.585 507.503> 835.032 76.0321<306.979 526.105>
LayerCount: 2
Fore
SplineSet
586 664 m 0
 504 664 426 635 355 576 c 1
 286 517 240 443 224 362 c 0
 220.167804588 342.599510726 218.286056586 323.715316355 218.286056586 305.402376413 c 0
 218.286056586 247.256000595 237.257074023 194.868779418 273 150 c 0
 320 91 386 61 468 61 c 0
 551 61 629 91 701 150 c 1
 770 209 813 280 829 362 c 0
 833.031748032 383.166677166 835.031622039 403.571401573 835.031622039 423.182173205 c 0
 835.031622039 481.396787399 817.408724409 532.615086615 783 576 c 0
 735 635 669 664 586 664 c 0
597 725 m 0
 700 725 783 689 843 618 c 0
 888.945544967 564.522398481 911.063702055 503.102334337 911.063702055 433.312499868 c 0
 911.063702055 410.445257232 908.689092551 386.679434481 904 362 c 0
 885 263 832 178 743 107 c 1
 656 36 560 0 457 0 c 0
 355 0 271 36 212 107 c 1
 166.054455033 160.477601519 143.936297945 221.897665663 143.936297945 291.260192434 c 0
 143.936297945 313.987424009 146.310907449 337.567359864 151 362 c 0
 170 462 223 547 312 618 c 1
 398 689 495 725 597 725 c 0
544 516 m 2
 492 516 l 1
 468 393 l 1
 520 393 l 2
 584 393 608 409 617 454 c 0
 618.16841648 460.42629064 618.78222165 466.297969969 618.78222165 471.63996172 c 0
 618.78222165 502.873912484 597.79872022 516 544 516 c 2
558 575 m 2
 668.176901198 575 721.511686882 543.421046937 721.511686882 480.26314081 c 0
 721.511686882 472.339175196 720.672149049 463.918128259 719 455 c 0
 708 399 666 362 601 351 c 1
 616 346 630 324 652 278 c 1
 697 164 l 1
 596 164 l 1
 549 266 l 2
 536 295 525 314 515 322 c 1
 507 331 495 335 481 335 c 2
 457 335 l 1
 423 164 l 1
 330 164 l 1
 410 575 l 1
 558 575 l 2
EndSplineSet
Validated: 524289
EndChar

StartChar: macron
Encoding: 175 175 135
Width: 519
Flags: W
HStem: 673 72<189 478>
VStem: 175 317
LayerCount: 2
Fore
SplineSet
189 745 m 1
 492 745 l 1
 478 673 l 1
 175 673 l 1
 189 745 l 1
EndSplineSet
Validated: 1
EndChar

StartChar: degree
Encoding: 176 176 136
Width: 521
Flags: W
HStem: 432 71<245.148 351.46> 670 72<270.287 376.19>
VStem: 146.15 84.1664<517.978 628.129> 391.027 84.2402<543.135 654.557>
LayerCount: 2
Fore
SplineSet
327 670 m 0
 284 670 242 633 232 586 c 0
 230.862677063 580.060646883 230.316213732 574.296954731 230.316213732 568.759373857 c 0
 230.316213732 530.47630693 256.433876256 503 294 503 c 0
 338 503 380 539 389 586 c 0
 390.370131196 592.439616621 391.026903784 598.691507292 391.026903784 604.686225535 c 0
 391.026903784 642.444384837 364.971422738 670 327 670 c 0
341 742 m 0
 384 742 423 725 447 696 c 0
 465.126666406 674.096944759 475.267109739 647.059888971 475.267109739 616.612208845 c 0
 475.267109739 606.746667188 474.202500098 596.523056022 472 586 c 0
 464 543 441 506 402 476 c 0
 366 448 324 432 279 432 c 0
 234 432 199 448 174 476 c 1
 155.727460298 498.079318807 146.149860886 524.795939102 146.149860886 555.708531326 c 0
 146.149860886 565.397969551 147.090846567 575.499656121 149 586 c 1
 158 629 181 666 217 696 c 0
 254 727 296 742 341 742 c 0
EndSplineSet
Validated: 524289
EndChar

StartChar: plusminus
Encoding: 177 177 137
Width: 871
Flags: W
HStem: 0 90<64 698> 351 89<132 391 508 766>
LayerCount: 2
Fore
SplineSet
544 627 m 1
 508 440 l 1
 783 440 l 1
 766 351 l 1
 491 351 l 1
 454 164 l 1
 354 164 l 1
 391 351 l 1
 115 351 l 1
 132 440 l 1
 408 440 l 1
 444 627 l 1
 544 627 l 1
64 90 m 1
 715 90 l 1
 698 0 l 1
 47 0 l 1
 64 90 l 1
EndSplineSet
Validated: 1
EndChar

StartChar: twosuperior
Encoding: 178 178 138
Width: 418
Flags: W
HStem: 326 62<164 351> 679 63<148.385 301.708>
VStem: 313.128 98.2825<581.566 666.834>
LayerCount: 2
Fore
SplineSet
164 388 m 1
 363 388 l 1
 351 326 l 1
 48 326 l 1
 59 385 l 1
 72 395 91 409 116 428 c 0
 240 523 306 585 312 615 c 0
 312.757321268 619.1111726 313.128383932 623.081887526 313.128383932 626.894416181 c 0
 313.128383932 658.321490176 287.915128626 679 246 679 c 0
 212 679 168 668 115 647 c 1
 128 713 l 1
 183 734 231 742 269 742 c 0
 357.314850791 742 411.410840913 705.393776958 411.410840913 644.959485523 c 0
 411.410840913 637.647584801 410.618962001 629.986879207 409 622 c 1
 401 577 333 508 207 415 c 1
 188 404 173 395 164 388 c 1
EndSplineSet
Validated: 524289
EndChar

StartChar: threesuperior
Encoding: 179 179 139
Width: 417
Flags: W
HStem: 319 64<70.9251 263.457> 514 61<175 283.525> 679 63<142.771 310.936>
VStem: 294.337 95.409<412.474 500.078> 318.825 97.0613<594.853 669.652>
LayerCount: 2
Fore
SplineSet
315 547 m 1xe8
 363.732634436 536.557292621 389.746490246 507.939562341 389.746490246 467.07794809 c 0
 389.746490246 460.984366412 389.167969466 454.618493639 388 448 c 1
 371 365 297 319 177 319 c 0
 139 319 97 327 53 341 c 1
 66 407 l 1
 97 391 136 383 182 383 c 0
 243 383 285 408 293 448 c 0
 293.893042666 452.80010433 294.337477405 457.350982033 294.337477405 461.648459923 c 0xf0
 294.337477405 495.84838471 266.190549672 514 212 514 c 2
 163 514 l 1
 175 575 l 1
 228 575 l 2
 279 575 311 594 318 629 c 0
 318.55238941 631.946076856 318.825072599 634.773490466 318.825072599 637.479119481 c 0
 318.825072599 664.161769432 292.304690011 679 246 679 c 0
 218 679 187 674 129 661 c 1
 141 724 l 1
 193 736 237 742 274 742 c 0
 362.461698695 742 415.886402195 708.592632489 415.886402195 652.075014118 c 0
 415.886402195 645.981053896 415.265284867 639.61841315 414 633 c 0
 405 591 369 559 315 547 c 1xe8
EndSplineSet
Validated: 524289
EndChar

StartChar: acute
Encoding: 180 180 140
Width: 519
Flags: W
HStem: 616 184
VStem: 244 279
LayerCount: 2
Fore
SplineSet
416 800 m 1
 523 800 l 1
 330 616 l 1
 244 616 l 1
 416 800 l 1
EndSplineSet
Validated: 1
EndChar

StartChar: mu
Encoding: 181 181 141
Width: 661
Flags: W
HStem: -208 21G<-16 93.9245> -18 89<194.554 352.272 484.247 567.614> 527 20G<127.106 237 496.113 611>
LayerCount: 2
Fore
SplineSet
-16 -208 m 1
 131 547 l 1
 237 547 l 1
 171 207 l 2
 167.874176525 191.370882626 166.316501707 177.068660269 166.316501707 164.103806766 c 0
 166.316501707 102.410777333 201.587176216 71 271 71 c 0
 361 71 418 124 438 228 c 2
 500 547 l 1
 611 547 l 1
 529 127 l 2
 526.958333333 116.791666667 525.9375 108.199652778 525.9375 101.149522569 c 0
 525.9375 84.0277777778 531.958333333 76 544 76 c 0
 553 76 565 79 589 86 c 1
 574 7 l 1
 541 -10 513 -18 487 -18 c 0
 441.921106658 -18 417.969975957 6.00882118357 417.969975957 54.9675862372 c 0
 417.969975957 55.9679711422 417.979975942 56.9787730536 418 58 c 1
 376 7 325 -18 261 -18 c 0
 196 -18 158 7 142 57 c 1
 90 -208 l 1
 -16 -208 l 1
EndSplineSet
Validated: 524289
EndChar

StartChar: paragraph
Encoding: 182 182 142
Width: 661
Flags: W
HStem: 661 68<452 529>
LayerCount: 2
Fore
SplineSet
401 729 m 2
 627 729 l 1
 467 -96 l 1
 382 -96 l 1
 529 661 l 1
 452 661 l 1
 305 -96 l 1
 220 -96 l 1
 299 313 l 1
 178.080945208 322.500782877 113.111193267 380.490961558 113.111193267 473.439862409 c 0
 113.111193267 488.107136209 114.728980822 503.644904108 118 520 c 0
 130 584 162 634 213 672 c 1
 266 710 328 729 401 729 c 2
EndSplineSet
Validated: 524289
EndChar

StartChar: periodcentered
Encoding: 183 183 143
Width: 330
Flags: W
HStem: 285 124<127 210>
VStem: 103 131
LayerCount: 2
Fore
SplineSet
127 409 m 1
 234 409 l 1
 210 285 l 1
 103 285 l 1
 127 409 l 1
EndSplineSet
Validated: 1
EndChar

StartChar: cedilla
Encoding: 184 184 144
Width: 520
Flags: W
HStem: -193 68<60.1666 184.094> -20 20G<168 250.806>
VStem: 191.668 83.9037<-117.097 -22.4856>
LayerCount: 2
Fore
SplineSet
238 0 m 1
 263.612040165 -33.0477937609 275.572121924 -61.3174020797 275.572121924 -87.628619368 c 0
 275.572121924 -93.1636638648 275.042830936 -98.6120401647 274 -104 c 0
 263 -162 216 -193 136 -193 c 0
 105 -193 77 -188 50 -180 c 1
 63 -110 l 1
 84 -120 107 -125 139 -125 c 0
 169 -125 186 -110 191 -87 c 1
 191.443445211 -84.0436985901 191.668397472 -80.9344521148 191.668397472 -77.6528826435 c 0
 191.668397472 -58.7339453575 184.191513661 -34.0873971803 168 0 c 1
 238 0 l 1
EndSplineSet
Validated: 524289
EndChar

StartChar: onesuperior
Encoding: 185 185 145
Width: 417
Flags: W
HStem: 326 61<92 190 274 360> 650 64<145 174.263> 714 20G<145 341>
VStem: 80 292
LayerCount: 2
Fore
SplineSet
92 387 m 1xb0
 190 387 l 1
 245 669 l 1
 133 650 l 1
 145 714 l 1xd0
 266 734 l 1
 341 734 l 1
 274 387 l 1
 372 387 l 1
 360 326 l 1
 80 326 l 1
 92 387 l 1xb0
EndSplineSet
Validated: 1
EndChar

StartChar: ordmasculine
Encoding: 186 186 146
Width: 490
Flags: W
HStem: 229 66<68 399> 337 67<206.729 322.005> 675 67<252.131 367.456>
VStem: 84.845 98.8062<427.563 591.707> 389.532 98.0652<488.882 651.519>
LayerCount: 2
Fore
SplineSet
68 295 m 1
 412 295 l 1
 399 229 l 1
 55 229 l 1
 68 295 l 1
327 742 m 0
 428.953843423 742 487.596911059 685.695991478 487.596911059 592.10001633 c 0
 487.596911059 575.533229185 485.759615954 557.798079768 482 539 c 1
 458 413 368 337 248 337 c 0
 144.452541574 337 84.8450168134 392.657249309 84.8450168134 487.677453186 c 0
 84.8450168134 503.692757509 86.5383388613 520.826279022 90 539 c 1
 115 664 206 742 327 742 c 0
314 675 m 0
 254 675 204 621 188 539 c 0
 185.07221754 523.995114895 183.651216158 509.961266484 183.651216158 497.045505674 c 0
 183.651216158 439.378094474 211.979184224 404 261 404 c 0
 320 404 369 457 385 539 c 0
 388.044087718 554.791205039 389.531698048 569.49649562 389.531698048 582.957477506 c 0
 389.531698048 640.248632259 362.584671056 675 314 675 c 0
EndSplineSet
Validated: 524289
EndChar

StartChar: guillemotright
Encoding: 187 187 147
Width: 636
Flags: W
LayerCount: 2
Fore
SplineSet
135 517 m 1
 343 314 l 1
 334 271 l 1
 48 69 l 1
 67 166 l 1
 233 293 l 1
 116 419 l 1
 135 517 l 1
346 517 m 1
 554 314 l 1
 545 271 l 1
 259 69 l 1
 278 166 l 1
 445 293 l 1
 327 419 l 1
 346 517 l 1
EndSplineSet
Validated: 1
EndChar

StartChar: onequarter
Encoding: 188 188 148
Width: 1008
Flags: W
HStem: -14 21G<157 269.27 758 848.778> 90 59<650 775 873 929> 323 61<91 193 281 371> 650 65<145 173.6> 715 27G<145 349 755.73 868>
LayerCount: 2
Fore
SplineSet
91 384 m 1xf0
 193 384 l 1
 249 670 l 1
 133 650 l 1
 145 715 l 1
 272 735 l 1
 349 735 l 1
 281 384 l 1
 383 384 l 1
 371 323 l 1
 79 323 l 1
 91 384 l 1xf0
772 742 m 1xe8
 868 742 l 1
 253 -14 l 1
 157 -14 l 1
 772 742 l 1xe8
824 343 m 1
 650 149 l 1
 786 149 l 1
 824 343 l 1
829 412 m 1
 925 412 l 1
 873 149 l 1
 940 149 l 1
 929 90 l 1
 862 90 l 1
 845 0 l 1
 758 0 l 1
 775 90 l 1
 566 90 l 1
 578 154 l 1
 829 412 l 1
EndSplineSet
Validated: 1
Ligature2: "sous-table Remplacement de ligature lookups11" one fraction four
Ligature2: "sous-table Remplacement de ligature lookups11" one slash four
EndChar

StartChar: onehalf
Encoding: 189 189 149
Width: 1009
Flags: W
HStem: -14 21G<157 268.27> 0 62<683 879> 323 61<91 193 281 370> 357 65<667.893 825.296> 650 65<145 173.6> 715 27G<145 349 754.757 867>
VStem: 837.355 102.713<259.928 343.881>
LayerCount: 2
Fore
SplineSet
91 384 m 1x2a
 193 384 l 1
 249 670 l 1
 133 650 l 1
 145 715 l 1
 271 735 l 1
 349 735 l 1
 281 384 l 1
 382 384 l 1
 370 323 l 1
 79 323 l 1
 91 384 l 1x2a
771 742 m 1x86
 867 742 l 1
 252 -14 l 1
 157 -14 l 1
 771 742 l 1x86
683 62 m 1x52
 891 62 l 1
 879 0 l 1
 563 0 l 1
 574 59 l 1
 587 69 607 84 633 103 c 0
 762 199 830 262 836 292 c 0
 836.910476587 296.438573363 837.354658891 300.708762678 837.354658891 304.791404231 c 0
 837.354658891 336.581329723 810.423330903 357 767 357 c 0
 732 357 686 346 631 325 c 1
 644 392 l 1
 701 413 751 422 791 422 c 0
 883.796591301 422 940.067182878 383.038933628 940.067182878 321.204986839 c 0
 940.067182878 314.406062205 939.386871085 307.330604308 938 300 c 0
 929 254 859 184 728 90 c 1
 708 78 693 69 683 62 c 1x52
EndSplineSet
Validated: 524289
Ligature2: "sous-table Remplacement de ligature lookups11" one fraction two
Ligature2: "sous-table Remplacement de ligature lookups11" one slash two
EndChar

StartChar: threequarters
Encoding: 190 190 150
Width: 1007
Flags: W
HStem: -14 21G<155 268.27 757 847.778> 90 59<649 774 872 928> 314 64<73.1444 271.134> 512 62<179 291.991> 680 62<141.844 319.488>
VStem: 303.604 100.386<410.839 497.9> 327.847 102.935<593.879 669.348>
LayerCount: 2
Fore
SplineSet
325 545 m 1xfa
 376.140407594 534.598561167 403.989927525 506.16546737 403.989927525 464.259350876 c 0
 403.989927525 457.818944737 403.332134306 451.060311823 402 444 c 0
 385 360 307 314 182 314 c 0
 142 314 98 322 52 335 c 1
 65 403 l 1
 98 387 139 378 187 378 c 0
 251 378 294 404 302 444 c 0
 303.070818652 449.354093258 303.603701523 454.396750012 303.603701523 459.126285959 c 0xfc
 303.603701523 494.147480399 274.385289588 512 218 512 c 2
 167 512 l 1
 179 574 l 1
 234 574 l 2
 288 574 320 593 327 628 c 0
 327.565835097 631.112093036 327.84707521 634.099675767 327.84707521 636.958554602 c 0
 327.84707521 664.414644012 301.907484123 680 253 680 c 0
 223 680 190 675 129 661 c 1
 141 725 l 1
 196 736 242 742 281 742 c 0
 373.617871336 742 430.782358022 707.371112666 430.782358022 650.840535744 c 0
 430.782358022 645.114025963 430.195761496 639.162770789 429 633 c 0
 420 590 382 557 325 545 c 1xfa
771 742 m 1
 867 742 l 1
 252 -14 l 1
 155 -14 l 1
 771 742 l 1
823 343 m 1
 649 149 l 1
 785 149 l 1
 823 343 l 1
828 412 m 1
 924 412 l 1
 872 149 l 1
 939 149 l 1
 928 90 l 1
 861 90 l 1
 844 0 l 1
 757 0 l 1
 774 90 l 1
 565 90 l 1
 577 154 l 1
 828 412 l 1
EndSplineSet
Validated: 524289
Ligature2: "sous-table Remplacement de ligature lookups11" three fraction four
Ligature2: "sous-table Remplacement de ligature lookups11" three slash four
EndChar

StartChar: questiondown
Encoding: 191 191 151
Width: 553
Flags: W
HStem: -14 91<184.593 341.219> 599 130<324 413>
VStem: 37.2956 124.939<98.7157 209.185>
LayerCount: 2
Fore
SplineSet
288 536 m 1
 400 536 l 1
 384 457 l 2
 378 423 368 397 355 375 c 0
 342 353 318 329 282 300 c 2
 231 258 l 2
 190 224 170 197 164 167 c 0
 162.816019141 160.843299533 162.234816872 154.88285256 162.234816872 149.158492291 c 0
 162.234816872 106.534433528 194.459079412 77 250 77 c 0
 302 77 369 100 442 142 c 1
 423 43 l 1
 352 5 285 -14 216 -14 c 0
 154 -14 106 2 74 34 c 0
 49.1008548866 58.1446255645 37.2956040154 89.1208481249 37.2956040154 125.21047652 c 0
 37.2956040154 136.9521183 38.5451954889 149.235016542 41 162 c 0
 51 211 80 253 152 310 c 2
 203 351 l 1
 238 381 249 395 257 410 c 0
 264 422 269 439 275 473 c 2
 288 536 l 1
413 599 m 1
 299 599 l 1
 324 729 l 1
 438 729 l 1
 413 599 l 1
EndSplineSet
Validated: 524289
Position2: "sous-table 'cpsp' Chasses pour composition en capitales dans Latin lookup 1" dx=5 dy=0 dh=10 dv=0
EndChar

StartChar: Agrave
Encoding: 192 192 152
Width: 711
Flags: W
HStem: 0 21G<-55 78.027 515.541 640> 185 89<220 471> 712 20G<359.361 501.88>
LayerCount: 2
Fore
SplineSet
413 625 m 1
 220 274 l 1
 471 274 l 1
 413 625 l 1
371 732 m 1
 498 732 l 1
 640 0 l 1
 519 0 l 1
 487 185 l 1
 169 185 l 1
 67 0 l 1
 -55 0 l 1
 371 732 l 1
449 927 m 1
 525 792 l 1
 433 792 l 1
 341 927 l 1
 449 927 l 1
EndSplineSet
Validated: 1
Position2: "sous-table 'cpsp' Chasses pour composition en capitales dans Latin lookup 1" dx=5 dy=0 dh=10 dv=0
EndChar

StartChar: Aacute
Encoding: 193 193 153
Width: 711
Flags: W
HStem: 0 21G<-55 78.087 515.522 640> 184 90<220 471> 712 20G<359.361 501.88>
LayerCount: 2
Fore
SplineSet
413 625 m 1
 220 274 l 1
 471 274 l 1
 413 625 l 1
371 732 m 1
 498 732 l 1
 640 0 l 1
 519 0 l 1
 487 184 l 1
 169 184 l 1
 67 0 l 1
 -55 0 l 1
 371 732 l 1
495 927 m 1
 602 927 l 1
 456 791 l 1
 365 791 l 1
 495 927 l 1
EndSplineSet
Validated: 1
Position2: "sous-table 'cpsp' Chasses pour composition en capitales dans Latin lookup 1" dx=5 dy=0 dh=10 dv=0
EndChar

StartChar: Acircumflex
Encoding: 194 194 154
Width: 711
Flags: W
HStem: 0 21G<-55 78.087 515.522 640> 184 89<220 471> 711 20G<359.345 501.885>
LayerCount: 2
Fore
SplineSet
413 624 m 1
 220 273 l 1
 471 273 l 1
 413 624 l 1
371 731 m 1
 498 731 l 1
 640 0 l 1
 519 0 l 1
 487 184 l 1
 169 184 l 1
 67 0 l 1
 -55 0 l 1
 371 731 l 1
421 928 m 1
 524 928 l 1
 607 789 l 1
 522 789 l 1
 462 875 l 1
 369 789 l 1
 284 789 l 1
 421 928 l 1
EndSplineSet
Validated: 1
Position2: "sous-table 'cpsp' Chasses pour composition en capitales dans Latin lookup 1" dx=5 dy=0 dh=10 dv=0
EndChar

StartChar: Atilde
Encoding: 195 195 155
Width: 711
Flags: W
HStem: 0 21G<-55 78.087 515.522 640> 184 90<220 471> 712 20G<359.361 501.88> 806 69<482.294 554.074> 854 67<365.585 435.69>
VStem: 278 79<806 847.739>
LayerCount: 2
Fore
SplineSet
413 625 m 1xe4
 220 274 l 1
 471 274 l 1
 413 625 l 1xe4
371 732 m 1
 498 732 l 1
 640 0 l 1
 519 0 l 1
 487 184 l 1
 169 184 l 1
 67 0 l 1
 -55 0 l 1
 371 732 l 1
444 827 m 1
 419 843 l 2
 408 851 402 854 395 854 c 0xec
 377 854 364 839 359 814 c 1
 357 806 l 1
 278 806 l 1xf4
 292 875 340 921 402 921 c 0xec
 428 921 444 917 475 901 c 1
 501 886 l 1
 511 879 521 875 528 875 c 0xf4
 543 875 556 891 560 914 c 1
 562 921 l 1
 643 921 l 1xec
 628 852 579 806 518 806 c 0xf4
 493 806 478 810 444 827 c 1
EndSplineSet
Validated: 1
Position2: "sous-table 'cpsp' Chasses pour composition en capitales dans Latin lookup 1" dx=5 dy=0 dh=10 dv=0
EndChar

StartChar: Adieresis
Encoding: 196 196 156
Width: 711
Flags: W
HStem: 0 21G<-55 78.087 515.522 640> 184 90<220 471> 712 20G<359.361 501.88> 807 106<315 410 508 603>
LayerCount: 2
Fore
SplineSet
413 625 m 1
 220 274 l 1
 471 274 l 1
 413 625 l 1
371 732 m 1
 498 732 l 1
 640 0 l 1
 519 0 l 1
 487 184 l 1
 169 184 l 1
 67 0 l 1
 -55 0 l 1
 371 732 l 1
508 913 m 1
 624 913 l 1
 603 807 l 1
 487 807 l 1
 508 913 l 1
315 913 m 1
 431 913 l 1
 410 807 l 1
 294 807 l 1
 315 913 l 1
EndSplineSet
Validated: 1
Position2: "sous-table 'cpsp' Chasses pour composition en capitales dans Latin lookup 1" dx=5 dy=0 dh=10 dv=0
EndChar

StartChar: Aring
Encoding: 197 197 157
Width: 711
Flags: W
HStem: 0 21G<-55 78.087 515.522 640> 184 89<221 470> 857 71<396.378 504.803>
VStem: 295.482 70.4762<735.87 827.165> 516.173 79.3785<750.529 845.506>
LayerCount: 2
Fore
SplineSet
515 790 m 0
 515.79074795 794.179667738 516.173148263 798.27000943 516.173148263 802.237870159 c 0
 516.173148263 833.395013664 492.594404276 857 458 857 c 0
 415 857 375 829 367 790 c 0
 366.297928795 786.188756314 365.957991124 782.457986746 365.957991124 778.829887161 c 0
 365.957991124 746.284024757 393.312723119 722 432 722 c 0
 471 722 508 752 515 790 c 0
413 623 m 1
 221 273 l 1
 470 273 l 1
 413 623 l 1
345 677 m 1
 311.628361885 698.162502219 295.481781469 727.275031069 295.481781469 763.798347907 c 0
 295.481781469 772.147146283 296.325481537 780.883177259 298 790 c 0
 305 828 326 861 360 887 c 0
 394 914 432 928 472 928 c 0
 513 928 544 914 567 887 c 1
 586.766842401 867.233157599 595.551683158 843.420314591 595.551683158 816.440335333 c 0
 595.551683158 807.932630394 594.678157815 799.109999567 593 790 c 0
 584 744 549 703 493 677 c 1
 640 0 l 1
 519 0 l 1
 487 184 l 1
 169 184 l 1
 67 0 l 1
 -55 0 l 1
 345 677 l 1
EndSplineSet
Validated: 524289
Position2: "sous-table 'cpsp' Chasses pour composition en capitales dans Latin lookup 1" dx=5 dy=0 dh=10 dv=0
EndChar

StartChar: AE
Encoding: 198 198 158
Width: 1013
Flags: W
HStem: 0 90<522 883> 184 89<230 423> 343 90<589 925> 639 90<464 513 629 998>
LayerCount: 2
Fore
SplineSet
1015 729 m 1
 998 639 l 1
 629 639 l 1
 589 433 l 1
 943 433 l 1
 925 343 l 1
 571 343 l 1
 522 90 l 1
 900 90 l 1
 883 0 l 1
 388 0 l 1
 423 184 l 1
 175 184 l 1
 60 0 l 1
 -59 0 l 1
 396 729 l 1
 1015 729 l 1
464 644 m 1
 230 273 l 1
 441 273 l 1
 513 644 l 1
 464 644 l 1
EndSplineSet
Validated: 1
Ligature2: "sous-table 'dpng' Dipthongs (Obsolete) dans Latin lookup 9" A e
Ligature2: "sous-table 'dpng' Dipthongs (Obsolete) dans Latin lookup 9" A E
Position2: "sous-table 'cpsp' Chasses pour composition en capitales dans Latin lookup 1" dx=5 dy=0 dh=10 dv=0
EndChar

StartChar: Ccedilla
Encoding: 199 199 159
Width: 726
Flags: W
HStem: -193 71<210.631 340.997> 560 21G<686 719> 650 92<381.983 613.228>
VStem: 54.5592 129.95<166.388 407.171> 348 90.4864<-114.548 -20.323>
LayerCount: 2
Fore
SplineSet
737 670 m 1
 715 560 l 1
 657 619 585 650 497 650 c 0
 337 650 230 548 194 362 c 0
 187.654441597 329.390880431 184.509044829 299.360531887 184.509044829 272.013007616 c 0
 184.509044829 144.210927822 253.20248179 75 385 75 c 0
 473 75 557 106 639 165 c 1
 617 55 l 1
 551.763589493 16.3413863664 484.581230538 -6.74963968316 413.363265658 -14.2730781471 c 1
 430.401100942 -40.3198852554 438.486392677 -63.3264904395 438.486392677 -85.0273973279 c 0
 438.486392677 -90.4234398812 437.986484018 -95.738751905 437 -101 c 0
 425 -161 376 -193 290 -193 c 0
 258 -193 228 -189 199 -180 c 1
 213 -108 l 1
 236 -117 260 -122 294 -122 c 0
 325 -122 343 -108 347 -83 c 0
 347.666666667 -79.5 348 -75.8333333333 348 -71.9583333333 c 0
 348 -57.1949006137 343.16150797 -39.4074103754 333.48452391 -16.2915803101 c 1
 233.394013182 -11.0270789117 158.641497086 23.5098055709 110 85 c 0
 73.0394736842 131.723684211 54.5592105263 191.091759003 54.5592105263 262.425932169 c 0
 54.5592105263 293.382271468 58.0394736842 326.592105263 65 362 c 0
 88 480 139 573 218 640 c 0
 297 707 395 742 509 742 c 0
 601 742 675 719 737 670 c 1
EndSplineSet
Validated: 524289
Position2: "sous-table 'cpsp' Chasses pour composition en capitales dans Latin lookup 1" dx=5 dy=0 dh=10 dv=0
EndChar

StartChar: Egrave
Encoding: 200 200 160
Width: 656
Flags: W
HStem: 0 90<171 527> 344 91<238 569> 641 91<278 642>
LayerCount: 2
Fore
SplineSet
181 732 m 1
 660 732 l 1
 642 641 l 1
 278 641 l 1
 238 435 l 1
 587 435 l 1
 569 344 l 1
 220 344 l 1
 171 90 l 1
 544 90 l 1
 527 0 l 1
 39 0 l 1
 181 732 l 1
434 927 m 1
 509 792 l 1
 418 792 l 1
 326 927 l 1
 434 927 l 1
EndSplineSet
Validated: 1
Position2: "sous-table 'cpsp' Chasses pour composition en capitales dans Latin lookup 1" dx=5 dy=0 dh=10 dv=0
EndChar

StartChar: Eacute
Encoding: 201 201 161
Width: 656
Flags: W
HStem: 0 90<171 527> 344 90<238 569> 641 90<278 642>
LayerCount: 2
Fore
SplineSet
181 731 m 1
 660 731 l 1
 642 641 l 1
 278 641 l 1
 238 434 l 1
 587 434 l 1
 569 344 l 1
 220 344 l 1
 171 90 l 1
 544 90 l 1
 527 0 l 1
 39 0 l 1
 181 731 l 1
479 927 m 1
 586 927 l 1
 441 791 l 1
 349 791 l 1
 479 927 l 1
EndSplineSet
Validated: 1
Position2: "sous-table 'cpsp' Chasses pour composition en capitales dans Latin lookup 1" dx=5 dy=0 dh=10 dv=0
EndChar

StartChar: Ecircumflex
Encoding: 202 202 162
Width: 656
Flags: W
HStem: 0 90<171 527> 344 90<238 569> 640 90<278 642>
LayerCount: 2
Fore
SplineSet
180 730 m 1
 659 730 l 1
 642 640 l 1
 278 640 l 1
 238 434 l 1
 587 434 l 1
 569 344 l 1
 220 344 l 1
 171 90 l 1
 544 90 l 1
 527 0 l 1
 39 0 l 1
 180 730 l 1
406 928 m 1
 508 928 l 1
 591 789 l 1
 506 789 l 1
 447 875 l 1
 353 789 l 1
 269 789 l 1
 406 928 l 1
EndSplineSet
Validated: 1
Position2: "sous-table 'cpsp' Chasses pour composition en capitales dans Latin lookup 1" dx=5 dy=0 dh=10 dv=0
EndChar

StartChar: Edieresis
Encoding: 203 203 163
Width: 656
Flags: W
HStem: 0 90<171 527> 344 90<238 569> 640 91<278 642> 807 106<300 395 492 587>
LayerCount: 2
Fore
SplineSet
181 731 m 1
 660 731 l 1
 642 640 l 1
 278 640 l 1
 238 434 l 1
 587 434 l 1
 569 344 l 1
 220 344 l 1
 171 90 l 1
 544 90 l 1
 527 0 l 1
 39 0 l 1
 181 731 l 1
492 913 m 1
 608 913 l 1
 587 807 l 1
 471 807 l 1
 492 913 l 1
300 913 m 1
 416 913 l 1
 395 807 l 1
 279 807 l 1
 300 913 l 1
EndSplineSet
Validated: 1
Position2: "sous-table 'cpsp' Chasses pour composition en capitales dans Latin lookup 1" dx=5 dy=0 dh=10 dv=0
EndChar

StartChar: Igrave
Encoding: 204 204 164
Width: 306
Flags: W
HStem: 0 21G<39 155.868> 709 20G<176.132 293>
VStem: 39 275
LayerCount: 2
Fore
SplineSet
246 927 m 1
 314 792 l 1
 230 792 l 1
 147 927 l 1
 246 927 l 1
180 729 m 1
 293 729 l 1
 152 0 l 1
 39 0 l 1
 180 729 l 1
EndSplineSet
Validated: 1
Position2: "sous-table 'cpsp' Chasses pour composition en capitales dans Latin lookup 1" dx=5 dy=0 dh=10 dv=0
EndChar

StartChar: Iacute
Encoding: 205 205 165
Width: 307
Flags: W
HStem: 0 21G<39 155.868> 709 20G<176.132 293>
LayerCount: 2
Fore
SplineSet
294 927 m 1
 393 927 l 1
 257 791 l 1
 172 791 l 1
 294 927 l 1
180 729 m 1
 293 729 l 1
 152 0 l 1
 39 0 l 1
 180 729 l 1
EndSplineSet
Validated: 1
Position2: "sous-table 'cpsp' Chasses pour composition en capitales dans Latin lookup 1" dx=5 dy=0 dh=10 dv=0
EndChar

StartChar: Icircumflex
Encoding: 206 206 166
Width: 307
Flags: W
HStem: 0 21G<39 155.868> 709 20G<176.132 293>
LayerCount: 2
Fore
SplineSet
222 928 m 1
 321 928 l 1
 399 789 l 1
 318 789 l 1
 261 875 l 1
 171 789 l 1
 89 789 l 1
 222 928 l 1
180 729 m 1
 293 729 l 1
 152 0 l 1
 39 0 l 1
 180 729 l 1
EndSplineSet
Validated: 1
Position2: "sous-table 'cpsp' Chasses pour composition en capitales dans Latin lookup 1" dx=5 dy=0 dh=10 dv=0
EndChar

StartChar: Idieresis
Encoding: 207 207 167
Width: 307
Flags: W
HStem: 0 21G<39 155.868> 709 20G<176.132 293> 807 106<117 209 305 398>
LayerCount: 2
Fore
SplineSet
305 913 m 1
 419 913 l 1
 398 807 l 1
 284 807 l 1
 305 913 l 1
117 913 m 1
 230 913 l 1
 209 807 l 1
 96 807 l 1
 117 913 l 1
180 729 m 1
 293 729 l 1
 152 0 l 1
 39 0 l 1
 180 729 l 1
EndSplineSet
Validated: 1
Position2: "sous-table 'cpsp' Chasses pour composition en capitales dans Latin lookup 1" dx=5 dy=0 dh=10 dv=0
EndChar

StartChar: Eth
Encoding: 208 208 168
Width: 805
Flags: W
HStem: 0 90<174 427.395> 338 77<22 106 237 388> 639 90<281 530.741>
VStem: 631.505 130.731<320.96 547.657>
LayerCount: 2
Fore
SplineSet
182 729 m 1
 396 729 l 2
 645.233986847 729 762.23563119 647.792094005 762.23563119 470.145583852 c 0
 762.23563119 438.237712415 758.461002192 403.218603066 751 365 c 0
 703 114 547 0 255 0 c 2
 41 0 l 1
 106 338 l 1
 7 338 l 1
 22 415 l 1
 121 415 l 1
 182 729 l 1
281 639 m 1
 237 415 l 1
 403 415 l 1
 388 338 l 1
 222 338 l 1
 174 90 l 1
 287 90 l 2
 482 90 586 175 622 365 c 0
 628.306774773 397.386140728 631.504733871 426.692520132 631.504733871 453.028091283 c 0
 631.504733871 581.195600961 555.761592411 639 394 639 c 2
 281 639 l 1
EndSplineSet
Validated: 524289
Position2: "sous-table 'cpsp' Chasses pour composition en capitales dans Latin lookup 1" dx=5 dy=0 dh=10 dv=0
EndChar

StartChar: Ntilde
Encoding: 209 209 169
Width: 778
Flags: W
HStem: 0 21G<39 152.881 457.433 616.885> 711 20G<177.115 336.501 640.086 755> 806 69<516.305 587.88> 854 67<399.182 469.622>
VStem: 311 80<806 847.739>
LayerCount: 2
Fore
SplineSet
181 731 m 1xc8
 330 731 l 1
 526 128 l 1
 644 731 l 1
 755 731 l 1
 613 0 l 1
 464 0 l 1
 266 603 l 1
 149 0 l 1
 39 0 l 1
 181 731 l 1xc8
478 827 m 1
 453 843 l 2
 441 851 435 854 428 854 c 0xd8
 410 854 398 839 393 814 c 1
 391 806 l 1
 311 806 l 1xe8
 325 875 374 921 435 921 c 0xd8
 462 921 478 917 509 901 c 1
 534 886 l 2
 545 879 555 875 562 875 c 0xe8
 577 875 590 891 594 914 c 1
 596 921 l 1
 677 921 l 1xd8
 662 852 612 806 552 806 c 0xe8
 526 806 511 810 478 827 c 1
EndSplineSet
Validated: 1
Position2: "sous-table 'cpsp' Chasses pour composition en capitales dans Latin lookup 1" dx=5 dy=0 dh=10 dv=0
EndChar

StartChar: Ograve
Encoding: 210 210 170
Width: 818
Flags: W
HStem: -14 91<272.167 458.1> 656 91<375.146 563.717>
VStem: 55.277 129.908<169.208 414.68> 649.325 128.758<318.933 563.919>
LayerCount: 2
Fore
SplineSet
474 656 m 0
 406 656 347 630 296 579 c 1
 246 527 212 456 195 367 c 0
 188.423899791 334.119498956 185.184612388 303.774975644 185.184612388 276.015192765 c 0
 185.184612388 227.791326375 194.960167015 187.367716075 214 155 c 0
 245 103 293 77 361 77 c 0
 428 77 488 103 538 155 c 1
 589 206 622 277 640 367 c 0
 646.184778801 399.379136076 649.325321468 429.375826481 649.325321468 456.94191795 c 0
 649.325321468 505.146289751 639.721873951 545.918146921 620 579 c 0
 590 630 541 656 474 656 c 0
492 747 m 0
 598 747 677 712 726 643 c 1
 760.722222222 595.777777778 778.083333333 536.499228395 778.083333333 466.169045782 c 0
 778.083333333 435.223765432 774.722222222 402.138888889 768 367 c 0
 745 251 695 159 619 89 c 1
 543 21 450 -14 344 -14 c 0
 236 -14 158 21 108 89 c 0
 72.8513513514 137.243243243 55.277027027 195.936084733 55.277027027 265.733229029 c 0
 55.277027027 297.210372535 58.8513513514 330.945945946 66 367 c 0
 88 482 138 575 215 643 c 0
 292 712 384 747 492 747 c 0
504 927 m 1
 579 792 l 1
 488 792 l 1
 396 927 l 1
 504 927 l 1
EndSplineSet
Validated: 524289
Position2: "sous-table 'cpsp' Chasses pour composition en capitales dans Latin lookup 1" dx=5 dy=0 dh=10 dv=0
EndChar

StartChar: Oacute
Encoding: 211 211 171
Width: 818
Flags: W
HStem: -14 91<270.97 459.405> 655 91<375.146 563.717>
VStem: 55.277 129.858<166.253 413.836> 649.325 128.758<318.163 563.037>
LayerCount: 2
Fore
SplineSet
474 655 m 0
 406 655 347 629 296 578 c 1
 246 526 212 455 195 366 c 0
 188.373637744 333.236319957 185.135290669 302.912010845 185.135290669 275.076962032 c 0
 185.135290669 227.300255964 194.675805857 186.857175705 213 154 c 1
 245 103 293 77 361 77 c 0
 428 77 488 103 537 154 c 1
 589 206 622 277 640 366 c 0
 646.184778801 398.379136076 649.325321468 428.375826481 649.325321468 455.94191795 c 0
 649.325321468 504.146289751 639.721873951 544.918146921 620 578 c 0
 590 629 541 655 474 655 c 0
492 746 m 0
 598 746 677 712 726 642 c 1
 760.722222222 594.777777778 778.083333333 535.981481481 778.083333333 465.611111111 c 0
 778.083333333 434.648148148 774.722222222 401.444444444 768 366 c 0
 745 250 695 158 619 89 c 0
 543 21 450 -14 344 -14 c 0
 236 -14 158 21 108 89 c 0
 72.8513513514 136.554054054 55.277027027 195.032688093 55.277027027 264.763254398 c 0
 55.277027027 296.210372535 58.8513513514 329.945945946 66 366 c 0
 88 482 138 574 215 642 c 1
 292 712 384 746 492 746 c 0
549 927 m 1
 655 927 l 1
 511 792 l 1
 419 792 l 1
 549 927 l 1
EndSplineSet
Validated: 524289
Position2: "sous-table 'cpsp' Chasses pour composition en capitales dans Latin lookup 1" dx=5 dy=0 dh=10 dv=0
EndChar

StartChar: Ocircumflex
Encoding: 212 212 172
Width: 818
Flags: W
HStem: -14 91<270.97 459.405> 654 91<372.568 565.469>
VStem: 55.277 129.858<166.253 413.651> 649.325 128.758<318.163 562.32>
LayerCount: 2
Fore
SplineSet
474 654 m 0
 406 654 347 629 296 577 c 0
 246 526 212 455 195 366 c 0
 188.373637744 333.236319957 185.135290669 302.912010845 185.135290669 275.076962032 c 0
 185.135290669 227.300255964 194.675805857 186.857175705 213 154 c 1
 245 103 293 77 361 77 c 0
 428 77 488 103 537 154 c 1
 589 206 622 277 640 366 c 0
 646.184778801 398.379136076 649.325321468 428.375826481 649.325321468 455.893764684 c 0
 649.325321468 504.013931658 639.721873951 544.554336403 620 577 c 1
 590 629 541 654 474 654 c 0
491 745 m 0
 597 745 677 711 726 642 c 0
 760.722222222 594.083333333 778.083333333 535.074845679 778.083333333 464.974537037 c 0
 778.083333333 434.130401235 774.722222222 401.138888889 768 366 c 0
 745 250 695 158 619 89 c 0
 543 21 450 -14 344 -14 c 0
 236 -14 158 21 108 89 c 0
 72.8513513514 136.554054054 55.277027027 195.032688093 55.277027027 264.763254398 c 0
 55.277027027 296.210372535 58.8513513514 329.945945946 66 366 c 0
 88 481 138 573 215 642 c 0
 292 711 383 745 491 745 c 0
475 928 m 1
 578 928 l 1
 660 790 l 1
 576 790 l 1
 517 875 l 1
 423 790 l 1
 339 790 l 1
 475 928 l 1
EndSplineSet
Validated: 524289
Position2: "sous-table 'cpsp' Chasses pour composition en capitales dans Latin lookup 1" dx=5 dy=0 dh=10 dv=0
EndChar

StartChar: Otilde
Encoding: 213 213 173
Width: 818
Flags: W
HStem: -14 91<270.97 459.405> 655 91<375.146 563.717> 806 70<535.423 608.023> 854 67<420.235 490.622>
VStem: 55.277 129.858<166.253 413.836> 333 79<806 848.139> 649.325 128.758<318.163 563.037>
LayerCount: 2
Fore
SplineSet
474 655 m 0xce
 406 655 347 629 296 578 c 1
 246 526 212 455 195 366 c 0
 188.373637744 333.236319957 185.135290669 302.912010845 185.135290669 275.076962032 c 0
 185.135290669 227.300255964 194.675805857 186.857175705 213 154 c 1
 245 103 293 77 361 77 c 0
 428 77 488 103 537 154 c 1
 589 206 622 277 640 366 c 0
 646.184778801 398.379136076 649.325321468 428.375826481 649.325321468 455.94191795 c 0
 649.325321468 504.146289751 639.721873951 544.918146921 620 578 c 0
 590 629 541 655 474 655 c 0xce
492 746 m 0
 598 746 677 711 726 642 c 1
 760.722222222 594.777777778 778.083333333 535.981481481 778.083333333 465.611111111 c 0
 778.083333333 434.648148148 774.722222222 401.444444444 768 366 c 0
 745 250 695 158 619 89 c 0
 543 21 450 -14 344 -14 c 0
 236 -14 158 21 108 89 c 0
 72.8513513514 136.554054054 55.277027027 195.032688093 55.277027027 264.763254398 c 0
 55.277027027 296.210372535 58.8513513514 329.945945946 66 366 c 0
 88 482 138 574 215 642 c 0
 292 711 384 746 492 746 c 0
499 827 m 1
 474 843 l 2
 462 851 456 854 449 854 c 0xde
 431 854 419 839 414 814 c 1
 412 806 l 1
 333 806 l 1xee
 347 876 395 921 456 921 c 0xde
 483 921 499 917 530 901 c 1
 555 887 l 2
 566 880 575 876 582 876 c 0xee
 597 876 610 892 614 914 c 1
 616 921 l 1
 696 921 l 1xde
 681 852 632 806 572 806 c 0xee
 547 806 532 810 499 827 c 1
EndSplineSet
Validated: 524289
Position2: "sous-table 'cpsp' Chasses pour composition en capitales dans Latin lookup 1" dx=5 dy=0 dh=10 dv=0
EndChar

StartChar: Odieresis
Encoding: 214 214 174
Width: 818
Flags: W
HStem: -14 91<270.97 459.405> 655 91<375.146 563.717> 807 106<370 465 562 656>
VStem: 55.277 129.858<166.253 413.836> 649.325 128.758<318.163 563.037>
LayerCount: 2
Fore
SplineSet
474 655 m 0
 406 655 347 629 296 578 c 1
 246 526 212 455 195 366 c 0
 188.373637744 333.236319957 185.135290669 302.912010845 185.135290669 275.076962032 c 0
 185.135290669 227.300255964 194.675805857 186.857175705 213 154 c 1
 245 103 293 77 361 77 c 0
 428 77 488 103 537 154 c 1
 589 206 622 277 640 366 c 0
 646.184778801 398.379136076 649.325321468 428.375826481 649.325321468 455.94191795 c 0
 649.325321468 504.146289751 639.721873951 544.918146921 620 578 c 0
 590 629 541 655 474 655 c 0
492 746 m 0
 598 746 677 711 726 642 c 1
 760.722222222 594.777777778 778.083333333 535.981481481 778.083333333 465.611111111 c 0
 778.083333333 434.648148148 774.722222222 401.444444444 768 366 c 0
 745 250 695 158 619 89 c 0
 543 21 450 -14 344 -14 c 0
 236 -14 158 21 108 89 c 0
 72.8513513514 136.554054054 55.277027027 195.032688093 55.277027027 264.763254398 c 0
 55.277027027 296.210372535 58.8513513514 329.945945946 66 366 c 0
 88 482 138 574 215 642 c 0
 292 711 384 746 492 746 c 0
562 913 m 1
 677 913 l 1
 656 807 l 1
 541 807 l 1
 562 913 l 1
370 913 m 1
 486 913 l 1
 465 807 l 1
 349 807 l 1
 370 913 l 1
EndSplineSet
Validated: 524289
Position2: "sous-table 'cpsp' Chasses pour composition en capitales dans Latin lookup 1" dx=5 dy=0 dh=10 dv=0
EndChar

StartChar: multiply
Encoding: 215 215 175
Width: 870
Flags: W
LayerCount: 2
Fore
SplineSet
768 533 m 1
 503 313 l 1
 683 95 l 1
 601 31 l 1
 420 251 l 1
 155 31 l 1
 97 95 l 1
 361 313 l 1
 182 533 l 1
 264 596 l 1
 445 377 l 1
 710 596 l 1
 768 533 l 1
EndSplineSet
Validated: 1
EndChar

StartChar: Oslash
Encoding: 216 216 176
Width: 819
Flags: W
HStem: -15 91<271.558 459.348> 651 91<372.104 562.511> 741 20G<766.13 809.449>
VStem: 54.9627 127.085<193.638 404.998> 651.25 127.014<322.637 533.123>
LayerCount: 2
Fore
SplineSet
645 534 m 1x98
 228 133 l 1
 258 97 305 76 361 76 c 0
 428 76 488 102 538 153 c 0
 588 204 622 275 639 364 c 0
 647.166666667 404.25 651.25 440.416666667 651.25 472.30150463 c 0
 651.25 495.076388889 649.166666667 515.666666667 645 534 c 1x98
606 594 m 1
 575 631 529 651 473 651 c 0xd8
 406 651 346 626 295 574 c 0
 245 523 211 452 194 364 c 0
 186.244086802 322.237390474 182.047593103 284.390142396 182.047593103 251.520046101 c 0
 182.047593103 229.295243711 183.966087075 209.345825577 188 192 c 1
 606 594 l 1
94 110 m 1
 68.0730360131 153.876400593 54.9626508465 206.149870069 54.9626508465 266.526602081 c 0
 54.9626508465 296.970089114 58.2958789677 329.473776683 65 364 c 0
 88 479 137 570 215 638 c 1
 291 707 383 742 491 742 c 0xd8
 576 742 643 717 691 669 c 1
 787 761 l 1xb8
 842 712 l 1
 739 617 l 1
 765.367116814 573.494257257 778.264252177 521.298203901 778.264252177 461.843955151 c 0
 778.264252177 431.103664741 774.816441593 398.423030045 768 364 c 0
 746 248 695 157 619 88 c 1
 542 20 450 -15 344 -15 c 0
 261 -15 193 9 143 57 c 1
 45 -34 l 1
 -9 14 l 1
 94 110 l 1
EndSplineSet
Validated: 524289
Position2: "sous-table 'cpsp' Chasses pour composition en capitales dans Latin lookup 1" dx=5 dy=0 dh=10 dv=0
EndChar

StartChar: Ugrave
Encoding: 217 217 177
Width: 763
Flags: W
HStem: -14 91<239.25 431.764> 712 20G<166.088 290 627.117 751>
VStem: 72.2005 122.416<121.283 342.68>
LayerCount: 2
Fore
SplineSet
170 732 m 1
 290 732 l 1
 204 289 l 2
 197.799524612 256.92857558 194.616206266 228.880027217 194.616206266 204.600225856 c 0
 194.616206266 115.321921519 237.657139536 77 332 77 c 0
 453 77 516 139 545 289 c 2
 631 732 l 1
 751 732 l 1
 662 277 l 2
 625 84 507 -14 315 -14 c 0
 154.32430259 -14 72.2004938603 55.3521179336 72.2004938603 192.270393776 c 0
 72.2004938603 218.110961414 75.1256586605 246.358165446 81 277 c 2
 170 732 l 1
475 927 m 1
 551 792 l 1
 459 792 l 1
 368 927 l 1
 475 927 l 1
EndSplineSet
Validated: 524289
Position2: "sous-table 'cpsp' Chasses pour composition en capitales dans Latin lookup 1" dx=5 dy=0 dh=10 dv=0
EndChar

StartChar: Uacute
Encoding: 218 218 178
Width: 763
Flags: W
HStem: -14 91<239.25 431.764> 711 20G<166.079 290 627.109 751>
VStem: 72.2005 122.416<121.283 342.547>
LayerCount: 2
Fore
SplineSet
170 731 m 1
 290 731 l 1
 204 289 l 2
 197.799524612 256.92857558 194.616206266 228.880027217 194.616206266 204.600225856 c 0
 194.616206266 115.321921519 237.657139536 77 332 77 c 0
 453 77 516 139 545 289 c 2
 631 731 l 1
 751 731 l 1
 662 277 l 2
 625 84 507 -14 315 -14 c 0
 154.32430259 -14 72.2004938603 55.3521179336 72.2004938603 192.270393776 c 0
 72.2004938603 218.110961414 75.1256586605 246.358165446 81 277 c 2
 170 731 l 1
521 927 m 1
 627 927 l 1
 483 792 l 1
 391 792 l 1
 521 927 l 1
EndSplineSet
Validated: 524289
Position2: "sous-table 'cpsp' Chasses pour composition en capitales dans Latin lookup 1" dx=5 dy=0 dh=10 dv=0
EndChar

StartChar: Ucircumflex
Encoding: 219 219 179
Width: 763
Flags: W
HStem: -14 91<239.224 431.655> 711 20G<166.079 290 627.109 751>
VStem: 72.2005 122.018<122.174 342.547>
LayerCount: 2
Fore
SplineSet
170 731 m 1
 290 731 l 1
 204 289 l 2
 197.526163675 256.415023832 194.21890275 228.021103339 194.21890275 203.526818506 c 0
 194.21890275 114.513670015 237.895345299 77 332 77 c 0
 453 77 515 138 545 289 c 2
 631 731 l 1
 751 731 l 1
 662 277 l 2
 625 84 507 -14 315 -14 c 0
 154.32430259 -14 72.2004938603 55.3521179336 72.2004938603 192.270393776 c 0
 72.2004938603 218.110961414 75.1256586605 246.358165446 81 277 c 2
 170 731 l 1
447 928 m 1
 550 928 l 1
 632 790 l 1
 548 790 l 1
 488 875 l 1
 395 790 l 1
 311 790 l 1
 447 928 l 1
EndSplineSet
Validated: 524289
Position2: "sous-table 'cpsp' Chasses pour composition en capitales dans Latin lookup 1" dx=5 dy=0 dh=10 dv=0
EndChar

StartChar: Udieresis
Encoding: 220 220 180
Width: 763
Flags: W
HStem: -14 91<239.25 431.764> 711 20G<166.079 290 627.109 751> 807 106<342 436 534 628>
VStem: 72.2005 122.416<121.283 342.547>
LayerCount: 2
Fore
SplineSet
170 731 m 1
 290 731 l 1
 204 289 l 2
 197.799524612 256.92857558 194.616206266 228.880027217 194.616206266 204.600225856 c 0
 194.616206266 115.321921519 237.657139536 77 332 77 c 0
 453 77 516 139 545 289 c 2
 631 731 l 1
 751 731 l 1
 662 277 l 2
 625 84 507 -14 315 -14 c 0
 154.32430259 -14 72.2004938603 55.3521179336 72.2004938603 192.270393776 c 0
 72.2004938603 218.110961414 75.1256586605 246.358165446 81 277 c 2
 170 731 l 1
534 913 m 1
 649 913 l 1
 628 807 l 1
 513 807 l 1
 534 913 l 1
342 913 m 1
 457 913 l 1
 436 807 l 1
 321 807 l 1
 342 913 l 1
EndSplineSet
Validated: 524289
Position2: "sous-table 'cpsp' Chasses pour composition en capitales dans Latin lookup 1" dx=5 dy=0 dh=10 dv=0
EndChar

StartChar: Yacute
Encoding: 221 221 181
Width: 636
Flags: W
HStem: 0 21G<195 316.873> 711 20G<77 209.392 575.838 717>
LayerCount: 2
Fore
SplineSet
77 731 m 1
 200 731 l 1
 339 435 l 1
 593 731 l 1
 717 731 l 1
 380 346 l 1
 313 0 l 1
 195 0 l 1
 262 346 l 1
 77 731 l 1
457 927 m 1
 564 927 l 1
 419 791 l 1
 328 791 l 1
 457 927 l 1
EndSplineSet
Validated: 1
Position2: "sous-table 'cpsp' Chasses pour composition en capitales dans Latin lookup 1" dx=5 dy=0 dh=10 dv=0
EndChar

StartChar: Thorn
Encoding: 222 222 182
Width: 629
Flags: W
HStem: 0 21G<39 157.827> 162 90<202 402.506> 512 90<271 443.918> 709 20G<176.132 295>
VStem: 478.522 130.255<331.586 480.891>
LayerCount: 2
Fore
SplineSet
180 729 m 1
 295 729 l 1
 271 602 l 1
 386 602 l 2
 533.449918828 602 608.777700227 546.235460751 608.777700227 438.553155019 c 0
 608.777700227 421.354589832 606.856153642 402.831647303 603 383 c 0
 575 237 471 162 300 162 c 2
 185 162 l 1
 154 0 l 1
 39 0 l 1
 180 729 l 1
253 512 m 1
 202 252 l 1
 317 252 l 2
 401 252 459 299 475 383 c 0
 477.358888377 395.236733456 478.522309994 406.669243819 478.522309994 417.26869046 c 0
 478.522309994 478.563763242 439.61583602 512 368 512 c 2
 253 512 l 1
EndSplineSet
Validated: 524289
Position2: "sous-table 'cpsp' Chasses pour composition en capitales dans Latin lookup 1" dx=5 dy=0 dh=10 dv=0
EndChar

StartChar: germandbls
Encoding: 223 223 183
Width: 656
Flags: W
HStem: -14 86<217.998 421.866> 675 85<315.217 464.491>
VStem: 296.676 115.767<369.687 471.531> 462.34 117.105<113.01 223.155> 487.923 104.053<576.973 651.213>
LayerCount: 2
Fore
SplineSet
139 553 m 2xe8
 165 685 265 760 412 760 c 0
 531.37677549 760 591.97548191 703.372348092 591.97548191 594.972077216 c 0xe8
 591.97548191 575.337073803 589.987261257 554.00343033 586 531 c 1
 488 526 426 490 414 429 c 0
 412.972243623 424.203803573 412.443287632 419.554313141 412.443287632 415.016347167 c 0
 412.443287632 393.061852042 424.823952805 373.717681761 453 353 c 2
 478 335 l 2
 527 299 556 271 567 247 c 1
 575 231.666666667 579.444444444 214.111111111 579.444444444 194.333333333 c 0
 579.444444444 184.444444444 578.333333333 174 576 163 c 0
 554 48 463 -14 319 -14 c 0
 275 -14 229 -5 183 13 c 1
 200 100 l 1
 250 81 295 72 341 72 c 0
 408 72 449 101 460 156 c 0
 461.540659229 163.318131336 462.339558814 170.191206885 462.339558814 176.562086707 c 0xf0
 462.339558814 186.731866114 460.30384635 195.621977686 456 203 c 1
 450 216 434 232 406 251 c 2
 368 278 l 1
 318.99800796 309.851294826 296.675962852 343.703585672 296.675962852 388.272676185 c 0
 296.675962852 398.275763648 297.800398408 408.818691907 300 420 c 0
 316 503 385 562 487 581 c 1
 487.616573169 586.28491288 487.922809626 591.368106897 487.922809626 596.244115042 c 0
 487.922809626 646.725781725 455.09851395 675 394 675 c 0
 317 675 266 630 251 551 c 2
 144 2 l 1
 32 2 l 1
 139 553 l 2xe8
EndSplineSet
Validated: 524289
EndChar

StartChar: agrave
Encoding: 224 224 184
Width: 636
Flags: W
HStem: -14 86<164.444 296.388> 272 80<202.635 423> 479 87<203.457 405.478>
VStem: 25.9586 115.907<93.1522 217.538> 442.883 105.594<352.387 444.224>
LayerCount: 2
Fore
SplineSet
344 272 m 2
 274 272 225 264 196 248 c 0
 169 232 152 207 144 169 c 0
 142.569219382 161.325813047 141.865932372 154.00691367 141.865932372 147.080712068 c 0
 141.865932372 100.757507965 173.324541779 72 229 72 c 0
 323 72 399 146 421 258 c 1
 423 272 l 1
 344 272 l 2
540 315 m 2
 479 2 l 1
 371 2 l 1
 386 82 l 1
 335 16 274 -14 189 -14 c 0
 86.2481980648 -14 25.958636639 38.3195463418 25.958636639 123.150504674 c 0
 25.958636639 135.739279083 27.2863376325 149.04402211 30 163 c 0
 54 288 153 352 323 352 c 2
 439 352 l 1
 440 356 l 1
 441.929927006 366.035620432 442.883176338 375.52496352 442.883176338 384.442471074 c 0
 442.883176338 444.834638387 399.163114363 479 319 479 c 0
 253 479 188 463 126 435 c 1
 144 525 l 1
 217 552 283 566 345 566 c 0
 481.791331249 566 548.477591163 509.641021084 548.477591163 394.074053734 c 0
 548.477591163 370.242205102 545.64173375 343.892515267 540 315 c 2
328 800 m 1
 434 612 l 1
 344 612 l 1
 217 800 l 1
 328 800 l 1
EndSplineSet
Validated: 524289
EndChar

StartChar: aacute
Encoding: 225 225 185
Width: 636
Flags: W
HStem: -14 86<164.444 296.388> 272 80<202.635 423> 479 87<203.457 405.478>
VStem: 25.9586 115.907<93.1522 217.538> 442.883 105.594<352.387 444.224>
LayerCount: 2
Fore
SplineSet
344 272 m 2
 274 272 225 264 196 248 c 0
 169 232 152 207 144 169 c 0
 142.569219382 161.325813047 141.865932372 154.00691367 141.865932372 147.080712068 c 0
 141.865932372 100.757507965 173.324541779 72 229 72 c 0
 323 72 399 146 421 258 c 1
 423 272 l 1
 344 272 l 2
540 315 m 2
 479 2 l 1
 371 2 l 1
 386 82 l 1
 335 16 274 -14 189 -14 c 0
 86.2481980648 -14 25.958636639 38.3195463418 25.958636639 123.150504674 c 0
 25.958636639 135.739279083 27.2863376325 149.04402211 30 163 c 0
 54 288 153 352 323 352 c 2
 439 352 l 1
 440 356 l 1
 441.929927006 366.035620432 442.883176338 375.52496352 442.883176338 384.442471074 c 0
 442.883176338 444.834638387 399.163114363 479 319 479 c 0
 253 479 188 463 126 435 c 1
 144 525 l 1
 217 552 283 566 345 566 c 0
 481.791331249 566 548.477591163 509.641021084 548.477591163 394.074053734 c 0
 548.477591163 370.242205102 545.64173375 343.892515267 540 315 c 2
456 800 m 1
 569 800 l 1
 368 611 l 1
 277 611 l 1
 456 800 l 1
EndSplineSet
Validated: 524289
EndChar

StartChar: acircumflex
Encoding: 226 226 186
Width: 636
Flags: W
HStem: -14 86<164.444 296.388> 271 80<202.635 423> 478 86<199.874 404.847>
VStem: 25.9586 115.907<93.1522 217.156> 442.838 105.213<351.611 442.512>
LayerCount: 2
Fore
SplineSet
344 271 m 2
 274 271 225 264 196 248 c 0
 169 232 152 206 144 169 c 1
 142.569219382 161.325813047 141.865932372 154.00691367 141.865932372 147.080712068 c 0
 141.865932372 100.757507965 173.324541779 72 229 72 c 0
 323 72 399 146 421 258 c 1
 423 271 l 1
 344 271 l 2
540 314 m 1
 479 2 l 1
 371 2 l 1
 386 82 l 1
 335 16 274 -14 189 -14 c 0
 86.2481980648 -14 25.958636639 38.3195463418 25.958636639 123.150504674 c 0
 25.958636639 135.739279083 27.2863376325 149.04402211 30 163 c 0
 54 287 153 351 323 351 c 2
 439 351 l 1
 440 355 l 1
 441.901102488 364.885732939 442.838420798 374.241384579 442.838420798 383.042524887 c 0
 442.838420798 443.683776795 398.339904739 478 318 478 c 0
 252 478 188 462 126 434 c 1
 143 524 l 1
 217 551 282 564 344 564 c 0
 481.380852351 564 548.051076366 507.847442203 548.051076366 391.501922288 c 0
 548.051076366 368.111733351 545.356440756 342.288702743 540 314 c 1
352 800 m 1
 436 800 l 1
 523 610 l 1
 439 610 l 1
 380 726 l 1
 274 610 l 1
 191 610 l 1
 352 800 l 1
EndSplineSet
Validated: 524289
EndChar

StartChar: atilde
Encoding: 227 227 187
Width: 636
Flags: W
HStem: -14 86<164.444 296.388> 272 80<202.635 423> 478 87<202.994 404.847> 632 72<413.465 463.881> 706 71<286.601 338.009>
VStem: 25.9586 115.907<93.1522 217.189> 192 78<632 693.344> 442.838 105.213<352.12 442.883> 481 78<718.508 777>
LayerCount: 2
Fore
SplineSet
344 272 m 2xfe
 274 272 225 264 196 248 c 0
 169 232 152 206 144 169 c 1
 142.569219382 161.325813047 141.865932372 154.00691367 141.865932372 147.080712068 c 0
 141.865932372 100.757507965 173.324541779 72 229 72 c 0
 323 72 399 146 421 258 c 1
 423 272 l 1
 344 272 l 2xfe
540 314 m 1
 479 2 l 1
 371 2 l 1
 386 82 l 1
 335 16 274 -14 189 -14 c 0
 86.2481980648 -14 25.958636639 38.3195463418 25.958636639 123.150504674 c 0
 25.958636639 135.739279083 27.2863376325 149.04402211 30 163 c 0
 54 287 153 352 323 352 c 2
 439 352 l 1
 440 356 l 1
 441.901102488 365.885732939 442.838420798 375.225321509 442.838420798 383.99840735 c 0
 442.838420798 444.446359533 398.339904739 478 318 478 c 0
 252 478 188 462 126 435 c 1
 143 524 l 1
 217 551 282 565 344 565 c 0
 481.380852351 565 548.051076366 508.154200749 548.051076366 391.57659916 c 0xff
 548.051076366 368.139752352 545.356440756 342.288702743 540 314 c 1
357 663 m 1
 334 689 l 1
 326 701 319 706 313 706 c 0
 293 706 281 683 270 632 c 1
 192 632 l 1
 211 725 260 777 324 777 c 0
 352 777 371 768 394 748 c 1
 417 721 l 1
 425 709 431 704 437 704 c 0
 457 704 470 726 481 777 c 1
 559 777 l 1xfe80
 539 684 491 632 426 632 c 0
 399 632 380 641 357 663 c 1
EndSplineSet
Validated: 524289
EndChar

StartChar: adieresis
Encoding: 228 228 188
Width: 636
Flags: W
HStem: -14 86<164.444 296.388> 272 80<202.635 423> 478 87<202.994 404.847> 653 105<234 327 424 517>
VStem: 25.9586 115.907<93.1522 217.189> 442.838 105.213<352.112 442.619>
LayerCount: 2
Fore
SplineSet
344 272 m 2
 274 272 225 264 196 248 c 0
 169 232 152 206 144 169 c 1
 142.569219382 161.325813047 141.865932372 154.00691367 141.865932372 147.080712068 c 0
 141.865932372 100.757507965 173.324541779 72 229 72 c 0
 323 72 399 146 421 258 c 1
 423 272 l 1
 344 272 l 2
540 314 m 1
 479 2 l 1
 371 2 l 1
 386 82 l 1
 335 16 274 -14 189 -14 c 0
 86.2481980648 -14 25.958636639 38.3195463418 25.958636639 123.150504674 c 0
 25.958636639 135.739279083 27.2863376325 149.04402211 30 163 c 0
 54 287 153 352 323 352 c 2
 439 352 l 1
 440 355 l 1
 441.901102488 364.885732939 442.838420798 374.241384579 442.838420798 383.042524887 c 0
 442.838420798 443.683776795 398.339904739 478 318 478 c 0
 252 478 188 462 126 434 c 1
 143 524 l 1
 217 551 282 565 344 565 c 0
 481.380852351 565 548.051076366 508.154200749 548.051076366 391.57659916 c 0
 548.051076366 368.139752352 545.356440756 342.288702743 540 314 c 1
424 758 m 1
 538 758 l 1
 517 653 l 1
 403 653 l 1
 424 758 l 1
234 758 m 1
 348 758 l 1
 327 653 l 1
 213 653 l 1
 234 758 l 1
EndSplineSet
Validated: 524289
EndChar

StartChar: aring
Encoding: 229 229 189
Width: 636
Flags: W
HStem: -14 86<164.444 296.388> 271 80<202.635 423> 478 86<199.874 404.847> 602 71<326.852 418.396> 807 71<344.334 435.829>
VStem: 25.9586 115.907<93.1522 217.156> 234.55 84.0639<681.351 780.516> 442.838 105.213<351.611 442.512> 444.645 85.3545<699.663 798.692>
LayerCount: 2
Fore
SplineSet
344 271 m 2xfe
 274 271 225 264 196 248 c 0
 169 232 152 206 144 169 c 1
 142.569219382 161.325813047 141.865932372 154.00691367 141.865932372 147.080712068 c 0
 141.865932372 100.757507965 173.324541779 72 229 72 c 0
 323 72 399 146 421 258 c 1
 423 271 l 1
 344 271 l 2xfe
540 314 m 1
 479 2 l 1
 371 2 l 1
 386 82 l 1
 335 16 274 -14 189 -14 c 0
 86.2481980648 -14 25.958636639 38.3195463418 25.958636639 123.150504674 c 0
 25.958636639 135.739279083 27.2863376325 149.04402211 30 163 c 0
 54 287 153 351 323 351 c 2
 439 351 l 1
 440 355 l 1
 441.901102488 364.885732939 442.838420798 374.241384579 442.838420798 383.042524887 c 0
 442.838420798 443.683776795 398.339904739 478 318 478 c 0
 252 478 188 462 126 434 c 1
 143 524 l 1
 217 551 282 564 344 564 c 0
 481.380852351 564 548.051076366 507.847442203 548.051076366 391.501922288 c 0xff
 548.051076366 368.111733351 545.356440756 342.288702743 540 314 c 1
443 740 m 0
 444.11313148 745.287374531 444.645452792 750.400506011 444.645452792 755.285517934 c 0xfe80
 444.645452792 785.508753402 424.269191209 807 395 807 c 0
 359 807 328 778 320 740 c 1
 319.067275881 734.803394192 318.613925346 729.802088734 318.613925346 725.036301064 c 0
 318.613925346 694.035335207 337.796866899 673 369 673 c 0
 403 673 436 703 443 740 c 0
527 740 m 0
 520 702 500 669 465 642 c 0
 432 616 396 602 356 602 c 0
 316 602 283 616 261 642 c 0
 243.366666667 662.7 234.55 686.926666667 234.55 714.22937037 c 0
 234.55 722.538888889 235.366666667 731.133333333 237 740 c 0
 245 779 265 811 299 838 c 0
 331 864 369 878 409 878 c 0
 449 878 480 864 503 838 c 0
 521 817.75 530 794.6875 530 767.96875 c 0
 530 759.0625 529 749.75 527 740 c 0
EndSplineSet
Validated: 524289
EndChar

StartChar: ae
Encoding: 230 230 190
Width: 1020
Flags: W
HStem: -14 86<167.882 316.603 587.134 816.881> 249 76<549 857.758> 269 80<204.649 430> 474 86<201.7 412.68 648.487 817.066>
VStem: 25.7884 118.127<94.658 215.316> 858.298 108.146<325.78 434.025>
LayerCount: 2
Fore
SplineSet
855 325 m 1xdc
 857.213613032 337.589924122 858.29791014 349.548196964 858.29791014 360.808614382 c 0
 858.29791014 430.938519508 816.240180765 474 743 474 c 0
 647 474 576 420 549 325 c 1
 855 325 l 1xdc
535 472 m 1
 596 530 670 560 758 560 c 0
 836 560 894 536 931 489 c 1
 954.411636375 456.636855599 966.443936049 415.739208672 966.443936049 366.960022192 c 0
 966.443936049 344.898695274 963.982759353 321.225219224 959 296 c 2
 950 249 l 1
 531 249 l 1xdc
 529.337458695 236.143013911 528.510272787 223.961682921 528.510272787 212.464176518 c 0
 528.510272787 120.227360317 581.746150003 72 684 72 c 0
 756 72 827 88 902 122 c 1
 884 30 l 1
 810 1 736 -14 663 -14 c 0
 554 -14 477 26 442 101 c 1
 378 24 300 -14 206 -14 c 0
 90.0549011944 -14 25.7883644171 35.3986254683 25.7883644171 121.607901656 c 0
 25.7883644171 134.28882308 27.1788885242 147.766210281 30 162 c 0
 54 285 154 349 327 349 c 2
 445 349 l 1xbc
 446 353 l 1
 447.92563424 362.884922433 448.878930852 372.225995005 448.878930852 380.999945365 c 0
 448.878930852 440.571921062 404.932692095 474 323 474 c 0
 256 474 190 459 126 431 c 1
 144 520 l 1
 218 547 285 560 348 560 c 0
 441 560 509 528 535 472 c 1
350 269 m 2xbc
 279 269 228 262 198 246 c 0
 170 230 153 205 146 168 c 0
 144.602816808 160.506017426 143.915495752 153.36696592 143.915495752 146.613583315 c 0
 143.915495752 100.197697142 176.38309915 72 234 72 c 0
 329 72 406 145 427 256 c 1
 430 269 l 1
 350 269 l 2xbc
EndSplineSet
Validated: 524289
Ligature2: "sous-table 'dpng' Dipthongs (Obsolete) dans Latin lookup 9" a e
EndChar

StartChar: ccedilla
Encoding: 231 231 191
Width: 571
Flags: W
HStem: -193 71<130.618 259.674> -16.6628 86.6628<214.882 260.885> 474 86<284.788 487.236>
VStem: 38.2867 119.727<125.631 323.156> 267 88.5618<-113.565 -17.7832>
LayerCount: 2
Fore
SplineSet
545 524 m 1
 528 433 l 1
 479 460 430 474 375 474 c 0
 268 474 189 399 164 272 c 0
 159.985814711 250.758269512 158.013815009 230.971246565 158.013815009 212.746549516 c 0
 158.013815009 122.00947782 206.896576081 70 296 70 c 0
 351 70 406 84 465 110 c 1
 448 21 l 1
 409.23667393 3.62333658953 370.920017138 -7.49995694234 330.661838337 -12.9669284267 c 1
 347.744406071 -38.808026711 355.561774458 -62.1685733407 355.561774459 -83.6277007092 c 0
 355.561774459 -89.2104251475 355.032685319 -94.6644591832 354 -100 c 0
 342 -160 294 -193 209 -193 c 0
 177 -193 148 -188 119 -179 c 1
 133 -107 l 1
 156 -117 179 -122 213 -122 c 0
 244 -122 262 -107 266 -83 c 0
 266.666666667 -79.5 267 -75.8055555556 267 -71.8888888889 c 0
 267 -57.1306975087 262.267269255 -39.2173522986 252.801807766 -16.6627565336 c 1
 175.951899321 -13.4113003392 118.351296733 13.2947284544 80 61 c 0
 52.0777358468 97.2989433992 38.286679336 142.368981197 38.286679336 196.550264525 c 0
 38.286679336 219.986301957 40.8669622651 245.127037741 46 272 c 0
 64 361 102 431 162 482 c 0
 223 534 299 560 387 560 c 0
 446 560 499 548 545 524 c 1
EndSplineSet
Validated: 524289
EndChar

StartChar: egrave
Encoding: 232 232 192
Width: 639
Flags: W
HStem: -14 82<215.394 435.593> 251 77<174 478.014> 479 87<274.362 440.243>
VStem: 38.9873 114.487<126.504 250.338> 478.786 107.894<328.799 439.219>
LayerCount: 2
Fore
SplineSet
579 299 m 1
 569 251 l 1
 156 251 l 1
 154.313822902 237.622995026 153.474285559 224.940992836 153.474285559 212.966777768 c 0
 153.474285559 118.420019279 205.814945941 68 307 68 c 0
 379 68 447 85 521 123 c 1
 504 31 l 1
 431 1 358 -14 286 -14 c 0
 196 -14 128 13 87 68 c 1
 55.1183483751 104.953732565 38.9873120963 149.782772803 38.9873120963 204.389225379 c 0
 38.9873120963 225.145365105 41.3179108551 247.314137267 46 271 c 0
 64 361 102 432 163 486 c 0
 223 539 297 566 383 566 c 0
 461 566 516 541 552 494 c 1
 575.12 461.36 586.68 420.8592 586.68 372.4976 c 0
 586.68 349.7392 584.12 325.24 579 299 c 1
475 328 m 1
 477.54047157 341.748434381 478.785677548 354.759907305 478.785677548 366.947648769 c 0
 478.785677548 436.316263731 438.447081652 479 367 479 c 0
 272 479 202 424 174 328 c 1
 475 328 l 1
357 800 m 1
 464 612 l 1
 373 612 l 1
 246 800 l 1
 357 800 l 1
EndSplineSet
Validated: 524289
EndChar

StartChar: eacute
Encoding: 233 233 193
Width: 639
Flags: W
HStem: -14 82<215.394 435.593> 251 77<174 478.02> 479 87<274.847 440.493>
VStem: 38.9873 114.487<126.504 250.338> 478.792 107.888<328.799 440.183>
LayerCount: 2
Fore
SplineSet
579 299 m 1
 569 251 l 1
 156 251 l 1
 154.313822902 237.622995026 153.474285559 224.940992836 153.474285559 212.966777768 c 0
 153.474285559 118.420019279 205.814945941 68 307 68 c 0
 379 68 447 85 521 123 c 1
 504 31 l 1
 431 1 358 -14 286 -14 c 0
 196 -14 128 13 87 68 c 1
 55.1183483751 104.953732565 38.9873120963 149.782772803 38.9873120963 204.389225379 c 0
 38.9873120963 225.145365105 41.3179108551 247.314137267 46 271 c 0
 64 361 102 432 163 486 c 0
 223 539 297 566 383 566 c 0
 461 566 516 541 552 494 c 1
 575.12 461.36 586.68 420.8592 586.68 372.4976 c 0
 586.68 349.7392 584.12 325.24 579 299 c 1
475 328 m 1
 477.547317468 341.785482768 478.792379142 354.830026894 478.792379142 367.04615902 c 0
 478.792379142 436.356671592 438.712939272 479 369 479 c 0
 273 479 202 424 174 328 c 1
 475 328 l 1
486 800 m 1
 598 800 l 1
 394 611 l 1
 306 611 l 1
 486 800 l 1
EndSplineSet
Validated: 524289
EndChar

StartChar: ecircumflex
Encoding: 234 234 194
Width: 639
Flags: W
HStem: -14 82<212.874 436.012> 251 77<174 478.019> 478 86<273.725 439.463>
VStem: 38.8199 114.654<125.816 250.286> 478.726 107.166<328.593 438.329>
LayerCount: 2
Fore
SplineSet
578 298 m 2
 569 251 l 1
 156 251 l 1
 154.313822902 237.51058322 153.474285559 224.741442051 153.474285559 212.701099388 c 0
 153.474285559 117.632206478 205.814945941 68 307 68 c 0
 379 68 447 85 521 122 c 1
 504 31 l 1
 431 1 358 -14 286 -14 c 0
 196 -14 128 13 87 68 c 1
 54.6318055471 103.964660503 38.8198581997 148.724827281 38.8198581997 202.652650213 c 0
 38.8198581997 223.698179145 41.2279845711 246.139922855 46 270 c 0
 63 360 102 431 163 485 c 0
 223 538 296 564 382 564 c 0
 460 564 515 540 551 492 c 0
 574.566760075 460.3532079 585.892223112 420.545551107 585.892223112 372.882307624 c 0
 585.892223112 349.758836402 583.226623966 324.786447825 578 298 c 2
475 328 m 1
 477.502212433 341.394195963 478.726213943 354.095124986 478.726213943 366.016689768 c 0
 478.726213943 435.09008714 437.636126803 478 366 478 c 0
 271 478 202 423 174 328 c 1
 475 328 l 1
381 800 m 1
 465 800 l 1
 552 610 l 1
 469 610 l 1
 409 726 l 1
 303 610 l 1
 220 610 l 1
 381 800 l 1
EndSplineSet
Validated: 524289
EndChar

StartChar: edieresis
Encoding: 235 235 195
Width: 639
Flags: W
HStem: -14 82<212.874 436.012> 251 77<174 477.967> 478 87<273.725 439.463> 653 105<262 356 453 546>
VStem: 38.9873 114.487<125.246 250.336> 478.726 107.166<328.597 438.66>
LayerCount: 2
Fore
SplineSet
578 298 m 2
 569 251 l 1
 156 251 l 1
 154.313822902 237.51058322 153.474285559 224.741442051 153.474285559 212.701099388 c 0
 153.474285559 117.632206478 205.814945941 68 307 68 c 0
 379 68 447 85 521 122 c 1
 504 31 l 1
 431 1 358 -14 286 -14 c 0
 196 -14 128 13 87 68 c 1
 55.1183483751 104.953732565 38.9873120963 149.782772803 38.9873120963 204.389225379 c 0
 38.9873120963 225.145365105 41.3179108551 247.314137267 46 271 c 0
 63 360 102 431 163 485 c 0
 223 538 296 565 382 565 c 0
 460 565 515 540 551 493 c 1
 574.566760075 460.679871897 585.892223112 420.652260475 585.892223112 372.917165732 c 0
 585.892223112 349.758836402 583.226623966 324.786447825 578 298 c 2
475 328 m 1
 477.502212433 341.54138493 478.726213943 354.346173735 478.726213943 366.337835483 c 0
 478.726213943 435.817373799 437.636126803 478 366 478 c 0
 271 478 202 424 174 328 c 1
 475 328 l 1
453 758 m 1
 567 758 l 1
 546 653 l 1
 432 653 l 1
 453 758 l 1
262 758 m 1
 377 758 l 1
 356 653 l 1
 241 653 l 1
 262 758 l 1
EndSplineSet
Validated: 524289
EndChar

StartChar: igrave
Encoding: 236 236 196
Width: 289
Flags: W
HStem: 0 21G<32 139.862> 529 20G<134.138 242>
VStem: 32 237
LayerCount: 2
Fore
SplineSet
169 800 m 1
 269 612 l 1
 183 612 l 1
 63 800 l 1
 169 800 l 1
138 549 m 1
 242 549 l 1
 136 0 l 1
 32 0 l 1
 138 549 l 1
EndSplineSet
Validated: 1
EndChar

StartChar: iacute
Encoding: 237 237 197
Width: 289
Flags: W
HStem: 0 21G<32 139.862> 529 20G<134.138 242>
LayerCount: 2
Fore
SplineSet
301 800 m 1
 408 800 l 1
 215 611 l 1
 128 611 l 1
 301 800 l 1
138 549 m 1
 242 549 l 1
 136 0 l 1
 32 0 l 1
 138 549 l 1
EndSplineSet
Validated: 1
EndChar

StartChar: icircumflex
Encoding: 238 238 198
Width: 288
Flags: W
HStem: 0 21G<32 139.862> 529 20G<134.138 242>
VStem: 32 329
LayerCount: 2
Fore
SplineSet
195 800 m 1
 277 800 l 1
 361 609 l 1
 280 609 l 1
 222 726 l 1
 118 609 l 1
 37 609 l 1
 195 800 l 1
138 549 m 1
 242 549 l 1
 136 0 l 1
 32 0 l 1
 138 549 l 1
EndSplineSet
Validated: 1
EndChar

StartChar: idieresis
Encoding: 239 239 199
Width: 290
Flags: W
HStem: 0 21G<32 139.862> 529 20G<134.138 242> 652 106<78 171 266 359>
LayerCount: 2
Fore
SplineSet
266 758 m 1
 380 758 l 1
 359 652 l 1
 245 652 l 1
 266 758 l 1
78 758 m 1
 192 758 l 1
 171 652 l 1
 57 652 l 1
 78 758 l 1
138 549 m 1
 242 549 l 1
 136 0 l 1
 32 0 l 1
 138 549 l 1
EndSplineSet
Validated: 1
EndChar

StartChar: eth
Encoding: 240 240 200
Width: 636
Flags: W
HStem: -14 80<199.216 342.487> 458 84<274.14 392.114> 725 20G<517.462 588.444> 740 20G<238 378.03>
VStem: 37.8627 118.278<112.073 317.456> 457.821 117.804<216.491 441.757>
LayerCount: 2
Fore
SplineSet
436 443 m 1xcc
 409 453 384 458 360 458 c 0
 259 458 187 387 163 265 c 0
 158.38927727 241.370046011 156.14063944 219.474748119 156.14063944 199.519729135 c 0
 156.14063944 115.603731863 195.905983342 66 267 66 c 0
 354 66 425 142 449 265 c 0
 454.860791445 295.085396084 457.821011108 322.270220387 457.821011108 346.793064435 c 0
 457.821011108 385.03352875 450.622733688 416.800935476 436 443 c 1xcc
506 561 m 1
 552.551127251 492.281669295 575.624975521 425.74727152 575.624975521 349.697315996 c 0
 575.624975521 322.825012041 572.744050801 294.764626878 567 265 c 0
 551 183 514 117 455 66 c 1
 398 13 330 -14 252 -14 c 0
 173 -14 115 13 77 66 c 0
 51.0237857114 101.805052128 37.8626601211 145.003424658 37.8626601211 195.941154483 c 0
 37.8626601211 217.558108054 40.2329575302 240.568907342 45 265 c 0
 61 347 97 413 153 465 c 1
 210 516 276 542 352 542 c 0
 362 542 373 540 393 534 c 1
 339 612 l 1
 173 562 l 1
 161 617 l 1
 305 660 l 1
 238 760 l 1
 364 760 l 1xdc
 411 693 l 1
 584 745 l 1xec
 596 691 l 1
 445 645 l 1
 506 561 l 1
EndSplineSet
Validated: 524289
EndChar

StartChar: ntilde
Encoding: 241 241 201
Width: 659
Flags: W
HStem: 0 21G<32 140.871 398 511.867> 475 89<320.981 441.909> 529 20G<134.138 243> 632 72<446.991 498.881> 706 71<320.069 371.83>
VStem: 225 78<632 690.492> 467.166 112.905<262.57 451.016> 516 78<718.508 777>
LayerCount: 2
Fore
SplineSet
572 331 m 2xde
 508 0 l 1
 398 0 l 1
 461 328 l 2
 465.125040717 348.418951547 467.165626221 366.668368078 467.165626221 382.774571417 c 0
 467.165626221 444.75828013 436.943601384 475 379 475 c 0xde
 286 475 217 412 197 310 c 2
 137 0 l 1
 32 0 l 1
 138 549 l 1
 243 549 l 1xbe
 227 467 l 1
 281 532 343 564 416 564 c 0
 524.276294863 564 580.070210807 510.171919057 580.070210807 406.379217035 c 0
 580.070210807 383.637882366 577.391751167 358.497930954 572 331 c 2xde
391 662 m 1
 368 689 l 1
 360 701 353 706 347 706 c 0
 327 706 314 683 303 632 c 1
 225 632 l 1
 244 725 293 777 358 777 c 0
 386 777 405 768 428 747 c 1
 451 721 l 1
 459 709 466 704 472 704 c 0
 492 704 505 726 516 777 c 1
 594 777 l 1x9d
 574 684 526 632 461 632 c 0
 433 632 414 640 391 662 c 1
EndSplineSet
Validated: 524289
EndChar

StartChar: ograve
Encoding: 242 242 202
Width: 636
Flags: W
HStem: -14 87<201.619 345.266> 479 87<271.106 413.54>
VStem: 38.6306 119.327<119.452 325.69> 457.957 119.691<226.426 432.48>
LayerCount: 2
Fore
SplineSet
348 479 m 0
 259 479 190 402 165 276 c 0
 160.27997779 251.219883398 157.95800037 228.334995743 157.95800037 207.558325671 c 0
 157.95800037 122.691407736 196.700083287 73 269 73 c 0
 357 73 427 150 451 276 c 0
 455.672504005 300.141270693 457.957100889 322.576893443 457.957100889 343.055971959 c 0
 457.957100889 427.766291644 418.867485315 479 348 479 c 0
365 566 m 0
 500.866334917 566 577.648249739 490.034317022 577.648249739 358.160111758 c 0
 577.648249739 332.794326219 574.80748113 305.360043489 569 276 c 0
 534 95 414 -14 252 -14 c 0
 114.292569827 -14 38.6305589199 62.8517125008 38.6305589199 194.650185734 c 0
 38.6305589199 219.814554542 41.3887808297 246.981980862 47 276 c 0
 83 458 201 566 365 566 c 0
344 800 m 1
 450 612 l 1
 360 612 l 1
 233 800 l 1
 344 800 l 1
EndSplineSet
Validated: 524289
EndChar

StartChar: oacute
Encoding: 243 243 203
Width: 636
Flags: W
HStem: -14 87<201.619 345.266> 479 87<271.106 413.54>
VStem: 38.6306 119.327<119.452 325.69> 457.957 119.691<226.426 432.48>
LayerCount: 2
Fore
SplineSet
348 479 m 0
 259 479 190 402 165 276 c 0
 160.27997779 251.219883398 157.95800037 228.334995743 157.95800037 207.558325671 c 0
 157.95800037 122.691407736 196.700083287 73 269 73 c 0
 357 73 427 150 451 276 c 0
 455.672504005 300.141270693 457.957100889 322.576893443 457.957100889 343.055971959 c 0
 457.957100889 427.766291644 418.867485315 479 348 479 c 0
365 566 m 0
 500.866334917 566 577.648249739 490.034317022 577.648249739 358.160111758 c 0
 577.648249739 332.794326219 574.80748113 305.360043489 569 276 c 0
 534 95 414 -14 252 -14 c 0
 114.292569827 -14 38.6305589199 62.8517125008 38.6305589199 194.650185734 c 0
 38.6305589199 219.814554542 41.3887808297 246.981980862 47 276 c 0
 83 458 201 566 365 566 c 0
472 800 m 1
 584 800 l 1
 384 611 l 1
 293 611 l 1
 472 800 l 1
EndSplineSet
Validated: 524289
EndChar

StartChar: ocircumflex
Encoding: 244 244 204
Width: 636
Flags: W
HStem: -14 87<196.501 347.871> 478 86<267.183 418.648>
VStem: 38.6306 107.845<125.132 324.677> 468.37 108.871<225.736 424.798>
LayerCount: 2
Fore
SplineSet
347 478 m 0
 251 478 177 401 153 275 c 0
 148.62408836 252.208793541 146.475531546 231.013303972 146.475531546 211.589311473 c 0
 146.475531546 124.481029487 189.685976212 73 269 73 c 0
 363 73 438 150 462 275 c 0
 466.284778546 297.138022487 468.370262689 317.841722537 468.370262689 336.91762271 c 0
 468.370262689 424.690092705 424.217950696 478 347 478 c 0
364 564 m 0
 500.392079021 564 577.241590809 488.154110787 577.241590809 355.559650492 c 0
 577.241590809 330.664741009 574.53257552 303.769392705 569 275 c 0
 534 95 414 -14 252 -14 c 0
 114.292569827 -14 38.6305589199 62.8517125008 38.6305589199 194.05816001 c 0
 38.6305589199 219.109492959 41.3887808297 246.14230141 47 275 c 0
 82 457 200 564 364 564 c 0
368 800 m 1
 451 800 l 1
 527 610 l 1
 455 610 l 1
 396 726 l 1
 290 610 l 1
 218 610 l 1
 368 800 l 1
EndSplineSet
Validated: 524289
EndChar

StartChar: otilde
Encoding: 245 245 205
Width: 636
Flags: W
HStem: -14 87<201.619 345.266> 478 87<270.126 412.821> 632 72<428.296 479.828> 706 71<302.316 354.009>
VStem: 38.6306 119.327<119.452 325.379> 208 77<632 690.492> 457.859 119.382<226.426 429.798> 497 77<718.508 777>
LayerCount: 2
Fore
SplineSet
347 478 m 0xfe
 258 478 189 401 165 276 c 0
 160.27997779 251.219883398 157.95800037 228.334995743 157.95800037 207.558325671 c 0
 157.95800037 122.691407736 196.700083287 73 269 73 c 0
 357 73 427 150 451 276 c 0
 455.61072273 299.629953989 457.85936056 321.635974611 457.85936056 341.769896403 c 0
 457.85936056 426.43822609 418.094016658 478 347 478 c 0xfe
364 565 m 0
 500.392079021 565 577.241590809 488.445270701 577.241590809 356.223503809 c 0
 577.241590809 331.398568354 574.53257552 304.611319119 569 276 c 0
 534 95 414 -14 252 -14 c 0
 114.292569827 -14 38.6305589199 62.8517125008 38.6305589199 194.650185734 c 0
 38.6305589199 219.814554542 41.3887808297 246.981980862 47 276 c 0
 82 457 200 565 364 565 c 0
373 663 m 1
 350 689 l 1
 342 701 335 706 329 706 c 0
 309 706 296 683 285 632 c 1
 208 632 l 1
 227 725 276 777 340 777 c 0
 368 777 387 768 410 748 c 1
 432 721 l 1
 440 709 447 704 453 704 c 0
 473 704 486 726 497 777 c 1
 574 777 l 1xfd
 554 684 507 632 442 632 c 0
 414 632 396 641 373 663 c 1
EndSplineSet
Validated: 524289
EndChar

StartChar: odieresis
Encoding: 246 246 206
Width: 636
Flags: W
HStem: -14 87<201.619 345.266> 478 87<270.126 412.821> 653 105<250 343 439 533>
VStem: 38.6306 119.327<119.452 325.379> 457.859 119.382<226.426 429.798>
LayerCount: 2
Fore
SplineSet
347 478 m 0
 258 478 189 401 165 276 c 0
 160.27997779 251.219883398 157.95800037 228.334995743 157.95800037 207.558325671 c 0
 157.95800037 122.691407736 196.700083287 73 269 73 c 0
 357 73 427 150 451 276 c 0
 455.61072273 299.629953989 457.85936056 321.635974611 457.85936056 341.769896403 c 0
 457.85936056 426.43822609 418.094016658 478 347 478 c 0
364 565 m 0
 500.392079021 565 577.241590809 488.445270701 577.241590809 356.223503809 c 0
 577.241590809 331.398568354 574.53257552 304.611319119 569 276 c 0
 534 95 414 -14 252 -14 c 0
 114.292569827 -14 38.6305589199 62.8517125008 38.6305589199 194.650185734 c 0
 38.6305589199 219.814554542 41.3887808297 246.981980862 47 276 c 0
 82 457 200 565 364 565 c 0
439 758 m 1
 554 758 l 1
 533 653 l 1
 418 653 l 1
 439 758 l 1
250 758 m 1
 364 758 l 1
 343 653 l 1
 229 653 l 1
 250 758 l 1
EndSplineSet
Validated: 524289
EndChar

StartChar: divide
Encoding: 247 247 207
Width: 871
Flags: W
HStem: 73 126<342 456> 269 89<116 750> 428 126<411 525>
CounterMasks: 1 e0
LayerCount: 2
Fore
SplineSet
411 554 m 1
 549 554 l 1
 525 428 l 1
 387 428 l 1
 411 554 l 1
342 199 m 1
 480 199 l 1
 456 73 l 1
 318 73 l 1
 342 199 l 1
116 358 m 1
 767 358 l 1
 750 269 l 1
 99 269 l 1
 116 358 l 1
EndSplineSet
Validated: 1
EndChar

StartChar: oslash
Encoding: 248 248 208
Width: 636
Flags: W
HStem: -15 87<197.872 346.079> 474 87<267.707 416.218>
VStem: 37.8708 110.403<163.329 316.025> 464.679 113.707<223.775 382.024>
LayerCount: 2
Fore
SplineSet
462 383 m 1
 185 105 l 1
 205 83 230 72 268 72 c 0
 359 72 431 148 456 273 c 0
 461.785714286 303.857142857 464.678571429 328.928571429 464.678571429 350.339650146 c 0
 464.678571429 362.234693878 463.785714286 373 462 383 c 1
428 441 m 1
 408 463 382 474 347 474 c 0
 252 474 182 397 156 266 c 0
 150.934003354 238.770268029 148.274036897 215.550586374 148.274036897 195.32520996 c 0
 148.274036897 183.611557862 149.166247904 172.902261321 151 163 c 1
 428 441 l 1
62 85 m 1
 46.0858133411 116.828373318 37.8707713274 153.519364306 37.8707713274 195.588870334 c 0
 37.8707713274 219.607419777 40.5485119953 245.379127443 46 273 c 0
 81 454 199 561 364 561 c 0
 421 561 466 544 502 511 c 1
 592 592 l 1
 642 549 l 1
 554 462 l 1
 570.339731526 430.577439373 578.385493595 394.810418554 578.385493595 353.209693212 c 0
 578.385493595 328.614786319 575.573231812 301.980805422 570 273 c 0
 535 93 414 -15 252 -15 c 0
 191 -15 144 2 111 34 c 1
 24 -46 l 1
 -28 -4 l 1
 62 85 l 1
EndSplineSet
Validated: 524289
EndChar

StartChar: ugrave
Encoding: 249 249 209
Width: 659
Flags: W
HStem: -14 89<198.19 319.573> 531 20G<128.073 242 498.077 608>
VStem: 59.0143 113.109<98.9843 288.43>
LayerCount: 2
Fore
SplineSet
67 220 m 2
 132 551 l 1
 242 551 l 1
 178 223 l 2
 174.084856037 202.806099558 172.122909313 184.650317975 172.122909313 168.550154218 c 0
 172.122909313 106.517019619 201.248455436 75 260 75 c 0
 352 75 422 139 441 240 c 2
 502 551 l 1
 608 551 l 1
 501 2 l 1
 395 2 l 1
 411 83 l 1
 356 17 297 -14 224 -14 c 0
 115.490844845 -14 59.0143016016 40.0598565305 59.0143016016 144.846621092 c 0
 59.0143016016 167.531615963 61.661171626 192.594014347 67 220 c 2
349 800 m 1
 456 612 l 1
 365 612 l 1
 237 800 l 1
 349 800 l 1
EndSplineSet
Validated: 524289
EndChar

StartChar: uacute
Encoding: 250 250 210
Width: 659
Flags: W
HStem: -14 89<198.19 319.573> 531 20G<128.073 242 498.077 608>
VStem: 59.0143 113.109<98.9843 288.43>
LayerCount: 2
Fore
SplineSet
67 220 m 2
 132 551 l 1
 242 551 l 1
 178 223 l 2
 174.084856037 202.806099558 172.122909313 184.650317975 172.122909313 168.550154218 c 0
 172.122909313 106.517019619 201.248455436 75 260 75 c 0
 352 75 422 139 441 240 c 2
 502 551 l 1
 608 551 l 1
 501 2 l 1
 395 2 l 1
 411 83 l 1
 356 17 297 -14 224 -14 c 0
 115.490844845 -14 59.0143016016 40.0598565305 59.0143016016 144.846621092 c 0
 59.0143016016 167.531615963 61.661171626 192.594014347 67 220 c 2
478 800 m 1
 591 800 l 1
 389 611 l 1
 298 611 l 1
 478 800 l 1
EndSplineSet
Validated: 524289
EndChar

StartChar: ucircumflex
Encoding: 251 251 211
Width: 659
Flags: W
HStem: -14 89<197.473 319.51> 530 20G<127.133 241 497.129 607>
VStem: 59.0143 113.109<98.6436 290.016>
LayerCount: 2
Fore
SplineSet
67 219 m 2
 131 550 l 1
 241 550 l 1
 178 222 l 2
 174.084856037 201.806099558 172.122909313 183.692778785 172.122909313 167.66003768 c 0
 172.122909313 105.886679227 201.248455436 75 260 75 c 0
 352 75 421 138 441 240 c 2
 501 550 l 1
 607 550 l 1
 501 2 l 1
 395 2 l 1
 411 83 l 1
 356 17 297 -14 224 -14 c 0
 115.490844845 -14 59.0143016016 40.0598565305 59.0143016016 144.291129675 c 0
 59.0143016016 166.855867756 61.661171626 191.771975293 67 219 c 2
373 800 m 1
 457 800 l 1
 545 610 l 1
 461 610 l 1
 401 726 l 1
 295 610 l 1
 211 610 l 1
 373 800 l 1
EndSplineSet
Validated: 524289
EndChar

StartChar: udieresis
Encoding: 252 252 212
Width: 659
Flags: W
HStem: -14 89<197.473 319.51> 530 20G<127.133 241 497.129 607> 653 105<254 348 445 539>
VStem: 59.0143 113.109<98.6436 290.016>
LayerCount: 2
Fore
SplineSet
67 219 m 2
 131 550 l 1
 241 550 l 1
 178 222 l 2
 174.084856037 201.806099558 172.122909313 183.692778785 172.122909313 167.66003768 c 0
 172.122909313 105.886679227 201.248455436 75 260 75 c 0
 352 75 421 138 441 240 c 2
 501 550 l 1
 607 550 l 1
 501 2 l 1
 395 2 l 1
 411 83 l 1
 356 17 297 -14 224 -14 c 0
 115.490844845 -14 59.0143016016 40.0598565305 59.0143016016 144.291129675 c 0
 59.0143016016 166.855867756 61.661171626 191.771975293 67 219 c 2
445 758 m 1
 560 758 l 1
 539 653 l 1
 424 653 l 1
 445 758 l 1
254 758 m 1
 369 758 l 1
 348 653 l 1
 233 653 l 1
 254 758 l 1
EndSplineSet
Validated: 524289
EndChar

StartChar: yacute
Encoding: 253 253 213
Width: 615
Flags: W
HStem: -208 84<-6 111.315> 530 20G<74 189.924 503.369 627>
LayerCount: 2
Fore
SplineSet
272 -50 m 2
 233 -116 199 -159 169 -179 c 0
 139 -198 101 -208 58 -208 c 2
 -22 -208 l 1
 -6 -124 l 1
 55 -124 l 2
 76 -124 95 -118 108 -106 c 1
 123 -95 142 -68 167 -27 c 2
 190 12 l 1
 74 550 l 1
 186 550 l 1
 269 127 l 1
 515 550 l 1
 627 550 l 1
 272 -50 l 2
463 800 m 1
 576 800 l 1
 374 610 l 1
 283 610 l 1
 463 800 l 1
EndSplineSet
Validated: 1
EndChar

StartChar: thorn
Encoding: 254 254 214
Width: 660
Flags: W
HStem: -208 21G<-9 98.8596> -18 86<228.013 371.504> 477 86<313.55 441.196> 740 20G<175.116 283>
VStem: 484.057 117.168<222.051 432.407>
LayerCount: 2
Fore
SplineSet
150 77 m 1
 95 -208 l 1
 -9 -208 l 1
 179 760 l 1
 283 760 l 1
 226 468 l 1
 275 533 337 563 414 563 c 0
 485 563 537 537 569 483 c 0
 590.770932712 447.374837381 601.22569344 405.221114002 601.22569344 355.677418609 c 0
 601.22569344 330.123644839 598.444396261 302.603904669 593 273 c 1
 575 185 541 116 488 62 c 1
 434 9 372 -18 301 -18 c 0
 224 -18 174 13 150 77 c 1
477 273 m 0
 481.735587873 298.059152495 484.057288359 321.171621612 484.057288359 342.129986824 c 0
 484.057288359 427.388796451 445.636177799 477 375 477 c 0
 284 477 213 400 189 273 c 0
 184.151157459 248.367879894 181.785105452 225.579043669 181.785105452 204.845079899 c 0
 181.785105452 118.67742954 222.649786848 68 296 68 c 0
 384 68 452 146 477 273 c 0
EndSplineSet
Validated: 524289
EndChar

StartChar: ydieresis
Encoding: 255 255 215
Width: 615
Flags: W
HStem: -208 84<-6 112.073> 529 20G<74 189.934 503.341 627> 652 106<240 333 430 524>
LayerCount: 2
Fore
SplineSet
272 -50 m 2
 233 -116 199 -158 169 -178 c 1
 137 -198 98 -208 52 -208 c 2
 -22 -208 l 1
 -6 -124 l 1
 55 -124 l 2
 76 -124 95 -118 108 -106 c 1
 123 -95 142 -68 167 -27 c 2
 190 12 l 1
 74 549 l 1
 186 549 l 1
 269 127 l 1
 515 549 l 1
 627 549 l 1
 272 -50 l 2
430 758 m 1
 545 758 l 1
 524 652 l 1
 409 652 l 1
 430 758 l 1
240 758 m 1
 354 758 l 1
 333 652 l 1
 219 652 l 1
 240 758 l 1
EndSplineSet
Validated: 1
EndChar

StartChar: fraction
Encoding: 8260 8260 216
Width: 174
Flags: W
HStem: -14 21G<-256 -145.942> 722 20G<334.942 445>
LayerCount: 2
Fore
SplineSet
351 742 m 1
 445 742 l 1
 -162 -14 l 1
 -256 -14 l 1
 351 742 l 1
EndSplineSet
Validated: 1
EndChar

StartChar: fi
Encoding: 64257 64257 217
Width: 656
Flags: W
HStem: 0 21G<47 159.881 388 498.876> 469 78<67 138 262 479> 637 121<535 618> 676 84<297.948 459>
LayerCount: 2
Fore
SplineSet
601 547 m 1xd0
 495 0 l 1
 388 0 l 1
 479 469 l 1
 247 469 l 1
 156 0 l 1
 47 0 l 1
 138 469 l 1
 52 469 l 1
 67 547 l 1
 153 547 l 1
 160 582 l 1
 183 703 252 760 376 760 c 2
 475 760 l 1
 459 676 l 1
 364 676 l 2
 307 676 283 655 271 592 c 2
 262 547 l 1
 601 547 l 1xd0
535 758 m 1xe0
 642 758 l 1
 618 637 l 1
 511 637 l 1
 535 758 l 1xe0
EndSplineSet
Validated: 1
Ligature2: "sous-table 'liga' Ligatures standard dans Latin lookup 6" f i
EndChar

StartChar: fl
Encoding: 64258 64258 218
Width: 656
Flags: W
HStem: 0 21G<47 159.881 388 498.868> 469 78<67 138 262 395> 676 84<299.579 519>
LayerCount: 2
Fore
SplineSet
381 760 m 2
 642 760 l 1
 495 0 l 1
 388 0 l 1
 519 676 l 1
 364 676 l 2
 307 676 282 653 270 590 c 2
 262 547 l 1
 410 547 l 1
 395 469 l 1
 247 469 l 1
 156 0 l 1
 47 0 l 1
 138 469 l 1
 52 469 l 1
 67 547 l 1
 153 547 l 1
 159 580 l 1
 183 703 251 760 381 760 c 2
EndSplineSet
Validated: 1
Ligature2: "sous-table 'liga' Ligatures standard dans Latin lookup 7" f l
EndChar

StartChar: breve
Encoding: 728 728 219
Width: 521
Flags: W
HStem: 645 74<276.507 405.016>
VStem: 188.351 75.5337<731.971 785>
LayerCount: 2
Fore
SplineSet
190 785 m 1
 264 785 l 1
 263.923133735 783.347375299 263.884672217 781.724292711 263.884672217 780.130922547 c 0
 263.884672217 740.266049332 287.960089762 719 337 719 c 0
 387 719 420 741 435 785 c 1
 509 785 l 1
 484 692 422 645 323 645 c 0
 232.990925582 645 188.350998639 683.077677344 188.350998639 758.503811502 c 0
 188.350998639 766.876043949 188.900998186 775.708439208 190 785 c 1
EndSplineSet
Validated: 524289
EndChar

StartChar: dotaccent
Encoding: 729 729 220
Width: 520
Flags: W
HStem: 658 100<292 376>
VStem: 272 124
LayerCount: 2
Fore
SplineSet
292 758 m 1
 396 758 l 1
 376 658 l 1
 272 658 l 1
 292 758 l 1
EndSplineSet
Validated: 1
EndChar

StartChar: ring
Encoding: 730 730 221
Width: 521
Flags: W
HStem: 610 69<287.884 376.51> 809 69<305.705 393.811>
VStem: 199.537 81.024<685.75 783.818> 402.348 81.4056<704.801 801.224>
LayerCount: 2
Fore
SplineSet
401 744 m 0
 401.91099074 748.685095236 402.34775055 753.251632739 402.34775055 757.65112047 c 0
 402.34775055 787.057041241 382.835470902 809 355 809 c 0
 320 809 289 780 282 744 c 0
 281.031947075 738.744855551 280.561144928 733.70008643 280.561144928 728.908010447 c 0
 280.561144928 699.048538958 298.840264624 679 329 679 c 0
 361 679 394 708 401 744 c 0
481 744 m 0
 474 707 455 675 422 649 c 0
 390 624 354 610 316 610 c 0
 277 610 247 624 225 649 c 0
 208.173892675 668.885399566 199.537145738 692.280525013 199.537145738 718.737989792 c 0
 199.537145738 726.873447422 200.353761422 735.298453229 202 744 c 0
 209 781 230 813 262 839 c 0
 294 865 329 878 368 878 c 0
 406 878 437 865 459 839 c 0
 476.044904126 819.73184751 483.753345373 797.168472826 483.753345373 771.716881358 c 0
 483.753345373 762.824683068 482.812420483 753.57993684 481 744 c 0
EndSplineSet
Validated: 524289
EndChar

StartChar: hungarumlaut
Encoding: 733 733 222
Width: 521
Flags: W
HStem: 616 184
LayerCount: 2
Fore
SplineSet
469 800 m 1
 571 800 l 1
 411 616 l 1
 331 616 l 1
 469 800 l 1
309 800 m 1
 406 800 l 1
 259 616 l 1
 178 616 l 1
 309 800 l 1
EndSplineSet
Validated: 1
EndChar

StartChar: ogonek
Encoding: 731 731 223
Width: 519
Flags: W
HStem: -193 68<172.887 258.323> -20 20G<137.5 230>
VStem: 81.5605 90.5853<-126.932 -61.7454>
LayerCount: 2
Fore
SplineSet
161 0 m 1
 230 0 l 1
 196 -40 177 -68 173 -88 c 0
 172.431457505 -91.2691193458 172.145750508 -94.3564158718 172.145750508 -97.2475320781 c 0
 172.145750508 -114.696961967 182.553390593 -125 204 -125 c 0
 227 -125 248 -119 272 -111 c 1
 258 -182 l 1
 232 -189 206 -193 186 -193 c 0
 115.079744399 -193 81.5604603516 -172.05545593 81.5604603516 -126.931628202 c 0
 81.5604603516 -119.882013486 82.3785739904 -112.242248882 84 -104 c 0
 90 -73 114 -40 161 0 c 1
EndSplineSet
Validated: 524289
EndChar

StartChar: caron
Encoding: 711 711 224
Width: 520
Flags: W
HStem: 616 184
VStem: 190 324
LayerCount: 2
Fore
SplineSet
275 616 m 1
 190 800 l 1
 271 800 l 1
 330 687 l 1
 433 800 l 1
 514 800 l 1
 357 616 l 1
 275 616 l 1
EndSplineSet
Validated: 1
EndChar

StartChar: Lslash
Encoding: 321 321 225
Width: 584
Flags: W
HStem: 0 90<177 516> 709 20G<181.141 301>
LayerCount: 2
Fore
SplineSet
185 729 m 1
 301 729 l 1
 243 432 l 1
 412 539 l 1
 450 479 l 1
 226 344 l 1
 177 90 l 1
 533 90 l 1
 516 0 l 1
 44 0 l 1
 97 275 l 1
 21 223 l 1
 -15 283 l 1
 114 361 l 1
 185 729 l 1
EndSplineSet
Validated: 1
Position2: "sous-table 'cpsp' Chasses pour composition en capitales dans Latin lookup 1" dx=5 dy=0 dh=10 dv=0
EndChar

StartChar: dotlessi
Encoding: 305 305 226
Width: 290
Flags: W
HStem: 0 21G<35 132.876> 527 20G<137.124 235>
VStem: 35 200
LayerCount: 2
Fore
SplineSet
141 547 m 1
 235 547 l 1
 129 0 l 1
 35 0 l 1
 141 547 l 1
EndSplineSet
Validated: 1
EndChar

StartChar: lslash
Encoding: 322 322 227
Width: 296
Flags: W
HStem: 0 21G<34 139.886> 740 20G<177.102 283>
VStem: 3 319
LayerCount: 2
Fore
SplineSet
181 760 m 1
 283 760 l 1
 227 470 l 1
 289 515 l 1
 322 456 l 1
 211 386 l 1
 136 0 l 1
 34 0 l 1
 96 321 l 1
 36 277 l 1
 3 336 l 1
 112 406 l 1
 181 760 l 1
EndSplineSet
Validated: 1
EndChar

StartChar: Zcaron
Encoding: 381 381 228
Width: 713
Flags: W
HStem: 0 89<147 603> 641 90<139 573>
LayerCount: 2
Fore
SplineSet
139 731 m 1
 735 731 l 1
 719 650 l 1
 147 89 l 1
 620 89 l 1
 603 0 l 1
 -16 0 l 1
 -1 80 l 1
 573 641 l 1
 121 641 l 1
 139 731 l 1
397 790 m 1
 314 928 l 1
 399 928 l 1
 459 844 l 1
 552 928 l 1
 637 928 l 1
 500 790 l 1
 397 790 l 1
EndSplineSet
Validated: 1
Position2: "sous-table 'cpsp' Chasses pour composition en capitales dans Latin lookup 1" dx=5 dy=0 dh=10 dv=0
EndChar

StartChar: zcaron
Encoding: 382 382 229
Width: 547
Flags: W
HStem: 0 78<119 439> 470 80<102 410>
LayerCount: 2
Fore
SplineSet
102 550 m 1
 545 550 l 1
 528 462 l 1
 119 78 l 1
 454 78 l 1
 439 0 l 1
 -18 0 l 1
 -2 87 l 1
 410 470 l 1
 87 470 l 1
 102 550 l 1
288 609 m 1
 200 800 l 1
 284 800 l 1
 344 683 l 1
 450 800 l 1
 534 800 l 1
 372 609 l 1
 288 609 l 1
EndSplineSet
Validated: 1
EndChar

StartChar: notequal
Encoding: 8800 8800 231
Width: 871
Flags: W
HStem: 171 89<97 225 437 731> 367 88<135 429 639 769>
LayerCount: 2
Fore
SplineSet
135 455 m 1
 521 455 l 1
 682 608 l 1
 746 554 l 1
 639 455 l 1
 786 455 l 1
 769 367 l 1
 548 367 l 1
 437 260 l 1
 748 260 l 1
 731 171 l 1
 345 171 l 1
 183 19 l 1
 119 73 l 1
 225 171 l 1
 80 171 l 1
 97 260 l 1
 317 260 l 1
 429 367 l 1
 118 367 l 1
 135 455 l 1
EndSplineSet
Validated: 1
EndChar

StartChar: infinity
Encoding: 8734 8734 232
Width: 866
Flags: W
HStem: 110 85<180.172 303.078 504.424 634.193> 408 83<230.03 344.711 561.492 671.619>
VStem: 101.613 62.7472<209.524 343.284> 691.639 62.7227<254.335 389.074>
LayerCount: 2
Fore
SplineSet
466 274 m 1
 485 222 518 195 568 195 c 0
 626 195 677 240 689 303 c 0
 690.783727203 312.21592388 691.639463608 321.012042399 691.639463608 329.309532584 c 0
 691.639463608 376.833292469 663.567803323 408 621 408 c 0
 573 408 529 372 466 274 c 1
390 324 m 1
 372 376 338 402 288 402 c 0
 228 402 179 358 167 295 c 0
 165.216272797 286.081363987 164.360536392 277.472058241 164.360536392 269.277180057 c 0
 164.360536392 222.341128987 192.432196677 189 235 189 c 0
 283 189 329 227 390 324 c 1
420 232 m 1
 358 147 299 108 238 108 c 0
 190 108 154 126 128 162 c 1
 110.290411645 188.210190766 101.613353457 218.434839384 101.613353457 253.029417834 c 0
 101.613353457 267.270783163 103.083835342 282.252710847 106 298 c 0
 128 411 208 489 303 489 c 0
 364 489 404 450 434 364 c 1
 496 450 554 491 618 491 c 0
 664 491 700 472 727 436 c 1
 745.480854194 409.700322878 754.362155928 379.358728931 754.362155928 344.616092795 c 0
 754.362155928 330.480655978 752.891979156 315.616687444 750 300 c 0
 727 185 649 110 554 110 c 0
 493 110 454 144 420 232 c 1
EndSplineSet
Validated: 524289
EndChar

StartChar: lessequal
Encoding: 8804 8804 233
Width: 871
Flags: W
HStem: 0 90<64 698>
LayerCount: 2
Fore
SplineSet
793 489 m 1
 296 360 l 1
 742 231 l 1
 724 137 l 1
 108 315 l 1
 125 405 l 1
 811 582 l 1
 793 489 l 1
64 90 m 1
 715 90 l 1
 698 0 l 1
 47 0 l 1
 64 90 l 1
EndSplineSet
Validated: 1
EndChar

StartChar: greaterequal
Encoding: 8805 8805 234
Width: 871
Flags: W
HStem: 0 90<64 698>
LayerCount: 2
Fore
SplineSet
142 489 m 1
 160 582 l 1
 776 405 l 1
 759 315 l 1
 73 137 l 1
 91 231 l 1
 587 360 l 1
 142 489 l 1
715 90 m 1
 698 0 l 1
 47 0 l 1
 64 90 l 1
 715 90 l 1
EndSplineSet
Validated: 1
EndChar

StartChar: partialdiff
Encoding: 8706 8706 235
Width: 538
Flags: W
HStem: -12 39<136.331 226.028> 353 47<226.993 320.785> 579 68<322.123 405.07>
VStem: 19.2477 105.083<53.2285 200.143> 413.272 92.2041<386.858 566.289>
LayerCount: 2
Fore
SplineSet
374 309 m 1
 386 363 398 414 407 460 c 0
 411.188323523 481.779282322 413.271600574 500.673871329 413.271600574 516.596689337 c 0
 413.271600574 557.699616544 399.389580407 579 372 579 c 0
 356 579 336 569 314 551 c 1
 284 531 262 523 248 523 c 0
 220.786077483 523 203.446789349 538.634837774 203.446789349 558.707532697 c 0
 203.446789349 560.762513316 203.628523002 562.864007263 204 565 c 0
 208 586 225 606 255 623 c 0
 284 639 314 647 349 647 c 0
 411 647 455 622 482 570 c 0
 497.800074019 539.615242271 505.475693219 502.583203325 505.475693219 458.903883163 c 0
 505.475693219 430.70617776 502.276877527 399.738216706 496 366 c 0
 475 258 432 169 371 97 c 1
 308 25 241 -12 169 -12 c 0
 117 -12 77 6 49 41 c 0
 29.0444426156 66.6571452085 19.2476676425 96.8857425021 19.2476676425 131.685791881 c 0
 19.2476676425 145.714315106 20.8396832582 160.485717813 24 176 c 0
 37 242 66 295 111 336 c 0
 157 378 207 400 263 400 c 0
 327 400 362 372 374 309 c 1
327 243 m 1
 329.858571439 258.39230775 331.266593055 272.334065677 331.266593055 284.718953259 c 0
 331.266593055 328.657142426 313.544725239 353 280 353 c 0
 249 353 220 333 193 294 c 1
 163 253 141 200 129 136 c 0
 125.860496219 120.078230824 124.330214314 105.815971708 124.330214314 93.2696083454 c 0
 124.330214314 49.8679304516 142.642761614 27 176 27 c 0
 207 27 234 46 262 86 c 1
 292 127 314 179 327 243 c 1
EndSplineSet
Validated: 524289
EndChar

StartChar: summation
Encoding: 8721 8721 236
Width: 701
Flags: W
HStem: -192 100<104 579> 619 100<253 724>
LayerCount: 2
Fore
SplineSet
103 719 m 1
 743 719 l 1
 724 619 l 1
 253 619 l 1
 519 275 l 1
 104 -92 l 1
 599 -92 l 1
 579 -192 l 1
 -89 -192 l 1
 -74 -114 l 1
 357 272 l 1
 86 628 l 1
 103 719 l 1
EndSplineSet
Validated: 1
EndChar

StartChar: product
Encoding: 8719 8719 237
Width: 787
Flags: W
HStem: 612 107<269 627>
LayerCount: 2
Fore
SplineSet
155 719 m 1
 783 719 l 1
 606 -192 l 1
 471 -192 l 1
 627 612 l 1
 269 612 l 1
 113 -192 l 1
 -22 -192 l 1
 155 719 l 1
EndSplineSet
Validated: 1
EndChar

StartChar: pi
Encoding: 960 960 238
Width: 612
Flags: W
HStem: -8 83<350.597 455.429> 438 85<109.637 165 271 415 520 610>
VStem: -7 96<375 416.612> 275.463 117.261<70.4228 161.22>
LayerCount: 2
Fore
SplineSet
610 438 m 1
 520 438 l 1
 427 209 l 1
 407 163 398 134 395 120 c 0
 393.489131462 112.877334035 392.723642104 106.732978244 392.723642104 101.476436827 c 0
 392.723642104 82.3789136833 402.82763579 75 424 75 c 0
 438 75 455 76 484 78 c 1
 454 2 l 1
 430 -4 408 -8 388 -8 c 0
 313.194571912 -8 275.462798705 19.2377872598 275.462798705 70.4227701512 c 0
 275.462798705 78.0825615115 276.307797269 86.2786474642 278 95 c 0
 281 110 287 129 294 152 c 0
 302 175 317 213 338 264 c 1
 415 438 l 1
 271 438 l 1
 90 2 l 1
 -16 2 l 1
 165 438 l 1
 154 438 l 2
 124 438 102 418 89 375 c 1
 -7 375 l 1
 13 432 38 471 65 492 c 1
 94 513 138 523 196 523 c 2
 644 523 l 1
 610 438 l 1
EndSplineSet
Validated: 524289
EndChar

StartChar: integral
Encoding: 8747 8747 239
Width: 542
Flags: W
LayerCount: 2
Fore
SplineSet
77 -116 m 1
 105 -116 141 -8 186 209 c 0
 194 244 199 271 204 289 c 1
 240 455 280 575 325 646 c 0
 373 721 433 757 502 757 c 0
 553.370314146 757 586.69814582 732.681871451 586.69814582 694.467443355 c 0
 586.69814582 689.535613414 586.143049285 684.372331641 585 679 c 1
 578 641 546 617 504 617 c 0
 470 617 452 631 447 657 c 0
 446.292893219 660.535533906 445.585786438 665.571067812 445.585786438 672.106601718 c 0
 445.585786438 674.813708499 445.707106781 677.778174593 446 681 c 1
 448 690 449 694 450 694 c 1
 423 694 389 596 348 402 c 0
 335 340 323 291 315 256 c 0
 280 101 240 -11 195 -78 c 0
 150 -146 92 -181 24 -181 c 0
 -28.6840682108 -181 -61.4341300783 -156.281832134 -61.4341300783 -118.237545758 c 0
 -61.4341300783 -113.676677057 -60.9634472221 -108.924285802 -60 -104 c 0
 -52 -64 -20 -40 27 -40 c 0
 52 -40 69 -50 78 -71 c 0
 79.9372539332 -74.2287565553 81.0405183549 -79.9594816451 81.0405183549 -87.3843505386 c 0
 81.0405183549 -91.4575131106 80.7084973779 -96.0405183549 80 -101 c 0
 78 -112 77 -116 77 -116 c 1
EndSplineSet
Validated: 524289
EndChar

StartChar: Omega
Encoding: 8486 8486 240
Width: 796
Flags: W
HStem: 0 93<-5 151 556 693> 643 95<352.825 555.96>
VStem: 49.3316 128.999<216.852 444.664> 644.001 129.107<341.942 553.287>
LayerCount: 2
Fore
SplineSet
711 93 m 1
 693 0 l 1
 378 0 l 1
 396 93 l 1
 523 154 612 264 637 394 c 0
 641.657373434 417.286867171 644.001026623 439.224064199 644.001026623 459.751725199 c 0
 644.001026623 505.337490435 632.443286882 543.972120303 609 575 c 1
 576 621 526 643 459 643 c 0
 391 643 332 621 282 575 c 0
 232 530 200 469 185 394 c 0
 180.531083209 370.761632688 178.330896702 348.162344329 178.330896702 326.367782381 c 0
 178.330896702 226.239275676 224.769450521 143.09584303 311 93 c 1
 293 0 l 1
 -23 0 l 1
 -5 93 l 1
 151 93 l 1
 81.6435671615 162.356432839 49.3315985751 231.712865677 49.3315985751 314.793535946 c 0
 49.3315985751 338.324168354 51.9235725313 362.955719943 57 389 c 0
 77 492 125 576 203 640 c 0
 282 705 374 738 478 738 c 0
 583 738 661 705 714 641 c 0
 753.405405405 594.297297297 773.108108108 538.009495982 773.108108108 471.748010977 c 0
 773.108108108 447.206720234 770.405405405 421.297297297 765 394 c 0
 741 269 679 183 556 93 c 1
 711 93 l 1
EndSplineSet
Validated: 524289
EndChar

StartChar: radical
Encoding: 8730 8730 241
Width: 662
Flags: W
HStem: -20 21G<195.628 257.392> 756 55<688 745>
LayerCount: 2
Fore
SplineSet
649 811 m 1
 756 811 l 1
 745 756 l 1
 688 756 l 1
 246 -20 l 1
 199 -20 l 1
 127 407 l 1
 60 385 l 1
 51 431 l 1
 216 481 l 1
 271 140 l 1
 649 811 l 1
EndSplineSet
Validated: 1
EndChar

StartChar: approxequal
Encoding: 8776 8776 242
Width: 871
Flags: W
HStem: 143 91<462.593 639.555> 207 91<188.15 367.97> 328 91<498.593 675.555> 392 91<227.291 403.97>
LayerCount: 2
Fore
SplineSet
758 309 m 1x80
 739 216 l 1
 658 165 596 143 529 143 c 0x80
 491 143 450 153 404 171 c 0
 401 172 397 174 396 175 c 0
 394 176 391 176 386 178 c 0
 341 198 303 207 273 207 c 0
 212 207 150 185 72 133 c 1
 90 225 l 1
 172 277 234 298 301 298 c 0x40
 339 298 380 288 427 270 c 0
 432 269 435 267 436 266 c 0
 438 265 441 265 445 263 c 0
 490 243 527 234 558 234 c 0
 618 234 676 256 758 309 c 1x80
794 494 m 1
 775 401 l 1
 694 350 632 328 565 328 c 0x20
 527 328 486 338 440 356 c 0
 437 357 433 359 431 360 c 0
 430 361 427 361 422 363 c 0
 377 383 339 392 309 392 c 0
 248 392 186 370 108 317 c 1
 126 410 l 1
 208 461 270 483 337 483 c 0x10
 375 483 416 473 463 455 c 0
 467 454 470 452 472 451 c 0
 474 450 477 450 481 448 c 0
 526 428 563 419 594 419 c 0x20
 654 419 712 441 794 494 c 1
EndSplineSet
Validated: 1
EndChar

StartChar: increment
Encoding: 57356 57356 243
Width: 696
Flags: W
HStem: 0 92<105 497>
LayerCount: 2
Fore
SplineSet
401 606 m 1
 105 92 l 1
 497 92 l 1
 401 606 l 1
362 719 m 1
 486 719 l 1
 636 0 l 1
 -66 0 l 1
 362 719 l 1
EndSplineSet
Validated: 1
EndChar

StartChar: lozenge
Encoding: 9674 9674 245
Width: 514
Flags: W
LayerCount: 2
Fore
SplineSet
325 677 m 1
 75 289 l 1
 173 -104 l 1
 424 289 l 1
 325 677 l 1
350 807 m 1
 504 289 l 1
 148 -233 l 1
 -4 289 l 1
 350 807 l 1
EndSplineSet
Validated: 1
EndChar

StartChar: middot
Encoding: 57357 57357 246
Width: 330
Flags: W
HStem: 285 124<127 210>
VStem: 103 131
LayerCount: 2
Fore
SplineSet
127 409 m 1
 234 409 l 1
 210 285 l 1
 103 285 l 1
 127 409 l 1
EndSplineSet
Validated: 1
EndChar

StartChar: overscore
Encoding: 57359 57359 247
Width: 519
Flags: W
HStem: 673 72<189 478>
VStem: 175 317
LayerCount: 2
Fore
SplineSet
189 745 m 1
 492 745 l 1
 478 673 l 1
 175 673 l 1
 189 745 l 1
EndSplineSet
Validated: 1
EndChar

StartChar: Gbreve
Encoding: 286 286 248
Width: 806
Flags: W
HStem: -14 92<281.827 528.043> 299 88<455 599> 654 92<384.791 633.544> 802 75<443.403 586.808>
VStem: 55.1176 130.015<169.729 409.368> 357.931 75.0688<890.071 928>
LayerCount: 2
Fore
SplineSet
562 112 m 1
 599 299 l 1
 438 299 l 1
 455 387 l 1
 733 387 l 1
 671 70 l 1
 580 14 479 -14 371 -14 c 0
 252 -14 165 20 111 87 c 0
 74.0830165722 133.668639428 55.1176015389 192.46671696 55.1176015389 264.408079235 c 0
 55.1176015389 295.749592388 58.7171245711 329.585622855 66 366 c 0
 89 486 141 578 220 645 c 0
 300 713 400 746 519 746 c 0
 618 746 702 721 768 675 c 1
 746 563 l 1
 681 622 604 654 509 654 c 0
 337 654 232 557 195 366 c 0
 188.423888415 332.053045603 185.133025429 301.075450516 185.133025429 273.084057901 c 0
 185.133025429 143.583973463 255.570032232 78 397 78 c 0
 462 78 517 89 562 112 c 1
359 928 m 1
 433 928 l 1
 433 895 460 877 512 877 c 0
 561 877 593 894 610 928 c 1
 685 928 l 1
 662 845 595 802 497 802 c 0
 405.84853777 802 357.931239646 838.452334442 357.931239646 909.015436317 c 0
 357.931239646 915.091226619 358.286496566 921.419912779 359 928 c 1
EndSplineSet
Validated: 524289
EndChar

StartChar: gbreve
Encoding: 287 287 249
Width: 660
Flags: W
HStem: -208 85<89.9331 300.849> -2 86<199.028 325.288> 478 86<267.511 411.935> 530 20G<496.296 608> 637 78<346.898 473.536>
VStem: 39.2903 117.753<127.302 330.706> 256.071 76.687<729.269 784.694>
LayerCount: 2
Fore
SplineSet
448 281 m 0xee
 452.657509503 305.063799099 454.942413328 327.206917411 454.942413328 347.268568206 c 0
 454.942413328 430.583973056 415.534339364 478 343 478 c 0
 255 478 188 405 164 281 c 0
 159.327495995 256.858729307 157.042899111 234.650526283 157.042899111 214.537735587 c 0
 157.042899111 131.342540633 196.132514685 84 267 84 c 0
 357 84 424 157 448 281 c 0xee
515 71 m 2
 479 -118 378 -208 201 -208 c 0
 135 -208 79 -198 28 -176 c 1
 47 -82 l 1
 97 -109 148 -123 204 -123 c 0
 314 -123 381 -64 404 55 c 1
 412 93 l 1
 364 30 303 -2 228 -2 c 0
 157 -2 104 24 71 75 c 1
 49.95500762 109.198112618 39.2902895589 150.316408114 39.2902895589 198.923773975 c 0
 39.2902895589 224.226423354 42.1801522019 251.558417021 48 281 c 0
 65 367 99 435 151 486 c 0
 204 538 267 564 338 564 c 0xee
 413 564 462 533 485 469 c 1
 500 550 l 1
 608 550 l 1xde
 515 71 l 2
258 785 m 1
 333 785 l 1
 332.838821814 782.52860115 332.758465341 780.120705075 332.758465341 777.776621933 c 0
 332.758465341 736.49042478 357.686303097 715 405 715 c 0
 456 715 490 738 506 785 c 1
 581 785 l 1
 555 686 491 637 390 637 c 0
 300.714285714 637 256.071428571 676.0625 256.071428571 754.899280248 c 0
 256.071428571 764.359693878 256.714285714 774.392857143 258 785 c 1
EndSplineSet
Validated: 524289
EndChar

StartChar: Idot
Encoding: 57345 57345 250
Width: 307
Flags: W
HStem: 0 21G<39 145.885> 711 20G<177.115 284> 807 107<216 299>
VStem: 39 281
LayerCount: 2
Fore
SplineSet
181 731 m 1
 284 731 l 1
 142 0 l 1
 39 0 l 1
 181 731 l 1
216 914 m 1
 320 914 l 1
 299 807 l 1
 195 807 l 1
 216 914 l 1
EndSplineSet
Validated: 1
EndChar

StartChar: Scedilla
Encoding: 350 350 251
Width: 660
Flags: W
HStem: -193 71<129.503 258.674> -17 91<136.554 259.872> 651 91<305.365 533.484>
VStem: 104.161 124.984<465.022 582.956> 266 88.4909<-114.548 -19.2302> 453.161 129.821<148.921 274.786>
LayerCount: 2
Fore
SplineSet
627 703 m 1
 607 599 l 1
 537 634 471 651 409 651 c 0
 309 651 246 610 232 538 c 0
 230.140126736 528.700633678 229.145035611 520.193984318 229.145035611 512.386974073 c 0
 229.145035611 469.822744119 258.723996676 448.055200665 339 432 c 2
 397 421 l 2
 523.707735497 396.172132909 582.982754522 341.29272913 582.982754522 250.086636781 c 0
 582.982754522 234.760151503 581.308932997 218.407864898 578 201 c 0
 554.308031768 80.0017336737 469.043863476 7.68846274419 328.265496008 -11.6992123487 c 1
 345.960712695 -38.7793975958 354.490866988 -62.5630152155 354.49086701 -84.9547896722 c 0
 354.49086701 -90.3757610825 353.990908339 -95.7151555228 353 -101 c 0
 341 -161 293 -193 208 -193 c 0
 176 -193 146 -189 118 -180 c 1
 132 -108 l 1
 155 -117 178 -122 212 -122 c 0
 243 -122 261 -108 265 -83 c 0
 265.666666667 -79.5 266 -75.8333333333 266 -71.9583333333 c 0
 266 -57.341101753 261.256863898 -39.7594101091 251.770591696 -16.9767578127 c 1
 249.854921305 -16.9922501415 247.931387238 -16.9999999822 246 -17 c 0
 176 -17 97 -1 19 32 c 1
 40 140 l 1
 113 97 187 74 264 74 c 0
 367 74 435 117 450 195 c 0
 452.096315687 205.182104767 453.161259869 214.601891465 453.161259869 223.323148175 c 0
 453.161259869 272.845787972 418.823158536 299.844999861 344 316 c 2
 286 328 l 1
 160.408935781 352.776468451 104.161476731 400.910782855 104.161476731 484.251837319 c 0
 104.161476731 498.458606678 105.795941584 513.688429881 109 530 c 0
 134 662 249 742 416 742 c 0
 486 742 555 729 627 703 c 1
EndSplineSet
Validated: 8912897
EndChar

StartChar: scedilla
Encoding: 351 351 252
Width: 541
Flags: W
HStem: -193 71<67.6188 196.137> -17 86<80.3326 197.945> 474 86<217.463 444.167>
VStem: 65.5626 113.064<351.42 438.425> 204 78.7921<-113.565 -18.038> 342.468 117.556<107.747 194.671>
LayerCount: 2
Fore
SplineSet
497 529 m 1
 479 437 l 1
 431 461 377 474 316 474 c 0
 236 474 190 450 180 400 c 0
 179.112308191 395.181101606 178.626655539 390.667752971 178.626655539 386.421206379 c 0
 178.626655539 357.181101606 201.652301713 340.590550803 275 324 c 2
 305 317 l 2
 414.134370705 292.274244137 460.024292825 255.190377631 460.024292825 189.013678534 c 0
 460.024292825 177.573972921 458.65297912 165.264895598 456 152 c 0
 439.659990527 67.0319507427 368.585819594 8.09600266782 262.955047279 -10.6290182551 c 1
 276.273364553 -36.3575553012 282.792078945 -59.6382844574 282.79207895 -81.0329827333 c 0
 282.79207895 -87.5236809071 282.192104921 -93.8407912393 281 -100 c 0
 269 -160 224 -193 146 -193 c 0
 114 -193 85 -188 56 -179 c 1
 70 -107 l 1
 93 -117 117 -122 150 -122 c 0
 181 -122 199 -107 203 -83 c 0
 203.666666667 -79.5 204 -75.8055555556 204 -71.8888888889 c 0
 204 -57.2024298752 199.313164436 -39.3914138188 189.939493308 -16.9913084389 c 0
 188.961677082 -16.9971002132 187.981842304 -17 187 -17 c 0
 127 -17 65 -5 -4 19 c 1
 16 119 l 1
 78 86 141 69 206 69 c 0
 283 69 330 97 340 145 c 0
 341.66969722 154.183334711 342.468179188 162.321211119 342.468179188 169.559095793 c 0
 342.468179188 179.66060556 340.912878475 188.009091661 338 195 c 1
 324 208 290 220 233 231 c 1
 204 238 l 1
 107.920586731 259.446297605 65.5625953969 296.346702889 65.5625953969 361.327249854 c 0
 65.5625953969 372.094680655 66.725630467 383.633115664 69 396 c 0
 90 501 179 560 321 560 c 0
 390 560 450 549 497 529 c 1
EndSplineSet
Validated: 8912897
EndChar

StartChar: Cacute
Encoding: 262 262 253
Width: 726
Flags: W
HStem: -14 92<277.205 504.259> 654 92<382.983 614.228>
VStem: 55.5592 129.59<171.378 411.171>
LayerCount: 2
Fore
SplineSet
738 675 m 1
 716 564 l 1
 658 623 586 654 498 654 c 0
 338 654 231 552 195 366 c 0
 188.408254253 332.863115973 185.149135795 302.392333779 185.149135795 274.689434875 c 0
 185.149135795 146.893730112 254.504846474 78 386 78 c 0
 474 78 558 109 639 168 c 1
 618 58 l 1
 536 10 453 -14 362 -14 c 0
 248 -14 164 21 111 88 c 0
 74.0394736842 134.723684211 55.5592105263 194.091759003 55.5592105263 265.765078273 c 0
 55.5592105263 296.868594183 59.0394736842 330.289473684 66 366 c 0
 89 484 140 577 219 644 c 0
 298 712 396 746 510 746 c 0
 602 746 676 723 738 675 c 1
552 927 m 1
 659 927 l 1
 514 792 l 1
 423 792 l 1
 552 927 l 1
EndSplineSet
Validated: 524289
EndChar

StartChar: cacute
Encoding: 263 263 254
Width: 571
Flags: W
HStem: -14 87<214.034 405.343> 479 87<284.279 487.211>
VStem: 39.2867 119.377<129.194 327.59>
LayerCount: 2
Fore
SplineSet
546 529 m 1
 529 438 l 1
 480 465 431 479 376 479 c 0
 269 479 190 404 165 276 c 0
 160.746490069 254.222029153 158.664061746 233.97828931 158.664061746 215.377134484 c 0
 158.664061746 124.650022022 208.205022505 73 297 73 c 0
 352 73 406 87 466 114 c 1
 448 24 l 1
 390 -2 334 -14 270 -14 c 0
 185 -14 122 13 81 64 c 1
 53.0777358468 100.997000003 39.286679336 146.277811383 39.286679336 200.522736402 c 0
 39.286679336 223.986301957 41.8669622651 249.127037741 47 276 c 0
 65 366 103 436 163 488 c 1
 224 539 301 566 389 566 c 0
 448 566 500 554 546 529 c 1
484 800 m 1
 596 800 l 1
 395 611 l 1
 305 611 l 1
 484 800 l 1
EndSplineSet
Validated: 524289
EndChar

StartChar: Ccaron
Encoding: 268 268 255
Width: 726
Flags: W
HStem: -14 92<277.205 504.259> 654 92<382.983 614.228>
VStem: 55.5592 129.59<171.378 411.171>
LayerCount: 2
Fore
SplineSet
738 675 m 1
 716 564 l 1
 658 623 586 654 498 654 c 0
 338 654 231 552 195 366 c 0
 188.408254253 332.863115973 185.149135795 302.392333779 185.149135795 274.689434875 c 0
 185.149135795 146.893730112 254.504846474 78 386 78 c 0
 474 78 558 109 639 168 c 1
 618 58 l 1
 536 10 453 -14 362 -14 c 0
 248 -14 164 21 111 88 c 0
 74.0394736842 134.723684211 55.5592105263 194.091759003 55.5592105263 265.765078273 c 0
 55.5592105263 296.868594183 59.0394736842 330.289473684 66 366 c 0
 89 484 140 577 219 644 c 0
 298 712 396 746 510 746 c 0
 602 746 676 723 738 675 c 1
452 791 m 1
 369 928 l 1
 454 928 l 1
 514 844 l 1
 607 928 l 1
 691 928 l 1
 555 791 l 1
 452 791 l 1
EndSplineSet
Validated: 524289
EndChar

StartChar: ccaron
Encoding: 269 269 256
Width: 571
Flags: W
HStem: -14 87<214.034 405.343> 478 87<283.587 489.308>
VStem: 39.2867 119.377<129.194 327.403>
LayerCount: 2
Fore
SplineSet
546 529 m 1
 529 438 l 1
 480 464 430 478 375 478 c 0
 268 478 190 403 165 276 c 0
 160.746490069 254.222029153 158.664061746 233.97828931 158.664061746 215.377134484 c 0
 158.664061746 124.650022022 208.205022505 73 297 73 c 0
 352 73 406 87 466 114 c 1
 448 24 l 1
 390 -2 334 -14 270 -14 c 0
 185 -14 122 13 81 64 c 1
 53.0777358468 100.997000003 39.286679336 146.277811383 39.286679336 200.522736402 c 0
 39.286679336 223.986301957 41.8669622651 249.127037741 47 276 c 0
 65 366 103 436 163 487 c 0
 224 538 300 565 388 565 c 0
 447 565 500 553 546 529 c 1
342 610 m 1
 255 800 l 1
 339 800 l 1
 398 684 l 1
 504 800 l 1
 587 800 l 1
 426 610 l 1
 342 610 l 1
EndSplineSet
Validated: 524289
EndChar

StartChar: dslash
Encoding: 57355 57355 257
Width: 661
Flags: W
HStem: -14 86<199.126 326.304> 479 86<270.335 415.709> 621 68<372 519 638 701> 740 20G<542.056 652>
VStem: 38.5556 118.899<116.592 326.294>
LayerCount: 2
Fore
SplineSet
490 470 m 1
 519 621 l 1
 359 621 l 1
 372 689 l 1
 532 689 l 1
 546 760 l 1
 652 760 l 1
 638 689 l 1
 714 689 l 1
 701 621 l 1
 625 621 l 1
 505 2 l 1
 399 2 l 1
 414 81 l 1
 367 17 305 -14 228 -14 c 0
 158 -14 106 13 71 66 c 1
 49.6666666667 102 38.5555555556 144.666666667 38.5555555556 194.888888889 c 0
 38.5555555556 220 41.3333333333 247 47 276 c 0
 64 362 99 432 153 485 c 0
 208 538 270 565 340 565 c 0
 417 565 467 534 490 470 c 1
165 276 m 0
 159.933755945 250.263480198 157.454728235 226.580306703 157.454728235 205.17517899 c 0
 157.454728235 120.95408993 195.833179075 72 266 72 c 0
 357 72 427 149 452 276 c 0
 456.911610732 300.754518091 459.314333786 323.617720854 459.314333786 344.377279042 c 0
 459.314333786 429.283455168 419.121736935 479 346 479 c 0
 258 479 190 402 165 276 c 0
EndSplineSet
Validated: 524289
EndChar

StartChar: sfthyphen
Encoding: 57360 57360 258
Width: 376
Flags: W
HStem: 234 80<49 307>
VStem: 33 290
LayerCount: 2
Fore
SplineSet
49 314 m 1
 323 314 l 1
 307 234 l 1
 33 234 l 1
 49 314 l 1
EndSplineSet
Validated: 1
EndChar

StartChar: c6459
Encoding: 57346 57346 259
Width: 519
Flags: W
HStem: 632 99<188 281 376 469>
VStem: 168 321
LayerCount: 2
Fore
SplineSet
376 731 m 1
 489 731 l 1
 469 632 l 1
 356 632 l 1
 376 731 l 1
188 731 m 1
 301 731 l 1
 281 632 l 1
 168 632 l 1
 188 731 l 1
EndSplineSet
Validated: 1
EndChar

StartChar: c6460
Encoding: 57347 57347 260
Width: 522
Flags: W
HStem: 616 129
VStem: 245 219
LayerCount: 2
Fore
SplineSet
365 745 m 1
 464 745 l 1
 330 616 l 1
 245 616 l 1
 365 745 l 1
EndSplineSet
Validated: 1
EndChar

StartChar: c6461
Encoding: 57348 57348 261
Width: 521
Flags: W
HStem: 632 65<348.89 422.46> 677 62<236.846 309.484>
VStem: 152 78<632 671.156> 428 80<700.245 739>
LayerCount: 2
Fore
SplineSet
315 652 m 1xb0
 290 666 l 1
 280 674 273 677 266 677 c 0x70
 248 677 236 663 232 640 c 1
 230 632 l 1
 152 632 l 1xb0
 165 697 212 739 272 739 c 0x70
 297 739 314 736 345 721 c 1
 370 707 l 2
 380 701 389 697 396 697 c 0xb0
 411 697 424 712 428 733 c 2
 429 739 l 1
 508 739 l 1x70
 495 675 446 632 387 632 c 0
 362 632 348 636 315 652 c 1xb0
EndSplineSet
Validated: 1
EndChar

StartChar: c6462
Encoding: 57349 57349 262
Width: 519
Flags: W
HStem: 616 129<301 316>
VStem: 217 169
LayerCount: 2
Fore
SplineSet
316 745 m 1
 386 616 l 1
 301 616 l 1
 217 745 l 1
 316 745 l 1
EndSplineSet
Validated: 1
EndChar

StartChar: c6463
Encoding: 57350 57350 263
Width: 520
Flags: W
HStem: 616 130<291 293>
VStem: 161 310
LayerCount: 2
Fore
SplineSet
293 746 m 1
 392 746 l 1
 471 616 l 1
 390 616 l 1
 332 696 l 1
 243 616 l 1
 161 616 l 1
 293 746 l 1
EndSplineSet
Validated: 1
EndChar

StartChar: c6466
Encoding: 57351 57351 264
Width: 520
Flags: W
HStem: 616 130<267 269>
VStem: 187 310
LayerCount: 2
Fore
SplineSet
267 616 m 1
 187 746 l 1
 269 746 l 1
 326 667 l 1
 416 746 l 1
 497 746 l 1
 366 616 l 1
 267 616 l 1
EndSplineSet
Validated: 1
EndChar

StartChar: c6467
Encoding: 57352 57352 265
Width: 416
Flags: W
HStem: 415 59<132 251 347 400> 714 20G<285.02 397>
LayerCount: 2
Fore
SplineSet
300 666 m 1
 132 474 l 1
 263 474 l 1
 300 666 l 1
304 734 m 1
 397 734 l 1
 347 474 l 1
 412 474 l 1
 400 415 l 1
 335 415 l 1
 318 326 l 1
 234 326 l 1
 251 415 l 1
 49 415 l 1
 62 479 l 1
 304 734 l 1
EndSplineSet
Validated: 1
EndChar

